{
.appVersion = "1192";
copyright = "Copyright 2019 Christopher Blanchard\012\012Licensed under the Apache License, Version 2.0 (the \"License\");\012you may not use this file except in compliance with the License.\012You may obtain a copy of the License at\012\012    http://www.apache.org/licenses/LICENSE-2.0\012\012Unless required by applicable law or agreed to in writing, software\012distributed under the License is distributed on an \"AS IS\" BASIS,\012WITHOUT WARRANTIES OR CONDITIONS OF ANY KIND, either express or implied.\012See the License for the specific language governing permissions and\012limitations under the License.";
date = "2019-01-24 21:48:33 +0000";
designer = "Christopher Blanchard";
designerURL = "https://github.com/stallmanifold";
familyName = "Googly Blocks Color";
fontMaster = (
{
ascender = 800;
capHeight = 700;
customParameters = (
{
name = "Color Palettes";
value = (
(
"0,0,0,255",
"0,131,255,255",
"0,0,255,255",
"0,255,0,255",
"132,0,255,255",
"255,0,0,255",
"250,128,114,255",
"255,255,0,255"
)
);
}
);
descender = -200;
guideLines = (
{
angle = 90;
position = "{64, 132}";
},
{
position = "{70, 124}";
},
{
position = "{54, 4}";
},
{
angle = 90;
position = "{138, 131}";
},
{
angle = 90;
position = "{160, 132}";
},
{
angle = 90;
position = "{234, 135}";
},
{
angle = 90;
position = "{256, 133}";
},
{
angle = 90;
position = "{330, 131}";
},
{
angle = 90;
position = "{352, 132}";
},
{
angle = 90;
position = "{426, 132}";
},
{
angle = 90;
position = "{448, 134}";
},
{
angle = 90;
position = "{522, 133}";
},
{
angle = 90;
position = "{544, 133}";
},
{
angle = 90;
position = "{618, 135}";
}
);
id = "3BA1B4B2-6ACF-4D2C-A9DD-A548EEBF9DB3";
xHeight = 500;
}
);
glyphs = (
{
glyphname = A;
lastChange = "2019-02-09 05:30:05 +0000";
layers = (
{
layerId = "3BA1B4B2-6ACF-4D2C-A9DD-A548EEBF9DB3";
paths = (
{
closed = 1;
nodes = (
"156 572 LINE",
"238 572 LINE",
"238 700 LINE",
"156 700 LINE"
);
},
{
closed = 1;
nodes = (
"252 572 LINE",
"334 572 LINE",
"334 700 LINE",
"252 700 LINE"
);
},
{
closed = 1;
nodes = (
"348 572 LINE",
"430 572 LINE",
"430 700 LINE",
"348 700 LINE"
);
},
{
closed = 1;
nodes = (
"444 572 LINE",
"526 572 LINE",
"526 700 LINE",
"444 700 LINE"
);
},
{
closed = 1;
nodes = (
"60 429 LINE",
"142 429 LINE",
"142 557 LINE",
"60 557 LINE"
);
},
{
closed = 1;
nodes = (
"156 429 LINE",
"238 429 LINE",
"238 557 LINE",
"156 557 LINE"
);
},
{
closed = 1;
nodes = (
"444 429 LINE",
"526 429 LINE",
"526 557 LINE",
"444 557 LINE"
);
},
{
closed = 1;
nodes = (
"540 429 LINE",
"622 429 LINE",
"622 557 LINE",
"540 557 LINE"
);
},
{
closed = 1;
nodes = (
"60 286 LINE",
"142 286 LINE",
"142 414 LINE",
"60 414 LINE"
);
},
{
closed = 1;
nodes = (
"156 286 LINE",
"238 286 LINE",
"238 414 LINE",
"156 414 LINE"
);
},
{
closed = 1;
nodes = (
"444 286 LINE",
"526 286 LINE",
"526 414 LINE",
"444 414 LINE"
);
},
{
closed = 1;
nodes = (
"540 286 LINE",
"622 286 LINE",
"622 414 LINE",
"540 414 LINE"
);
},
{
closed = 1;
nodes = (
"60 143 LINE",
"142 143 LINE",
"142 271 LINE",
"60 271 LINE"
);
},
{
closed = 1;
nodes = (
"156 143 LINE",
"238 143 LINE",
"238 271 LINE",
"156 271 LINE"
);
},
{
closed = 1;
nodes = (
"60 0 LINE",
"142 0 LINE",
"142 128 LINE",
"60 128 LINE"
);
},
{
closed = 1;
nodes = (
"156 0 LINE",
"238 0 LINE",
"238 128 LINE",
"156 128 LINE"
);
},
{
closed = 1;
nodes = (
"444 143 LINE",
"526 143 LINE",
"526 271 LINE",
"444 271 LINE"
);
},
{
closed = 1;
nodes = (
"540 143 LINE",
"622 143 LINE",
"622 271 LINE",
"540 271 LINE"
);
},
{
closed = 1;
nodes = (
"444 0 LINE",
"526 0 LINE",
"526 128 LINE",
"444 128 LINE"
);
},
{
closed = 1;
nodes = (
"540 0 LINE",
"622 0 LINE",
"622 128 LINE",
"540 128 LINE"
);
},
{
closed = 1;
nodes = (
"252 286 LINE",
"334 286 LINE",
"334 414 LINE",
"252 414 LINE"
);
},
{
closed = 1;
nodes = (
"348 286 LINE",
"430 286 LINE",
"430 414 LINE",
"348 414 LINE"
);
}
);
width = 682;
},
{
associatedMasterId = "3BA1B4B2-6ACF-4D2C-A9DD-A548EEBF9DB3";
layerId = "783B2EFF-A21F-4083-B498-695EB7691C25";
name = "Color 0";
paths = (
{
closed = 1;
nodes = (
"115 572 LINE",
"197 572 LINE",
"197 700 LINE",
"115 700 LINE"
);
},
{
closed = 1;
nodes = (
"211 572 LINE",
"293 572 LINE",
"293 700 LINE",
"211 700 LINE"
);
},
{
closed = 1;
nodes = (
"307 572 LINE",
"389 572 LINE",
"389 700 LINE",
"307 700 LINE"
);
},
{
closed = 1;
nodes = (
"403 572 LINE",
"485 572 LINE",
"485 700 LINE",
"403 700 LINE"
);
},
{
closed = 1;
nodes = (
"19 429 LINE",
"101 429 LINE",
"101 557 LINE",
"19 557 LINE"
);
},
{
closed = 1;
nodes = (
"115 429 LINE",
"197 429 LINE",
"197 557 LINE",
"115 557 LINE"
);
},
{
closed = 1;
nodes = (
"403 429 LINE",
"485 429 LINE",
"485 557 LINE",
"403 557 LINE"
);
},
{
closed = 1;
nodes = (
"499 429 LINE",
"581 429 LINE",
"581 557 LINE",
"499 557 LINE"
);
},
{
closed = 1;
nodes = (
"19 286 LINE",
"101 286 LINE",
"101 414 LINE",
"19 414 LINE"
);
},
{
closed = 1;
nodes = (
"115 286 LINE",
"197 286 LINE",
"197 414 LINE",
"115 414 LINE"
);
},
{
closed = 1;
nodes = (
"403 286 LINE",
"485 286 LINE",
"485 414 LINE",
"403 414 LINE"
);
},
{
closed = 1;
nodes = (
"499 286 LINE",
"581 286 LINE",
"581 414 LINE",
"499 414 LINE"
);
},
{
closed = 1;
nodes = (
"19 143 LINE",
"101 143 LINE",
"101 271 LINE",
"19 271 LINE"
);
},
{
closed = 1;
nodes = (
"115 143 LINE",
"197 143 LINE",
"197 271 LINE",
"115 271 LINE"
);
},
{
closed = 1;
nodes = (
"19 0 LINE",
"101 0 LINE",
"101 128 LINE",
"19 128 LINE"
);
},
{
closed = 1;
nodes = (
"115 0 LINE",
"197 0 LINE",
"197 128 LINE",
"115 128 LINE"
);
},
{
closed = 1;
nodes = (
"403 143 LINE",
"485 143 LINE",
"485 271 LINE",
"403 271 LINE"
);
},
{
closed = 1;
nodes = (
"499 143 LINE",
"581 143 LINE",
"581 271 LINE",
"499 271 LINE"
);
},
{
closed = 1;
nodes = (
"403 0 LINE",
"485 0 LINE",
"485 128 LINE",
"403 128 LINE"
);
},
{
closed = 1;
nodes = (
"499 0 LINE",
"581 0 LINE",
"581 128 LINE",
"499 128 LINE"
);
},
{
closed = 1;
nodes = (
"211 286 LINE",
"293 286 LINE",
"293 414 LINE",
"211 414 LINE"
);
},
{
closed = 1;
nodes = (
"307 286 LINE",
"389 286 LINE",
"389 414 LINE",
"307 414 LINE"
);
}
);
width = 682;
},
{
associatedMasterId = "3BA1B4B2-6ACF-4D2C-A9DD-A548EEBF9DB3";
layerId = "1ACD60B7-3946-4144-88F2-F9AD99E774EC";
name = "Color 1";
paths = (
{
closed = 1;
nodes = (
"119 576 LINE",
"193 576 LINE",
"193 696 LINE",
"119 696 LINE"
);
},
{
closed = 1;
nodes = (
"215 576 LINE",
"289 576 LINE",
"289 696 LINE",
"215 696 LINE"
);
},
{
closed = 1;
nodes = (
"311 576 LINE",
"385 576 LINE",
"385 696 LINE",
"311 696 LINE"
);
},
{
closed = 1;
nodes = (
"407 576 LINE",
"481 576 LINE",
"481 696 LINE",
"407 696 LINE"
);
}
);
width = 682;
},
{
associatedMasterId = "3BA1B4B2-6ACF-4D2C-A9DD-A548EEBF9DB3";
layerId = "58066C83-0007-4E96-A59E-A112AB8AF600";
name = "Color 2";
paths = (
{
closed = 1;
nodes = (
"503 290 LINE",
"577 290 LINE",
"577 410 LINE",
"503 410 LINE"
);
},
{
closed = 1;
nodes = (
"503 147 LINE",
"577 147 LINE",
"577 267 LINE",
"503 267 LINE"
);
},
{
closed = 1;
nodes = (
"503 4 LINE",
"577 4 LINE",
"577 124 LINE",
"503 124 LINE"
);
},
{
closed = 1;
nodes = (
"407 4 LINE",
"481 4 LINE",
"481 124 LINE",
"407 124 LINE"
);
}
);
width = 682;
},
{
associatedMasterId = "3BA1B4B2-6ACF-4D2C-A9DD-A548EEBF9DB3";
layerId = "5C7DEE8E-CA6E-4FD6-9848-F691C4AA8B9C";
name = "Color 3";
paths = (
{
closed = 1;
nodes = (
"311 290 LINE",
"385 290 LINE",
"385 410 LINE",
"311 410 LINE"
);
},
{
closed = 1;
nodes = (
"407 290 LINE",
"481 290 LINE",
"481 410 LINE",
"407 410 LINE"
);
},
{
closed = 1;
nodes = (
"407 433 LINE",
"481 433 LINE",
"481 553 LINE",
"407 553 LINE"
);
},
{
closed = 1;
nodes = (
"503 433 LINE",
"577 433 LINE",
"577 553 LINE",
"503 553 LINE"
);
}
);
width = 682;
},
{
associatedMasterId = "3BA1B4B2-6ACF-4D2C-A9DD-A548EEBF9DB3";
layerId = "C6EEE6BB-D3A0-440A-A2A3-02B6F027BA8E";
name = "Color 4";
paths = (
{
closed = 1;
nodes = (
"23 290 LINE",
"97 290 LINE",
"97 410 LINE",
"23 410 LINE"
);
},
{
closed = 1;
nodes = (
"23 147 LINE",
"97 147 LINE",
"97 267 LINE",
"23 267 LINE"
);
},
{
closed = 1;
nodes = (
"119 147 LINE",
"193 147 LINE",
"193 267 LINE",
"119 267 LINE"
);
},
{
closed = 1;
nodes = (
"23 4 LINE",
"97 4 LINE",
"97 124 LINE",
"23 124 LINE"
);
}
);
width = 682;
},
{
associatedMasterId = "3BA1B4B2-6ACF-4D2C-A9DD-A548EEBF9DB3";
layerId = "55759349-8420-4E67-8D93-27E7AFF4DEB2";
name = "Color 5";
paths = (
{
closed = 1;
nodes = (
"23 433 LINE",
"97 433 LINE",
"97 553 LINE",
"23 553 LINE"
);
},
{
closed = 1;
nodes = (
"119 433 LINE",
"193 433 LINE",
"193 553 LINE",
"119 553 LINE"
);
},
{
closed = 1;
nodes = (
"119 290 LINE",
"193 290 LINE",
"193 410 LINE",
"119 410 LINE"
);
},
{
closed = 1;
nodes = (
"215 290 LINE",
"289 290 LINE",
"289 410 LINE",
"215 410 LINE"
);
}
);
width = 682;
},
{
associatedMasterId = "3BA1B4B2-6ACF-4D2C-A9DD-A548EEBF9DB3";
layerId = "DE064AC7-3608-4D03-A6F4-07AC8AD04DD5";
name = "Color 6";
paths = (
{
closed = 1;
nodes = (
"407 147 LINE",
"481 147 LINE",
"481 267 LINE",
"407 267 LINE"
);
},
{
closed = 1;
nodes = (
"119 4 LINE",
"193 4 LINE",
"193 124 LINE",
"119 124 LINE"
);
}
);
width = 682;
},
{
associatedMasterId = "3BA1B4B2-6ACF-4D2C-A9DD-A548EEBF9DB3";
layerId = "826C501C-F947-4A33-96AA-BE91810AE118";
name = "Color 7";
width = 682;
}
);
unicode = 0041;
},
{
glyphname = B;
lastChange = "2019-02-09 05:30:05 +0000";
layers = (
{
layerId = "3BA1B4B2-6ACF-4D2C-A9DD-A548EEBF9DB3";
paths = (
{
closed = 1;
nodes = (
"60 572 LINE",
"142 572 LINE",
"142 700 LINE",
"60 700 LINE"
);
},
{
closed = 1;
nodes = (
"156 572 LINE",
"238 572 LINE",
"238 700 LINE",
"156 700 LINE"
);
},
{
closed = 1;
nodes = (
"60 429 LINE",
"142 429 LINE",
"142 557 LINE",
"60 557 LINE"
);
},
{
closed = 1;
nodes = (
"156 429 LINE",
"238 429 LINE",
"238 557 LINE",
"156 557 LINE"
);
},
{
closed = 1;
nodes = (
"60 286 LINE",
"142 286 LINE",
"142 414 LINE",
"60 414 LINE"
);
},
{
closed = 1;
nodes = (
"156 286 LINE",
"238 286 LINE",
"238 414 LINE",
"156 414 LINE"
);
},
{
closed = 1;
nodes = (
"60 143 LINE",
"142 143 LINE",
"142 271 LINE",
"60 271 LINE"
);
},
{
closed = 1;
nodes = (
"156 143 LINE",
"238 143 LINE",
"238 271 LINE",
"156 271 LINE"
);
},
{
closed = 1;
nodes = (
"60 0 LINE",
"142 0 LINE",
"142 128 LINE",
"60 128 LINE"
);
},
{
closed = 1;
nodes = (
"156 0 LINE",
"238 0 LINE",
"238 128 LINE",
"156 128 LINE"
);
},
{
closed = 1;
nodes = (
"252 286 LINE",
"334 286 LINE",
"334 414 LINE",
"252 414 LINE"
);
},
{
closed = 1;
nodes = (
"348 286 LINE",
"430 286 LINE",
"430 414 LINE",
"348 414 LINE"
);
},
{
closed = 1;
nodes = (
"444 286 LINE",
"526 286 LINE",
"526 414 LINE",
"444 414 LINE"
);
},
{
closed = 1;
nodes = (
"444 429 LINE",
"526 429 LINE",
"526 557 LINE",
"444 557 LINE"
);
},
{
closed = 1;
nodes = (
"540 429 LINE",
"622 429 LINE",
"622 557 LINE",
"540 557 LINE"
);
},
{
closed = 1;
nodes = (
"444 572 LINE",
"526 572 LINE",
"526 700 LINE",
"444 700 LINE"
);
},
{
closed = 1;
nodes = (
"252 572 LINE",
"334 572 LINE",
"334 700 LINE",
"252 700 LINE"
);
},
{
closed = 1;
nodes = (
"348 572 LINE",
"430 572 LINE",
"430 700 LINE",
"348 700 LINE"
);
},
{
closed = 1;
nodes = (
"444 143 LINE",
"526 143 LINE",
"526 271 LINE",
"444 271 LINE"
);
},
{
closed = 1;
nodes = (
"540 143 LINE",
"622 143 LINE",
"622 271 LINE",
"540 271 LINE"
);
},
{
closed = 1;
nodes = (
"444 0 LINE",
"526 0 LINE",
"526 128 LINE",
"444 128 LINE"
);
},
{
closed = 1;
nodes = (
"252 0 LINE",
"334 0 LINE",
"334 128 LINE",
"252 128 LINE"
);
},
{
closed = 1;
nodes = (
"348 0 LINE",
"430 0 LINE",
"430 128 LINE",
"348 128 LINE"
);
}
);
width = 682;
},
{
associatedMasterId = "3BA1B4B2-6ACF-4D2C-A9DD-A548EEBF9DB3";
layerId = "36EC7FF0-0F81-4064-A7BC-602BE1F17746";
name = "Color 0";
paths = (
{
closed = 1;
nodes = (
"19 572 LINE",
"101 572 LINE",
"101 700 LINE",
"19 700 LINE"
);
},
{
closed = 1;
nodes = (
"115 572 LINE",
"197 572 LINE",
"197 700 LINE",
"115 700 LINE"
);
},
{
closed = 1;
nodes = (
"19 429 LINE",
"101 429 LINE",
"101 557 LINE",
"19 557 LINE"
);
},
{
closed = 1;
nodes = (
"115 429 LINE",
"197 429 LINE",
"197 557 LINE",
"115 557 LINE"
);
},
{
closed = 1;
nodes = (
"19 286 LINE",
"101 286 LINE",
"101 414 LINE",
"19 414 LINE"
);
},
{
closed = 1;
nodes = (
"115 286 LINE",
"197 286 LINE",
"197 414 LINE",
"115 414 LINE"
);
},
{
closed = 1;
nodes = (
"19 143 LINE",
"101 143 LINE",
"101 271 LINE",
"19 271 LINE"
);
},
{
closed = 1;
nodes = (
"115 143 LINE",
"197 143 LINE",
"197 271 LINE",
"115 271 LINE"
);
},
{
closed = 1;
nodes = (
"19 0 LINE",
"101 0 LINE",
"101 128 LINE",
"19 128 LINE"
);
},
{
closed = 1;
nodes = (
"115 0 LINE",
"197 0 LINE",
"197 128 LINE",
"115 128 LINE"
);
},
{
closed = 1;
nodes = (
"211 286 LINE",
"293 286 LINE",
"293 414 LINE",
"211 414 LINE"
);
},
{
closed = 1;
nodes = (
"307 286 LINE",
"389 286 LINE",
"389 414 LINE",
"307 414 LINE"
);
},
{
closed = 1;
nodes = (
"403 286 LINE",
"485 286 LINE",
"485 414 LINE",
"403 414 LINE"
);
},
{
closed = 1;
nodes = (
"403 429 LINE",
"485 429 LINE",
"485 557 LINE",
"403 557 LINE"
);
},
{
closed = 1;
nodes = (
"499 429 LINE",
"581 429 LINE",
"581 557 LINE",
"499 557 LINE"
);
},
{
closed = 1;
nodes = (
"403 572 LINE",
"485 572 LINE",
"485 700 LINE",
"403 700 LINE"
);
},
{
closed = 1;
nodes = (
"211 572 LINE",
"293 572 LINE",
"293 700 LINE",
"211 700 LINE"
);
},
{
closed = 1;
nodes = (
"307 572 LINE",
"389 572 LINE",
"389 700 LINE",
"307 700 LINE"
);
},
{
closed = 1;
nodes = (
"403 143 LINE",
"485 143 LINE",
"485 271 LINE",
"403 271 LINE"
);
},
{
closed = 1;
nodes = (
"499 143 LINE",
"581 143 LINE",
"581 271 LINE",
"499 271 LINE"
);
},
{
closed = 1;
nodes = (
"403 0 LINE",
"485 0 LINE",
"485 128 LINE",
"403 128 LINE"
);
},
{
closed = 1;
nodes = (
"211 0 LINE",
"293 0 LINE",
"293 128 LINE",
"211 128 LINE"
);
},
{
closed = 1;
nodes = (
"307 0 LINE",
"389 0 LINE",
"389 128 LINE",
"307 128 LINE"
);
}
);
width = 682;
},
{
associatedMasterId = "3BA1B4B2-6ACF-4D2C-A9DD-A548EEBF9DB3";
layerId = "70EC2EDF-6682-4FE6-B29B-2DDED66FE256";
name = "Color 1";
paths = (
{
closed = 1;
nodes = (
"311 290 LINE",
"385 290 LINE",
"385 410 LINE",
"311 410 LINE"
);
}
);
width = 682;
},
{
associatedMasterId = "3BA1B4B2-6ACF-4D2C-A9DD-A548EEBF9DB3";
layerId = "509FD854-F0B0-45E5-B3E1-18819F1F8C97";
name = "Color 2";
paths = (
{
closed = 1;
nodes = (
"119 147 LINE",
"193 147 LINE",
"193 267 LINE",
"119 267 LINE"
);
},
{
closed = 1;
nodes = (
"119 4 LINE",
"193 4 LINE",
"193 124 LINE",
"119 124 LINE"
);
},
{
closed = 1;
nodes = (
"215 4 LINE",
"289 4 LINE",
"289 124 LINE",
"215 124 LINE"
);
},
{
closed = 1;
nodes = (
"311 4 LINE",
"385 4 LINE",
"385 124 LINE",
"311 124 LINE"
);
}
);
width = 682;
},
{
associatedMasterId = "3BA1B4B2-6ACF-4D2C-A9DD-A548EEBF9DB3";
layerId = "3903E21B-CCEF-4CE8-B4B4-45449544971C";
name = "Color 3";
paths = (
{
closed = 1;
nodes = (
"23 433 LINE",
"97 433 LINE",
"97 553 LINE",
"23 553 LINE"
);
},
{
closed = 1;
nodes = (
"119 433 LINE",
"193 433 LINE",
"193 553 LINE",
"119 553 LINE"
);
},
{
closed = 1;
nodes = (
"119 576 LINE",
"193 576 LINE",
"193 696 LINE",
"119 696 LINE"
);
},
{
closed = 1;
nodes = (
"215 576 LINE",
"289 576 LINE",
"289 696 LINE",
"215 696 LINE"
);
}
);
width = 682;
},
{
associatedMasterId = "3BA1B4B2-6ACF-4D2C-A9DD-A548EEBF9DB3";
layerId = "07B01A8C-7338-464C-A94F-4DCDA04C29A9";
name = "Color 4";
paths = (
{
closed = 1;
nodes = (
"407 290 LINE",
"481 290 LINE",
"481 410 LINE",
"407 410 LINE"
);
},
{
closed = 1;
nodes = (
"407 147 LINE",
"481 147 LINE",
"481 267 LINE",
"407 267 LINE"
);
},
{
closed = 1;
nodes = (
"503 147 LINE",
"577 147 LINE",
"577 267 LINE",
"503 267 LINE"
);
},
{
closed = 1;
nodes = (
"407 4 LINE",
"481 4 LINE",
"481 124 LINE",
"407 124 LINE"
);
}
);
width = 682;
},
{
associatedMasterId = "3BA1B4B2-6ACF-4D2C-A9DD-A548EEBF9DB3";
layerId = "5983862A-08E6-478F-A19E-907626655F18";
name = "Color 5";
paths = (
{
closed = 1;
nodes = (
"311 576 LINE",
"385 576 LINE",
"385 696 LINE",
"311 696 LINE"
);
},
{
closed = 1;
nodes = (
"407 576 LINE",
"481 576 LINE",
"481 696 LINE",
"407 696 LINE"
);
},
{
closed = 1;
nodes = (
"407 433 LINE",
"481 433 LINE",
"481 553 LINE",
"407 553 LINE"
);
},
{
closed = 1;
nodes = (
"503 433 LINE",
"577 433 LINE",
"577 553 LINE",
"503 553 LINE"
);
}
);
width = 682;
},
{
associatedMasterId = "3BA1B4B2-6ACF-4D2C-A9DD-A548EEBF9DB3";
layerId = "821DF61F-20DE-4D02-8608-E41379924A78";
name = "Color 6";
paths = (
{
closed = 1;
nodes = (
"23 147 LINE",
"97 147 LINE",
"97 267 LINE",
"23 267 LINE"
);
},
{
closed = 1;
nodes = (
"23 290 LINE",
"97 290 LINE",
"97 410 LINE",
"23 410 LINE"
);
},
{
closed = 1;
nodes = (
"119 290 LINE",
"193 290 LINE",
"193 410 LINE",
"119 410 LINE"
);
},
{
closed = 1;
nodes = (
"215 290 LINE",
"289 290 LINE",
"289 410 LINE",
"215 410 LINE"
);
}
);
width = 682;
},
{
associatedMasterId = "3BA1B4B2-6ACF-4D2C-A9DD-A548EEBF9DB3";
layerId = "9D36B0CC-C33A-4DFC-AB51-D14DCA41E8FA";
name = "Color 7";
paths = (
{
closed = 1;
nodes = (
"23 576 LINE",
"97 576 LINE",
"97 696 LINE",
"23 696 LINE"
);
},
{
closed = 1;
nodes = (
"23 4 LINE",
"97 4 LINE",
"97 124 LINE",
"23 124 LINE"
);
}
);
width = 682;
}
);
unicode = 0042;
},
{
glyphname = C;
lastChange = "2019-02-09 05:30:05 +0000";
layers = (
{
layerId = "3BA1B4B2-6ACF-4D2C-A9DD-A548EEBF9DB3";
paths = (
{
closed = 1;
nodes = (
"156 572 LINE",
"238 572 LINE",
"238 700 LINE",
"156 700 LINE"
);
},
{
closed = 1;
nodes = (
"252 572 LINE",
"334 572 LINE",
"334 700 LINE",
"252 700 LINE"
);
},
{
closed = 1;
nodes = (
"348 572 LINE",
"430 572 LINE",
"430 700 LINE",
"348 700 LINE"
);
},
{
closed = 1;
nodes = (
"444 572 LINE",
"526 572 LINE",
"526 700 LINE",
"444 700 LINE"
);
},
{
closed = 1;
nodes = (
"444 429 LINE",
"526 429 LINE",
"526 557 LINE",
"444 557 LINE"
);
},
{
closed = 1;
nodes = (
"540 429 LINE",
"622 429 LINE",
"622 557 LINE",
"540 557 LINE"
);
},
{
closed = 1;
nodes = (
"60 429 LINE",
"142 429 LINE",
"142 557 LINE",
"60 557 LINE"
);
},
{
closed = 1;
nodes = (
"156 429 LINE",
"238 429 LINE",
"238 557 LINE",
"156 557 LINE"
);
},
{
closed = 1;
nodes = (
"60 286 LINE",
"142 286 LINE",
"142 414 LINE",
"60 414 LINE"
);
},
{
closed = 1;
nodes = (
"156 286 LINE",
"238 286 LINE",
"238 414 LINE",
"156 414 LINE"
);
},
{
closed = 1;
nodes = (
"60 143 LINE",
"142 143 LINE",
"142 271 LINE",
"60 271 LINE"
);
},
{
closed = 1;
nodes = (
"156 143 LINE",
"238 143 LINE",
"238 271 LINE",
"156 271 LINE"
);
},
{
closed = 1;
nodes = (
"156 0 LINE",
"238 0 LINE",
"238 128 LINE",
"156 128 LINE"
);
},
{
closed = 1;
nodes = (
"252 0 LINE",
"334 0 LINE",
"334 128 LINE",
"252 128 LINE"
);
},
{
closed = 1;
nodes = (
"348 0 LINE",
"430 0 LINE",
"430 128 LINE",
"348 128 LINE"
);
},
{
closed = 1;
nodes = (
"444 0 LINE",
"526 0 LINE",
"526 128 LINE",
"444 128 LINE"
);
},
{
closed = 1;
nodes = (
"444 143 LINE",
"526 143 LINE",
"526 271 LINE",
"444 271 LINE"
);
},
{
closed = 1;
nodes = (
"540 143 LINE",
"622 143 LINE",
"622 271 LINE",
"540 271 LINE"
);
}
);
width = 682;
},
{
associatedMasterId = "3BA1B4B2-6ACF-4D2C-A9DD-A548EEBF9DB3";
layerId = "DDB2771F-28B0-41A0-A210-2273FC9400C4";
name = "Color 0";
paths = (
{
closed = 1;
nodes = (
"115 572 LINE",
"197 572 LINE",
"197 700 LINE",
"115 700 LINE"
);
},
{
closed = 1;
nodes = (
"211 572 LINE",
"293 572 LINE",
"293 700 LINE",
"211 700 LINE"
);
},
{
closed = 1;
nodes = (
"307 572 LINE",
"389 572 LINE",
"389 700 LINE",
"307 700 LINE"
);
},
{
closed = 1;
nodes = (
"403 572 LINE",
"485 572 LINE",
"485 700 LINE",
"403 700 LINE"
);
},
{
closed = 1;
nodes = (
"403 429 LINE",
"485 429 LINE",
"485 557 LINE",
"403 557 LINE"
);
},
{
closed = 1;
nodes = (
"499 429 LINE",
"581 429 LINE",
"581 557 LINE",
"499 557 LINE"
);
},
{
closed = 1;
nodes = (
"19 429 LINE",
"101 429 LINE",
"101 557 LINE",
"19 557 LINE"
);
},
{
closed = 1;
nodes = (
"115 429 LINE",
"197 429 LINE",
"197 557 LINE",
"115 557 LINE"
);
},
{
closed = 1;
nodes = (
"19 286 LINE",
"101 286 LINE",
"101 414 LINE",
"19 414 LINE"
);
},
{
closed = 1;
nodes = (
"115 286 LINE",
"197 286 LINE",
"197 414 LINE",
"115 414 LINE"
);
},
{
closed = 1;
nodes = (
"19 143 LINE",
"101 143 LINE",
"101 271 LINE",
"19 271 LINE"
);
},
{
closed = 1;
nodes = (
"115 143 LINE",
"197 143 LINE",
"197 271 LINE",
"115 271 LINE"
);
},
{
closed = 1;
nodes = (
"115 0 LINE",
"197 0 LINE",
"197 128 LINE",
"115 128 LINE"
);
},
{
closed = 1;
nodes = (
"211 0 LINE",
"293 0 LINE",
"293 128 LINE",
"211 128 LINE"
);
},
{
closed = 1;
nodes = (
"307 0 LINE",
"389 0 LINE",
"389 128 LINE",
"307 128 LINE"
);
},
{
closed = 1;
nodes = (
"403 0 LINE",
"485 0 LINE",
"485 128 LINE",
"403 128 LINE"
);
},
{
closed = 1;
nodes = (
"403 143 LINE",
"485 143 LINE",
"485 271 LINE",
"403 271 LINE"
);
},
{
closed = 1;
nodes = (
"499 143 LINE",
"581 143 LINE",
"581 271 LINE",
"499 271 LINE"
);
}
);
width = 682;
},
{
associatedMasterId = "3BA1B4B2-6ACF-4D2C-A9DD-A548EEBF9DB3";
layerId = "323D387B-67DD-4774-B65F-49592008CF09";
name = "Color 1";
paths = (
{
closed = 1;
nodes = (
"119 4 LINE",
"193 4 LINE",
"193 124 LINE",
"119 124 LINE"
);
},
{
closed = 1;
nodes = (
"215 4 LINE",
"289 4 LINE",
"289 124 LINE",
"215 124 LINE"
);
}
);
width = 682;
},
{
associatedMasterId = "3BA1B4B2-6ACF-4D2C-A9DD-A548EEBF9DB3";
layerId = "1E80E0C6-E768-4006-B859-8FCC70B1D09D";
name = "Color 2";
paths = (
{
closed = 1;
nodes = (
"215 576 LINE",
"289 576 LINE",
"289 696 LINE",
"215 696 LINE"
);
},
{
closed = 1;
nodes = (
"119 576 LINE",
"193 576 LINE",
"193 696 LINE",
"119 696 LINE"
);
},
{
closed = 1;
nodes = (
"119 433 LINE",
"193 433 LINE",
"193 553 LINE",
"119 553 LINE"
);
},
{
closed = 1;
nodes = (
"119 290 LINE",
"193 290 LINE",
"193 410 LINE",
"119 410 LINE"
);
}
);
width = 682;
},
{
associatedMasterId = "3BA1B4B2-6ACF-4D2C-A9DD-A548EEBF9DB3";
layerId = "B2AD4EFF-68ED-4490-82BE-F084EB21209E";
name = "Color 3";
paths = (
{
closed = 1;
nodes = (
"503 147 LINE",
"577 147 LINE",
"577 267 LINE",
"503 267 LINE"
);
},
{
closed = 1;
nodes = (
"407 147 LINE",
"481 147 LINE",
"481 267 LINE",
"407 267 LINE"
);
},
{
closed = 1;
nodes = (
"407 4 LINE",
"481 4 LINE",
"481 124 LINE",
"407 124 LINE"
);
},
{
closed = 1;
nodes = (
"311 4 LINE",
"385 4 LINE",
"385 124 LINE",
"311 124 LINE"
);
}
);
width = 682;
},
{
associatedMasterId = "3BA1B4B2-6ACF-4D2C-A9DD-A548EEBF9DB3";
layerId = "CA3391BD-778B-4C80-A7F8-637D857FD7A8";
name = "Color 4";
width = 682;
},
{
associatedMasterId = "3BA1B4B2-6ACF-4D2C-A9DD-A548EEBF9DB3";
layerId = "CB1EA6A1-B2C4-4EF1-ACD7-B8AAF4CD8003";
name = "Color 5";
paths = (
{
closed = 1;
nodes = (
"503 433 LINE",
"577 433 LINE",
"577 553 LINE",
"503 553 LINE"
);
},
{
closed = 1;
nodes = (
"407 433 LINE",
"481 433 LINE",
"481 553 LINE",
"407 553 LINE"
);
},
{
closed = 1;
nodes = (
"407 576 LINE",
"481 576 LINE",
"481 696 LINE",
"407 696 LINE"
);
},
{
closed = 1;
nodes = (
"311 576 LINE",
"385 576 LINE",
"385 696 LINE",
"311 696 LINE"
);
}
);
width = 682;
},
{
associatedMasterId = "3BA1B4B2-6ACF-4D2C-A9DD-A548EEBF9DB3";
layerId = "2344B3C4-F0AF-4B1A-B21A-6A484676E854";
name = "Color 6";
paths = (
{
closed = 1;
nodes = (
"23 433 LINE",
"97 433 LINE",
"97 553 LINE",
"23 553 LINE"
);
},
{
closed = 1;
nodes = (
"23 290 LINE",
"97 290 LINE",
"97 410 LINE",
"23 410 LINE"
);
},
{
closed = 1;
nodes = (
"23 147 LINE",
"97 147 LINE",
"97 267 LINE",
"23 267 LINE"
);
},
{
closed = 1;
nodes = (
"119 147 LINE",
"193 147 LINE",
"193 267 LINE",
"119 267 LINE"
);
}
);
width = 682;
},
{
associatedMasterId = "3BA1B4B2-6ACF-4D2C-A9DD-A548EEBF9DB3";
layerId = "6B3D3B24-578A-4B57-A14F-F5E01FDFEE81";
name = "Color 7";
width = 682;
}
);
unicode = 0043;
},
{
glyphname = D;
lastChange = "2019-02-09 05:30:05 +0000";
layers = (
{
layerId = "3BA1B4B2-6ACF-4D2C-A9DD-A548EEBF9DB3";
paths = (
{
closed = 1;
nodes = (
"60 572 LINE",
"142 572 LINE",
"142 700 LINE",
"60 700 LINE"
);
},
{
closed = 1;
nodes = (
"156 572 LINE",
"238 572 LINE",
"238 700 LINE",
"156 700 LINE"
);
},
{
closed = 1;
nodes = (
"60 429 LINE",
"142 429 LINE",
"142 557 LINE",
"60 557 LINE"
);
},
{
closed = 1;
nodes = (
"156 429 LINE",
"238 429 LINE",
"238 557 LINE",
"156 557 LINE"
);
},
{
closed = 1;
nodes = (
"60 286 LINE",
"142 286 LINE",
"142 414 LINE",
"60 414 LINE"
);
},
{
closed = 1;
nodes = (
"156 286 LINE",
"238 286 LINE",
"238 414 LINE",
"156 414 LINE"
);
},
{
closed = 1;
nodes = (
"60 143 LINE",
"142 143 LINE",
"142 271 LINE",
"60 271 LINE"
);
},
{
closed = 1;
nodes = (
"156 143 LINE",
"238 143 LINE",
"238 271 LINE",
"156 271 LINE"
);
},
{
closed = 1;
nodes = (
"60 0 LINE",
"142 0 LINE",
"142 128 LINE",
"60 128 LINE"
);
},
{
closed = 1;
nodes = (
"156 0 LINE",
"238 0 LINE",
"238 128 LINE",
"156 128 LINE"
);
},
{
closed = 1;
nodes = (
"252 572 LINE",
"334 572 LINE",
"334 700 LINE",
"252 700 LINE"
);
},
{
closed = 1;
nodes = (
"348 572 LINE",
"430 572 LINE",
"430 700 LINE",
"348 700 LINE"
);
},
{
closed = 1;
nodes = (
"252 0 LINE",
"334 0 LINE",
"334 128 LINE",
"252 128 LINE"
);
},
{
closed = 1;
nodes = (
"348 0 LINE",
"430 0 LINE",
"430 128 LINE",
"348 128 LINE"
);
},
{
closed = 1;
nodes = (
"444 572 LINE",
"526 572 LINE",
"526 700 LINE",
"444 700 LINE"
);
},
{
closed = 1;
nodes = (
"444 429 LINE",
"526 429 LINE",
"526 557 LINE",
"444 557 LINE"
);
},
{
closed = 1;
nodes = (
"540 429 LINE",
"622 429 LINE",
"622 557 LINE",
"540 557 LINE"
);
},
{
closed = 1;
nodes = (
"444 0 LINE",
"526 0 LINE",
"526 128 LINE",
"444 128 LINE"
);
},
{
closed = 1;
nodes = (
"444 143 LINE",
"526 143 LINE",
"526 271 LINE",
"444 271 LINE"
);
},
{
closed = 1;
nodes = (
"540 143 LINE",
"622 143 LINE",
"622 271 LINE",
"540 271 LINE"
);
},
{
closed = 1;
nodes = (
"444 286 LINE",
"526 286 LINE",
"526 414 LINE",
"444 414 LINE"
);
},
{
closed = 1;
nodes = (
"540 286 LINE",
"622 286 LINE",
"622 414 LINE",
"540 414 LINE"
);
}
);
width = 682;
},
{
associatedMasterId = "3BA1B4B2-6ACF-4D2C-A9DD-A548EEBF9DB3";
layerId = "FF81434F-3A9C-4D74-955F-ED716AD18D48";
name = "Color 0";
paths = (
{
closed = 1;
nodes = (
"19 572 LINE",
"101 572 LINE",
"101 700 LINE",
"19 700 LINE"
);
},
{
closed = 1;
nodes = (
"115 572 LINE",
"197 572 LINE",
"197 700 LINE",
"115 700 LINE"
);
},
{
closed = 1;
nodes = (
"19 429 LINE",
"101 429 LINE",
"101 557 LINE",
"19 557 LINE"
);
},
{
closed = 1;
nodes = (
"115 429 LINE",
"197 429 LINE",
"197 557 LINE",
"115 557 LINE"
);
},
{
closed = 1;
nodes = (
"19 286 LINE",
"101 286 LINE",
"101 414 LINE",
"19 414 LINE"
);
},
{
closed = 1;
nodes = (
"115 286 LINE",
"197 286 LINE",
"197 414 LINE",
"115 414 LINE"
);
},
{
closed = 1;
nodes = (
"19 143 LINE",
"101 143 LINE",
"101 271 LINE",
"19 271 LINE"
);
},
{
closed = 1;
nodes = (
"115 143 LINE",
"197 143 LINE",
"197 271 LINE",
"115 271 LINE"
);
},
{
closed = 1;
nodes = (
"19 0 LINE",
"101 0 LINE",
"101 128 LINE",
"19 128 LINE"
);
},
{
closed = 1;
nodes = (
"115 0 LINE",
"197 0 LINE",
"197 128 LINE",
"115 128 LINE"
);
},
{
closed = 1;
nodes = (
"211 572 LINE",
"293 572 LINE",
"293 700 LINE",
"211 700 LINE"
);
},
{
closed = 1;
nodes = (
"307 572 LINE",
"389 572 LINE",
"389 700 LINE",
"307 700 LINE"
);
},
{
closed = 1;
nodes = (
"211 0 LINE",
"293 0 LINE",
"293 128 LINE",
"211 128 LINE"
);
},
{
closed = 1;
nodes = (
"307 0 LINE",
"389 0 LINE",
"389 128 LINE",
"307 128 LINE"
);
},
{
closed = 1;
nodes = (
"403 572 LINE",
"485 572 LINE",
"485 700 LINE",
"403 700 LINE"
);
},
{
closed = 1;
nodes = (
"403 429 LINE",
"485 429 LINE",
"485 557 LINE",
"403 557 LINE"
);
},
{
closed = 1;
nodes = (
"499 429 LINE",
"581 429 LINE",
"581 557 LINE",
"499 557 LINE"
);
},
{
closed = 1;
nodes = (
"403 0 LINE",
"485 0 LINE",
"485 128 LINE",
"403 128 LINE"
);
},
{
closed = 1;
nodes = (
"403 143 LINE",
"485 143 LINE",
"485 271 LINE",
"403 271 LINE"
);
},
{
closed = 1;
nodes = (
"499 143 LINE",
"581 143 LINE",
"581 271 LINE",
"499 271 LINE"
);
},
{
closed = 1;
nodes = (
"403 286 LINE",
"485 286 LINE",
"485 414 LINE",
"403 414 LINE"
);
},
{
closed = 1;
nodes = (
"499 286 LINE",
"581 286 LINE",
"581 414 LINE",
"499 414 LINE"
);
}
);
width = 682;
},
{
associatedMasterId = "3BA1B4B2-6ACF-4D2C-A9DD-A548EEBF9DB3";
layerId = "DDD71DEC-8F0F-4CCE-8987-5A90CCAAD5C4";
name = "Color 1";
width = 682;
},
{
associatedMasterId = "3BA1B4B2-6ACF-4D2C-A9DD-A548EEBF9DB3";
layerId = "E8D5F77B-058C-4408-9003-CA9750659488";
name = "Color 2";
paths = (
{
closed = 1;
nodes = (
"23 147 LINE",
"97 147 LINE",
"97 267 LINE",
"23 267 LINE"
);
},
{
closed = 1;
nodes = (
"23 4 LINE",
"97 4 LINE",
"97 124 LINE",
"23 124 LINE"
);
},
{
closed = 1;
nodes = (
"119 4 LINE",
"193 4 LINE",
"193 124 LINE",
"119 124 LINE"
);
},
{
closed = 1;
nodes = (
"215 4 LINE",
"289 4 LINE",
"289 124 LINE",
"215 124 LINE"
);
}
);
width = 682;
},
{
associatedMasterId = "3BA1B4B2-6ACF-4D2C-A9DD-A548EEBF9DB3";
layerId = "94A5602F-B80A-451C-9DF4-07F71817B2D0";
name = "Color 3";
paths = (
{
closed = 1;
nodes = (
"311 4 LINE",
"385 4 LINE",
"385 124 LINE",
"311 124 LINE"
);
},
{
closed = 1;
nodes = (
"407 4 LINE",
"481 4 LINE",
"481 124 LINE",
"407 124 LINE"
);
},
{
closed = 1;
nodes = (
"407 147 LINE",
"481 147 LINE",
"481 267 LINE",
"407 267 LINE"
);
},
{
closed = 1;
nodes = (
"503 147 LINE",
"577 147 LINE",
"577 267 LINE",
"503 267 LINE"
);
}
);
width = 682;
},
{
associatedMasterId = "3BA1B4B2-6ACF-4D2C-A9DD-A548EEBF9DB3";
layerId = "05C9B1B6-9709-4F27-9F5F-ACA7A115C99C";
name = "Color 4";
paths = (
{
closed = 1;
nodes = (
"23 290 LINE",
"97 290 LINE",
"97 410 LINE",
"23 410 LINE"
);
},
{
closed = 1;
nodes = (
"119 290 LINE",
"193 290 LINE",
"193 410 LINE",
"119 410 LINE"
);
},
{
closed = 1;
nodes = (
"119 433 LINE",
"193 433 LINE",
"193 553 LINE",
"119 553 LINE"
);
},
{
closed = 1;
nodes = (
"119 147 LINE",
"193 147 LINE",
"193 267 LINE",
"119 267 LINE"
);
}
);
width = 682;
},
{
associatedMasterId = "3BA1B4B2-6ACF-4D2C-A9DD-A548EEBF9DB3";
layerId = "FD8035C8-0FED-4B88-B311-9039714DD953";
name = "Color 5";
paths = (
{
closed = 1;
nodes = (
"311 576 LINE",
"385 576 LINE",
"385 696 LINE",
"311 696 LINE"
);
},
{
closed = 1;
nodes = (
"407 576 LINE",
"481 576 LINE",
"481 696 LINE",
"407 696 LINE"
);
},
{
closed = 1;
nodes = (
"407 433 LINE",
"481 433 LINE",
"481 553 LINE",
"407 553 LINE"
);
},
{
closed = 1;
nodes = (
"503 433 LINE",
"577 433 LINE",
"577 553 LINE",
"503 553 LINE"
);
}
);
width = 682;
},
{
associatedMasterId = "3BA1B4B2-6ACF-4D2C-A9DD-A548EEBF9DB3";
layerId = "B127FD43-D810-4E2F-9FDE-CCB48E5DBDD1";
name = "Color 6";
paths = (
{
closed = 1;
nodes = (
"23 433 LINE",
"97 433 LINE",
"97 553 LINE",
"23 553 LINE"
);
},
{
closed = 1;
nodes = (
"23 576 LINE",
"97 576 LINE",
"97 696 LINE",
"23 696 LINE"
);
},
{
closed = 1;
nodes = (
"119 576 LINE",
"193 576 LINE",
"193 696 LINE",
"119 696 LINE"
);
},
{
closed = 1;
nodes = (
"215 576 LINE",
"289 576 LINE",
"289 696 LINE",
"215 696 LINE"
);
}
);
width = 682;
},
{
associatedMasterId = "3BA1B4B2-6ACF-4D2C-A9DD-A548EEBF9DB3";
layerId = "C8F9756C-B5C6-4F5D-9BAF-435A98ABC832";
name = "Color 7";
paths = (
{
closed = 1;
nodes = (
"407 290 LINE",
"481 290 LINE",
"481 410 LINE",
"407 410 LINE"
);
},
{
closed = 1;
nodes = (
"503 290 LINE",
"577 290 LINE",
"577 410 LINE",
"503 410 LINE"
);
}
);
width = 682;
}
);
unicode = 0044;
},
{
glyphname = E;
lastChange = "2019-02-09 05:30:05 +0000";
layers = (
{
layerId = "3BA1B4B2-6ACF-4D2C-A9DD-A548EEBF9DB3";
paths = (
{
closed = 1;
nodes = (
"60 572 LINE",
"142 572 LINE",
"142 700 LINE",
"60 700 LINE"
);
},
{
closed = 1;
nodes = (
"156 572 LINE",
"238 572 LINE",
"238 700 LINE",
"156 700 LINE"
);
},
{
closed = 1;
nodes = (
"252 572 LINE",
"334 572 LINE",
"334 700 LINE",
"252 700 LINE"
);
},
{
closed = 1;
nodes = (
"348 572 LINE",
"430 572 LINE",
"430 700 LINE",
"348 700 LINE"
);
},
{
closed = 1;
nodes = (
"444 572 LINE",
"526 572 LINE",
"526 700 LINE",
"444 700 LINE"
);
},
{
closed = 1;
nodes = (
"540 572 LINE",
"622 572 LINE",
"622 700 LINE",
"540 700 LINE"
);
},
{
closed = 1;
nodes = (
"60 429 LINE",
"142 429 LINE",
"142 557 LINE",
"60 557 LINE"
);
},
{
closed = 1;
nodes = (
"156 429 LINE",
"238 429 LINE",
"238 557 LINE",
"156 557 LINE"
);
},
{
closed = 1;
nodes = (
"60 286 LINE",
"142 286 LINE",
"142 414 LINE",
"60 414 LINE"
);
},
{
closed = 1;
nodes = (
"156 286 LINE",
"238 286 LINE",
"238 414 LINE",
"156 414 LINE"
);
},
{
closed = 1;
nodes = (
"252 286 LINE",
"334 286 LINE",
"334 414 LINE",
"252 414 LINE"
);
},
{
closed = 1;
nodes = (
"348 286 LINE",
"430 286 LINE",
"430 414 LINE",
"348 414 LINE"
);
},
{
closed = 1;
nodes = (
"444 286 LINE",
"526 286 LINE",
"526 414 LINE",
"444 414 LINE"
);
},
{
closed = 1;
nodes = (
"60 143 LINE",
"142 143 LINE",
"142 271 LINE",
"60 271 LINE"
);
},
{
closed = 1;
nodes = (
"156 143 LINE",
"238 143 LINE",
"238 271 LINE",
"156 271 LINE"
);
},
{
closed = 1;
nodes = (
"60 0 LINE",
"142 0 LINE",
"142 128 LINE",
"60 128 LINE"
);
},
{
closed = 1;
nodes = (
"156 0 LINE",
"238 0 LINE",
"238 128 LINE",
"156 128 LINE"
);
},
{
closed = 1;
nodes = (
"252 0 LINE",
"334 0 LINE",
"334 128 LINE",
"252 128 LINE"
);
},
{
closed = 1;
nodes = (
"348 0 LINE",
"430 0 LINE",
"430 128 LINE",
"348 128 LINE"
);
},
{
closed = 1;
nodes = (
"444 0 LINE",
"526 0 LINE",
"526 128 LINE",
"444 128 LINE"
);
},
{
closed = 1;
nodes = (
"540 0 LINE",
"622 0 LINE",
"622 128 LINE",
"540 128 LINE"
);
}
);
width = 682;
},
{
associatedMasterId = "3BA1B4B2-6ACF-4D2C-A9DD-A548EEBF9DB3";
layerId = "7A1E656A-05D8-4744-B266-CC75F806EDAC";
name = "Color 0";
paths = (
{
closed = 1;
nodes = (
"19 572 LINE",
"101 572 LINE",
"101 700 LINE",
"19 700 LINE"
);
},
{
closed = 1;
nodes = (
"115 572 LINE",
"197 572 LINE",
"197 700 LINE",
"115 700 LINE"
);
},
{
closed = 1;
nodes = (
"211 572 LINE",
"293 572 LINE",
"293 700 LINE",
"211 700 LINE"
);
},
{
closed = 1;
nodes = (
"307 572 LINE",
"389 572 LINE",
"389 700 LINE",
"307 700 LINE"
);
},
{
closed = 1;
nodes = (
"403 572 LINE",
"485 572 LINE",
"485 700 LINE",
"403 700 LINE"
);
},
{
closed = 1;
nodes = (
"499 572 LINE",
"581 572 LINE",
"581 700 LINE",
"499 700 LINE"
);
},
{
closed = 1;
nodes = (
"19 429 LINE",
"101 429 LINE",
"101 557 LINE",
"19 557 LINE"
);
},
{
closed = 1;
nodes = (
"115 429 LINE",
"197 429 LINE",
"197 557 LINE",
"115 557 LINE"
);
},
{
closed = 1;
nodes = (
"19 286 LINE",
"101 286 LINE",
"101 414 LINE",
"19 414 LINE"
);
},
{
closed = 1;
nodes = (
"115 286 LINE",
"197 286 LINE",
"197 414 LINE",
"115 414 LINE"
);
},
{
closed = 1;
nodes = (
"211 286 LINE",
"293 286 LINE",
"293 414 LINE",
"211 414 LINE"
);
},
{
closed = 1;
nodes = (
"307 286 LINE",
"389 286 LINE",
"389 414 LINE",
"307 414 LINE"
);
},
{
closed = 1;
nodes = (
"403 286 LINE",
"485 286 LINE",
"485 414 LINE",
"403 414 LINE"
);
},
{
closed = 1;
nodes = (
"19 143 LINE",
"101 143 LINE",
"101 271 LINE",
"19 271 LINE"
);
},
{
closed = 1;
nodes = (
"115 143 LINE",
"197 143 LINE",
"197 271 LINE",
"115 271 LINE"
);
},
{
closed = 1;
nodes = (
"19 0 LINE",
"101 0 LINE",
"101 128 LINE",
"19 128 LINE"
);
},
{
closed = 1;
nodes = (
"115 0 LINE",
"197 0 LINE",
"197 128 LINE",
"115 128 LINE"
);
},
{
closed = 1;
nodes = (
"211 0 LINE",
"293 0 LINE",
"293 128 LINE",
"211 128 LINE"
);
},
{
closed = 1;
nodes = (
"307 0 LINE",
"389 0 LINE",
"389 128 LINE",
"307 128 LINE"
);
},
{
closed = 1;
nodes = (
"403 0 LINE",
"485 0 LINE",
"485 128 LINE",
"403 128 LINE"
);
},
{
closed = 1;
nodes = (
"499 0 LINE",
"581 0 LINE",
"581 128 LINE",
"499 128 LINE"
);
}
);
width = 682;
},
{
associatedMasterId = "3BA1B4B2-6ACF-4D2C-A9DD-A548EEBF9DB3";
layerId = "A009BC62-8C83-440A-BFAA-A1E778C613B5";
name = "Color 1";
paths = (
{
closed = 1;
nodes = (
"215 576 LINE",
"289 576 LINE",
"289 696 LINE",
"215 696 LINE"
);
},
{
closed = 1;
nodes = (
"311 576 LINE",
"385 576 LINE",
"385 696 LINE",
"311 696 LINE"
);
},
{
closed = 1;
nodes = (
"407 576 LINE",
"481 576 LINE",
"481 696 LINE",
"407 696 LINE"
);
},
{
closed = 1;
nodes = (
"503 576 LINE",
"577 576 LINE",
"577 696 LINE",
"503 696 LINE"
);
},
{
closed = 1;
nodes = (
"215 4 LINE",
"289 4 LINE",
"289 124 LINE",
"215 124 LINE"
);
},
{
closed = 1;
nodes = (
"311 4 LINE",
"385 4 LINE",
"385 124 LINE",
"311 124 LINE"
);
},
{
closed = 1;
nodes = (
"407 4 LINE",
"481 4 LINE",
"481 124 LINE",
"407 124 LINE"
);
},
{
closed = 1;
nodes = (
"503 4 LINE",
"577 4 LINE",
"577 124 LINE",
"503 124 LINE"
);
}
);
width = 682;
},
{
associatedMasterId = "3BA1B4B2-6ACF-4D2C-A9DD-A548EEBF9DB3";
layerId = "EDBC9DBB-5D32-455A-A95B-DB0A3C2D412B";
name = "Color 2";
paths = (
{
closed = 1;
nodes = (
"119 290 LINE",
"193 290 LINE",
"193 410 LINE",
"119 410 LINE"
);
},
{
closed = 1;
nodes = (
"119 147 LINE",
"193 147 LINE",
"193 267 LINE",
"119 267 LINE"
);
},
{
closed = 1;
nodes = (
"215 290 LINE",
"289 290 LINE",
"289 410 LINE",
"215 410 LINE"
);
},
{
closed = 1;
nodes = (
"311 290 LINE",
"385 290 LINE",
"385 410 LINE",
"311 410 LINE"
);
}
);
width = 682;
},
{
associatedMasterId = "3BA1B4B2-6ACF-4D2C-A9DD-A548EEBF9DB3";
layerId = "49F5C979-0672-4B18-8958-1962C708738F";
name = "Color 3";
paths = (
{
closed = 1;
nodes = (
"407 290 LINE",
"481 290 LINE",
"481 410 LINE",
"407 410 LINE"
);
}
);
width = 682;
},
{
associatedMasterId = "3BA1B4B2-6ACF-4D2C-A9DD-A548EEBF9DB3";
layerId = "8215BA5D-4C6D-453E-918F-BDE00B46C2E7";
name = "Color 4";
width = 682;
},
{
associatedMasterId = "3BA1B4B2-6ACF-4D2C-A9DD-A548EEBF9DB3";
layerId = "7DED2AFF-B97F-4FDA-90C8-56267B4CD306";
name = "Color 5";
width = 682;
},
{
associatedMasterId = "3BA1B4B2-6ACF-4D2C-A9DD-A548EEBF9DB3";
layerId = "36984673-D4C3-45D3-B01B-5593E0BC8319";
name = "Color 6";
paths = (
{
closed = 1;
nodes = (
"23 290 LINE",
"97 290 LINE",
"97 410 LINE",
"23 410 LINE"
);
},
{
closed = 1;
nodes = (
"23 147 LINE",
"97 147 LINE",
"97 267 LINE",
"23 267 LINE"
);
},
{
closed = 1;
nodes = (
"23 4 LINE",
"97 4 LINE",
"97 124 LINE",
"23 124 LINE"
);
},
{
closed = 1;
nodes = (
"119 4 LINE",
"193 4 LINE",
"193 124 LINE",
"119 124 LINE"
);
}
);
width = 682;
},
{
associatedMasterId = "3BA1B4B2-6ACF-4D2C-A9DD-A548EEBF9DB3";
layerId = "2CFAE016-4785-444D-9F35-89858A605ECC";
name = "Color 7";
paths = (
{
closed = 1;
nodes = (
"23 576 LINE",
"97 576 LINE",
"97 696 LINE",
"23 696 LINE"
);
},
{
closed = 1;
nodes = (
"119 576 LINE",
"193 576 LINE",
"193 696 LINE",
"119 696 LINE"
);
},
{
closed = 1;
nodes = (
"23 433 LINE",
"97 433 LINE",
"97 553 LINE",
"23 553 LINE"
);
},
{
closed = 1;
nodes = (
"119 433 LINE",
"193 433 LINE",
"193 553 LINE",
"119 553 LINE"
);
}
);
width = 682;
}
);
unicode = 0045;
},
{
glyphname = F;
lastChange = "2019-02-09 05:30:05 +0000";
layers = (
{
layerId = "3BA1B4B2-6ACF-4D2C-A9DD-A548EEBF9DB3";
paths = (
{
closed = 1;
nodes = (
"60 572 LINE",
"142 572 LINE",
"142 700 LINE",
"60 700 LINE"
);
},
{
closed = 1;
nodes = (
"156 572 LINE",
"238 572 LINE",
"238 700 LINE",
"156 700 LINE"
);
},
{
closed = 1;
nodes = (
"252 572 LINE",
"334 572 LINE",
"334 700 LINE",
"252 700 LINE"
);
},
{
closed = 1;
nodes = (
"348 572 LINE",
"430 572 LINE",
"430 700 LINE",
"348 700 LINE"
);
},
{
closed = 1;
nodes = (
"444 572 LINE",
"526 572 LINE",
"526 700 LINE",
"444 700 LINE"
);
},
{
closed = 1;
nodes = (
"540 572 LINE",
"622 572 LINE",
"622 700 LINE",
"540 700 LINE"
);
},
{
closed = 1;
nodes = (
"60 429 LINE",
"142 429 LINE",
"142 557 LINE",
"60 557 LINE"
);
},
{
closed = 1;
nodes = (
"156 429 LINE",
"238 429 LINE",
"238 557 LINE",
"156 557 LINE"
);
},
{
closed = 1;
nodes = (
"60 286 LINE",
"142 286 LINE",
"142 414 LINE",
"60 414 LINE"
);
},
{
closed = 1;
nodes = (
"156 286 LINE",
"238 286 LINE",
"238 414 LINE",
"156 414 LINE"
);
},
{
closed = 1;
nodes = (
"60 143 LINE",
"142 143 LINE",
"142 271 LINE",
"60 271 LINE"
);
},
{
closed = 1;
nodes = (
"156 143 LINE",
"238 143 LINE",
"238 271 LINE",
"156 271 LINE"
);
},
{
closed = 1;
nodes = (
"60 0 LINE",
"142 0 LINE",
"142 128 LINE",
"60 128 LINE"
);
},
{
closed = 1;
nodes = (
"156 0 LINE",
"238 0 LINE",
"238 128 LINE",
"156 128 LINE"
);
},
{
closed = 1;
nodes = (
"252 286 LINE",
"334 286 LINE",
"334 414 LINE",
"252 414 LINE"
);
},
{
closed = 1;
nodes = (
"348 286 LINE",
"430 286 LINE",
"430 414 LINE",
"348 414 LINE"
);
},
{
closed = 1;
nodes = (
"444 286 LINE",
"526 286 LINE",
"526 414 LINE",
"444 414 LINE"
);
}
);
width = 682;
},
{
associatedMasterId = "3BA1B4B2-6ACF-4D2C-A9DD-A548EEBF9DB3";
layerId = "2A95C047-971D-4891-AE8F-97C60CB64D4F";
name = "Color 0";
paths = (
{
closed = 1;
nodes = (
"19 572 LINE",
"101 572 LINE",
"101 700 LINE",
"19 700 LINE"
);
},
{
closed = 1;
nodes = (
"115 572 LINE",
"197 572 LINE",
"197 700 LINE",
"115 700 LINE"
);
},
{
closed = 1;
nodes = (
"211 572 LINE",
"293 572 LINE",
"293 700 LINE",
"211 700 LINE"
);
},
{
closed = 1;
nodes = (
"307 572 LINE",
"389 572 LINE",
"389 700 LINE",
"307 700 LINE"
);
},
{
closed = 1;
nodes = (
"403 572 LINE",
"485 572 LINE",
"485 700 LINE",
"403 700 LINE"
);
},
{
closed = 1;
nodes = (
"499 572 LINE",
"581 572 LINE",
"581 700 LINE",
"499 700 LINE"
);
},
{
closed = 1;
nodes = (
"19 429 LINE",
"101 429 LINE",
"101 557 LINE",
"19 557 LINE"
);
},
{
closed = 1;
nodes = (
"115 429 LINE",
"197 429 LINE",
"197 557 LINE",
"115 557 LINE"
);
},
{
closed = 1;
nodes = (
"19 286 LINE",
"101 286 LINE",
"101 414 LINE",
"19 414 LINE"
);
},
{
closed = 1;
nodes = (
"115 286 LINE",
"197 286 LINE",
"197 414 LINE",
"115 414 LINE"
);
},
{
closed = 1;
nodes = (
"19 143 LINE",
"101 143 LINE",
"101 271 LINE",
"19 271 LINE"
);
},
{
closed = 1;
nodes = (
"115 143 LINE",
"197 143 LINE",
"197 271 LINE",
"115 271 LINE"
);
},
{
closed = 1;
nodes = (
"19 0 LINE",
"101 0 LINE",
"101 128 LINE",
"19 128 LINE"
);
},
{
closed = 1;
nodes = (
"115 0 LINE",
"197 0 LINE",
"197 128 LINE",
"115 128 LINE"
);
},
{
closed = 1;
nodes = (
"211 286 LINE",
"293 286 LINE",
"293 414 LINE",
"211 414 LINE"
);
},
{
closed = 1;
nodes = (
"307 286 LINE",
"389 286 LINE",
"389 414 LINE",
"307 414 LINE"
);
},
{
closed = 1;
nodes = (
"403 286 LINE",
"485 286 LINE",
"485 414 LINE",
"403 414 LINE"
);
}
);
width = 682;
},
{
associatedMasterId = "3BA1B4B2-6ACF-4D2C-A9DD-A548EEBF9DB3";
layerId = "D4ECCFE0-9D06-4E7D-B217-A8DDC50787DF";
name = "Color 1";
paths = (
{
closed = 1;
nodes = (
"119 290 LINE",
"193 290 LINE",
"193 410 LINE",
"119 410 LINE"
);
},
{
closed = 1;
nodes = (
"215 290 LINE",
"289 290 LINE",
"289 410 LINE",
"215 410 LINE"
);
},
{
closed = 1;
nodes = (
"311 290 LINE",
"385 290 LINE",
"385 410 LINE",
"311 410 LINE"
);
},
{
closed = 1;
nodes = (
"407 290 LINE",
"481 290 LINE",
"481 410 LINE",
"407 410 LINE"
);
},
{
closed = 1;
nodes = (
"119 576 LINE",
"193 576 LINE",
"193 696 LINE",
"119 696 LINE"
);
},
{
closed = 1;
nodes = (
"215 576 LINE",
"289 576 LINE",
"289 696 LINE",
"215 696 LINE"
);
},
{
closed = 1;
nodes = (
"311 576 LINE",
"385 576 LINE",
"385 696 LINE",
"311 696 LINE"
);
},
{
closed = 1;
nodes = (
"407 576 LINE",
"481 576 LINE",
"481 696 LINE",
"407 696 LINE"
);
}
);
width = 682;
},
{
associatedMasterId = "3BA1B4B2-6ACF-4D2C-A9DD-A548EEBF9DB3";
layerId = "88C34A6D-EBAC-4BA1-BB0B-91D94C3B2BFF";
name = "Color 2";
width = 682;
},
{
associatedMasterId = "3BA1B4B2-6ACF-4D2C-A9DD-A548EEBF9DB3";
layerId = "F3E6C878-4E8D-4735-941F-B437055F2CFB";
name = "Color 3";
width = 682;
},
{
associatedMasterId = "3BA1B4B2-6ACF-4D2C-A9DD-A548EEBF9DB3";
layerId = "26DFAE54-0122-491F-A68E-C3FB6C4F299F";
name = "Color 4";
paths = (
{
closed = 1;
nodes = (
"23 576 LINE",
"97 576 LINE",
"97 696 LINE",
"23 696 LINE"
);
},
{
closed = 1;
nodes = (
"23 433 LINE",
"97 433 LINE",
"97 553 LINE",
"23 553 LINE"
);
},
{
closed = 1;
nodes = (
"23 290 LINE",
"97 290 LINE",
"97 410 LINE",
"23 410 LINE"
);
},
{
closed = 1;
nodes = (
"119 433 LINE",
"193 433 LINE",
"193 553 LINE",
"119 553 LINE"
);
}
);
width = 682;
},
{
associatedMasterId = "3BA1B4B2-6ACF-4D2C-A9DD-A548EEBF9DB3";
layerId = "DEDF3966-A1C0-4253-8671-E0435BE07437";
name = "Color 5";
paths = (
{
closed = 1;
nodes = (
"503 576 LINE",
"577 576 LINE",
"577 696 LINE",
"503 696 LINE"
);
}
);
width = 682;
},
{
associatedMasterId = "3BA1B4B2-6ACF-4D2C-A9DD-A548EEBF9DB3";
layerId = "0D87D383-E4B9-4111-A4FE-AD70762BBFA2";
name = "Color 6";
width = 682;
},
{
associatedMasterId = "3BA1B4B2-6ACF-4D2C-A9DD-A548EEBF9DB3";
layerId = "39EBAAEC-A94B-4E2B-95D0-3D593A27B165";
name = "Color 7";
paths = (
{
closed = 1;
nodes = (
"23 147 LINE",
"97 147 LINE",
"97 267 LINE",
"23 267 LINE"
);
},
{
closed = 1;
nodes = (
"119 147 LINE",
"193 147 LINE",
"193 267 LINE",
"119 267 LINE"
);
},
{
closed = 1;
nodes = (
"23 4 LINE",
"97 4 LINE",
"97 124 LINE",
"23 124 LINE"
);
},
{
closed = 1;
nodes = (
"119 4 LINE",
"193 4 LINE",
"193 124 LINE",
"119 124 LINE"
);
}
);
width = 682;
}
);
unicode = 0046;
},
{
glyphname = G;
lastChange = "2019-02-09 05:30:05 +0000";
layers = (
{
layerId = "3BA1B4B2-6ACF-4D2C-A9DD-A548EEBF9DB3";
paths = (
{
closed = 1;
nodes = (
"540 572 LINE",
"622 572 LINE",
"622 700 LINE",
"540 700 LINE"
);
},
{
closed = 1;
nodes = (
"444 572 LINE",
"526 572 LINE",
"526 700 LINE",
"444 700 LINE"
);
},
{
closed = 1;
nodes = (
"348 572 LINE",
"430 572 LINE",
"430 700 LINE",
"348 700 LINE"
);
},
{
closed = 1;
nodes = (
"252 572 LINE",
"334 572 LINE",
"334 700 LINE",
"252 700 LINE"
);
},
{
closed = 1;
nodes = (
"156 572 LINE",
"238 572 LINE",
"238 700 LINE",
"156 700 LINE"
);
},
{
closed = 1;
nodes = (
"60 429 LINE",
"142 429 LINE",
"142 557 LINE",
"60 557 LINE"
);
},
{
closed = 1;
nodes = (
"156 429 LINE",
"238 429 LINE",
"238 557 LINE",
"156 557 LINE"
);
},
{
closed = 1;
nodes = (
"60 286 LINE",
"142 286 LINE",
"142 414 LINE",
"60 414 LINE"
);
},
{
closed = 1;
nodes = (
"156 286 LINE",
"238 286 LINE",
"238 414 LINE",
"156 414 LINE"
);
},
{
closed = 1;
nodes = (
"60 143 LINE",
"142 143 LINE",
"142 271 LINE",
"60 271 LINE"
);
},
{
closed = 1;
nodes = (
"156 143 LINE",
"238 143 LINE",
"238 271 LINE",
"156 271 LINE"
);
},
{
closed = 1;
nodes = (
"156 0 LINE",
"238 0 LINE",
"238 128 LINE",
"156 128 LINE"
);
},
{
closed = 1;
nodes = (
"252 0 LINE",
"334 0 LINE",
"334 128 LINE",
"252 128 LINE"
);
},
{
closed = 1;
nodes = (
"348 0 LINE",
"430 0 LINE",
"430 128 LINE",
"348 128 LINE"
);
},
{
closed = 1;
nodes = (
"444 0 LINE",
"526 0 LINE",
"526 128 LINE",
"444 128 LINE"
);
},
{
closed = 1;
nodes = (
"540 0 LINE",
"622 0 LINE",
"622 128 LINE",
"540 128 LINE"
);
},
{
closed = 1;
nodes = (
"540 143 LINE",
"622 143 LINE",
"622 271 LINE",
"540 271 LINE"
);
},
{
closed = 1;
nodes = (
"540 286 LINE",
"622 286 LINE",
"622 414 LINE",
"540 414 LINE"
);
},
{
closed = 1;
nodes = (
"444 286 LINE",
"526 286 LINE",
"526 414 LINE",
"444 414 LINE"
);
},
{
closed = 1;
nodes = (
"348 286 LINE",
"430 286 LINE",
"430 414 LINE",
"348 414 LINE"
);
}
);
width = 682;
},
{
associatedMasterId = "3BA1B4B2-6ACF-4D2C-A9DD-A548EEBF9DB3";
layerId = "874F38AE-D4DC-4925-85D2-35CAA5B8EE6A";
name = "Color 0";
paths = (
{
closed = 1;
nodes = (
"499 572 LINE",
"581 572 LINE",
"581 700 LINE",
"499 700 LINE"
);
},
{
closed = 1;
nodes = (
"403 572 LINE",
"485 572 LINE",
"485 700 LINE",
"403 700 LINE"
);
},
{
closed = 1;
nodes = (
"307 572 LINE",
"389 572 LINE",
"389 700 LINE",
"307 700 LINE"
);
},
{
closed = 1;
nodes = (
"211 572 LINE",
"293 572 LINE",
"293 700 LINE",
"211 700 LINE"
);
},
{
closed = 1;
nodes = (
"115 572 LINE",
"197 572 LINE",
"197 700 LINE",
"115 700 LINE"
);
},
{
closed = 1;
nodes = (
"19 429 LINE",
"101 429 LINE",
"101 557 LINE",
"19 557 LINE"
);
},
{
closed = 1;
nodes = (
"115 429 LINE",
"197 429 LINE",
"197 557 LINE",
"115 557 LINE"
);
},
{
closed = 1;
nodes = (
"19 286 LINE",
"101 286 LINE",
"101 414 LINE",
"19 414 LINE"
);
},
{
closed = 1;
nodes = (
"115 286 LINE",
"197 286 LINE",
"197 414 LINE",
"115 414 LINE"
);
},
{
closed = 1;
nodes = (
"19 143 LINE",
"101 143 LINE",
"101 271 LINE",
"19 271 LINE"
);
},
{
closed = 1;
nodes = (
"115 143 LINE",
"197 143 LINE",
"197 271 LINE",
"115 271 LINE"
);
},
{
closed = 1;
nodes = (
"115 0 LINE",
"197 0 LINE",
"197 128 LINE",
"115 128 LINE"
);
},
{
closed = 1;
nodes = (
"211 0 LINE",
"293 0 LINE",
"293 128 LINE",
"211 128 LINE"
);
},
{
closed = 1;
nodes = (
"307 0 LINE",
"389 0 LINE",
"389 128 LINE",
"307 128 LINE"
);
},
{
closed = 1;
nodes = (
"403 0 LINE",
"485 0 LINE",
"485 128 LINE",
"403 128 LINE"
);
},
{
closed = 1;
nodes = (
"499 0 LINE",
"581 0 LINE",
"581 128 LINE",
"499 128 LINE"
);
},
{
closed = 1;
nodes = (
"499 143 LINE",
"581 143 LINE",
"581 271 LINE",
"499 271 LINE"
);
},
{
closed = 1;
nodes = (
"499 286 LINE",
"581 286 LINE",
"581 414 LINE",
"499 414 LINE"
);
},
{
closed = 1;
nodes = (
"403 286 LINE",
"485 286 LINE",
"485 414 LINE",
"403 414 LINE"
);
},
{
closed = 1;
nodes = (
"307 286 LINE",
"389 286 LINE",
"389 414 LINE",
"307 414 LINE"
);
}
);
width = 682;
},
{
associatedMasterId = "3BA1B4B2-6ACF-4D2C-A9DD-A548EEBF9DB3";
layerId = "9972FF93-5877-4759-8078-197050DA14E6";
name = "Color 1";
paths = (
{
closed = 1;
nodes = (
"503 576 LINE",
"577 576 LINE",
"577 696 LINE",
"503 696 LINE"
);
},
{
closed = 1;
nodes = (
"407 576 LINE",
"481 576 LINE",
"481 696 LINE",
"407 696 LINE"
);
},
{
closed = 1;
nodes = (
"311 576 LINE",
"385 576 LINE",
"385 696 LINE",
"311 696 LINE"
);
},
{
closed = 1;
nodes = (
"215 576 LINE",
"289 576 LINE",
"289 696 LINE",
"215 696 LINE"
);
},
{
closed = 1;
nodes = (
"215 4 LINE",
"289 4 LINE",
"289 124 LINE",
"215 124 LINE"
);
},
{
closed = 1;
nodes = (
"311 4 LINE",
"385 4 LINE",
"385 124 LINE",
"311 124 LINE"
);
},
{
closed = 1;
nodes = (
"407 4 LINE",
"481 4 LINE",
"481 124 LINE",
"407 124 LINE"
);
},
{
closed = 1;
nodes = (
"503 4 LINE",
"577 4 LINE",
"577 124 LINE",
"503 124 LINE"
);
}
);
width = 682;
},
{
associatedMasterId = "3BA1B4B2-6ACF-4D2C-A9DD-A548EEBF9DB3";
layerId = "DF2E4079-1FF7-4B61-9892-6407D619C9A6";
name = "Color 2";
paths = (
{
closed = 1;
nodes = (
"311 290 LINE",
"385 290 LINE",
"385 410 LINE",
"311 410 LINE"
);
},
{
closed = 1;
nodes = (
"407 290 LINE",
"481 290 LINE",
"481 410 LINE",
"407 410 LINE"
);
},
{
closed = 1;
nodes = (
"503 290 LINE",
"577 290 LINE",
"577 410 LINE",
"503 410 LINE"
);
},
{
closed = 1;
nodes = (
"503 147 LINE",
"577 147 LINE",
"577 267 LINE",
"503 267 LINE"
);
}
);
width = 682;
},
{
associatedMasterId = "3BA1B4B2-6ACF-4D2C-A9DD-A548EEBF9DB3";
layerId = "1965C6C3-F998-4767-B117-4596D8D222FD";
name = "Color 3";
paths = (
{
closed = 1;
nodes = (
"119 4 LINE",
"193 4 LINE",
"193 124 LINE",
"119 124 LINE"
);
},
{
closed = 1;
nodes = (
"119 147 LINE",
"193 147 LINE",
"193 267 LINE",
"119 267 LINE"
);
},
{
closed = 1;
nodes = (
"23 147 LINE",
"97 147 LINE",
"97 267 LINE",
"23 267 LINE"
);
},
{
closed = 1;
nodes = (
"23 290 LINE",
"97 290 LINE",
"97 410 LINE",
"23 410 LINE"
);
}
);
width = 682;
},
{
associatedMasterId = "3BA1B4B2-6ACF-4D2C-A9DD-A548EEBF9DB3";
layerId = "4C3BD4F4-549A-4B65-AB15-0B43C0BE7175";
name = "Color 4";
paths = (
{
closed = 1;
nodes = (
"119 290 LINE",
"193 290 LINE",
"193 410 LINE",
"119 410 LINE"
);
},
{
closed = 1;
nodes = (
"23 433 LINE",
"97 433 LINE",
"97 553 LINE",
"23 553 LINE"
);
},
{
closed = 1;
nodes = (
"119 433 LINE",
"193 433 LINE",
"193 553 LINE",
"119 553 LINE"
);
},
{
closed = 1;
nodes = (
"119 576 LINE",
"193 576 LINE",
"193 696 LINE",
"119 696 LINE"
);
}
);
width = 682;
},
{
associatedMasterId = "3BA1B4B2-6ACF-4D2C-A9DD-A548EEBF9DB3";
layerId = "841C4E1B-8A0B-4F22-BFEE-6B15459B5E62";
name = "Color 5";
width = 682;
},
{
associatedMasterId = "3BA1B4B2-6ACF-4D2C-A9DD-A548EEBF9DB3";
layerId = "D73DC01B-7CB3-4B90-BDA5-207A652931E4";
name = "Color 6";
width = 682;
},
{
associatedMasterId = "3BA1B4B2-6ACF-4D2C-A9DD-A548EEBF9DB3";
layerId = "56624D9F-727E-4DEC-BBE6-0700F80B0DCC";
name = "Color 7";
width = 682;
}
);
unicode = 0047;
},
{
glyphname = H;
lastChange = "2019-02-09 05:30:05 +0000";
layers = (
{
layerId = "3BA1B4B2-6ACF-4D2C-A9DD-A548EEBF9DB3";
paths = (
{
closed = 1;
nodes = (
"60 572 LINE",
"142 572 LINE",
"142 700 LINE",
"60 700 LINE"
);
},
{
closed = 1;
nodes = (
"156 572 LINE",
"238 572 LINE",
"238 700 LINE",
"156 700 LINE"
);
},
{
closed = 1;
nodes = (
"60 429 LINE",
"142 429 LINE",
"142 557 LINE",
"60 557 LINE"
);
},
{
closed = 1;
nodes = (
"156 429 LINE",
"238 429 LINE",
"238 557 LINE",
"156 557 LINE"
);
},
{
closed = 1;
nodes = (
"60 286 LINE",
"142 286 LINE",
"142 414 LINE",
"60 414 LINE"
);
},
{
closed = 1;
nodes = (
"156 286 LINE",
"238 286 LINE",
"238 414 LINE",
"156 414 LINE"
);
},
{
closed = 1;
nodes = (
"60 143 LINE",
"142 143 LINE",
"142 271 LINE",
"60 271 LINE"
);
},
{
closed = 1;
nodes = (
"156 143 LINE",
"238 143 LINE",
"238 271 LINE",
"156 271 LINE"
);
},
{
closed = 1;
nodes = (
"60 0 LINE",
"142 0 LINE",
"142 128 LINE",
"60 128 LINE"
);
},
{
closed = 1;
nodes = (
"156 0 LINE",
"238 0 LINE",
"238 128 LINE",
"156 128 LINE"
);
},
{
closed = 1;
nodes = (
"252 286 LINE",
"334 286 LINE",
"334 414 LINE",
"252 414 LINE"
);
},
{
closed = 1;
nodes = (
"348 286 LINE",
"430 286 LINE",
"430 414 LINE",
"348 414 LINE"
);
},
{
closed = 1;
nodes = (
"444 286 LINE",
"526 286 LINE",
"526 414 LINE",
"444 414 LINE"
);
},
{
closed = 1;
nodes = (
"540 286 LINE",
"622 286 LINE",
"622 414 LINE",
"540 414 LINE"
);
},
{
closed = 1;
nodes = (
"444 429 LINE",
"526 429 LINE",
"526 557 LINE",
"444 557 LINE"
);
},
{
closed = 1;
nodes = (
"540 429 LINE",
"622 429 LINE",
"622 557 LINE",
"540 557 LINE"
);
},
{
closed = 1;
nodes = (
"444 572 LINE",
"526 572 LINE",
"526 700 LINE",
"444 700 LINE"
);
},
{
closed = 1;
nodes = (
"540 572 LINE",
"622 572 LINE",
"622 700 LINE",
"540 700 LINE"
);
},
{
closed = 1;
nodes = (
"444 143 LINE",
"526 143 LINE",
"526 271 LINE",
"444 271 LINE"
);
},
{
closed = 1;
nodes = (
"540 143 LINE",
"622 143 LINE",
"622 271 LINE",
"540 271 LINE"
);
},
{
closed = 1;
nodes = (
"444 0 LINE",
"526 0 LINE",
"526 128 LINE",
"444 128 LINE"
);
},
{
closed = 1;
nodes = (
"540 0 LINE",
"622 0 LINE",
"622 128 LINE",
"540 128 LINE"
);
}
);
width = 682;
},
{
associatedMasterId = "3BA1B4B2-6ACF-4D2C-A9DD-A548EEBF9DB3";
layerId = "5C3B6C5D-F660-44CE-A98C-BC1232787045";
name = "Color 0";
paths = (
{
closed = 1;
nodes = (
"19 572 LINE",
"101 572 LINE",
"101 700 LINE",
"19 700 LINE"
);
},
{
closed = 1;
nodes = (
"115 572 LINE",
"197 572 LINE",
"197 700 LINE",
"115 700 LINE"
);
},
{
closed = 1;
nodes = (
"19 429 LINE",
"101 429 LINE",
"101 557 LINE",
"19 557 LINE"
);
},
{
closed = 1;
nodes = (
"115 429 LINE",
"197 429 LINE",
"197 557 LINE",
"115 557 LINE"
);
},
{
closed = 1;
nodes = (
"19 286 LINE",
"101 286 LINE",
"101 414 LINE",
"19 414 LINE"
);
},
{
closed = 1;
nodes = (
"115 286 LINE",
"197 286 LINE",
"197 414 LINE",
"115 414 LINE"
);
},
{
closed = 1;
nodes = (
"19 143 LINE",
"101 143 LINE",
"101 271 LINE",
"19 271 LINE"
);
},
{
closed = 1;
nodes = (
"115 143 LINE",
"197 143 LINE",
"197 271 LINE",
"115 271 LINE"
);
},
{
closed = 1;
nodes = (
"19 0 LINE",
"101 0 LINE",
"101 128 LINE",
"19 128 LINE"
);
},
{
closed = 1;
nodes = (
"115 0 LINE",
"197 0 LINE",
"197 128 LINE",
"115 128 LINE"
);
},
{
closed = 1;
nodes = (
"211 286 LINE",
"293 286 LINE",
"293 414 LINE",
"211 414 LINE"
);
},
{
closed = 1;
nodes = (
"307 286 LINE",
"389 286 LINE",
"389 414 LINE",
"307 414 LINE"
);
},
{
closed = 1;
nodes = (
"403 286 LINE",
"485 286 LINE",
"485 414 LINE",
"403 414 LINE"
);
},
{
closed = 1;
nodes = (
"499 286 LINE",
"581 286 LINE",
"581 414 LINE",
"499 414 LINE"
);
},
{
closed = 1;
nodes = (
"403 429 LINE",
"485 429 LINE",
"485 557 LINE",
"403 557 LINE"
);
},
{
closed = 1;
nodes = (
"499 429 LINE",
"581 429 LINE",
"581 557 LINE",
"499 557 LINE"
);
},
{
closed = 1;
nodes = (
"403 572 LINE",
"485 572 LINE",
"485 700 LINE",
"403 700 LINE"
);
},
{
closed = 1;
nodes = (
"499 572 LINE",
"581 572 LINE",
"581 700 LINE",
"499 700 LINE"
);
},
{
closed = 1;
nodes = (
"403 143 LINE",
"485 143 LINE",
"485 271 LINE",
"403 271 LINE"
);
},
{
closed = 1;
nodes = (
"499 143 LINE",
"581 143 LINE",
"581 271 LINE",
"499 271 LINE"
);
},
{
closed = 1;
nodes = (
"403 0 LINE",
"485 0 LINE",
"485 128 LINE",
"403 128 LINE"
);
},
{
closed = 1;
nodes = (
"499 0 LINE",
"581 0 LINE",
"581 128 LINE",
"499 128 LINE"
);
}
);
width = 682;
},
{
associatedMasterId = "3BA1B4B2-6ACF-4D2C-A9DD-A548EEBF9DB3";
layerId = "520754E9-CE6C-4FD3-9C90-C81612C9D4A4";
name = "Color 1";
paths = (
{
closed = 1;
nodes = (
"119 290 LINE",
"193 290 LINE",
"193 410 LINE",
"119 410 LINE"
);
},
{
closed = 1;
nodes = (
"215 290 LINE",
"289 290 LINE",
"289 410 LINE",
"215 410 LINE"
);
},
{
closed = 1;
nodes = (
"311 290 LINE",
"385 290 LINE",
"385 410 LINE",
"311 410 LINE"
);
},
{
closed = 1;
nodes = (
"407 290 LINE",
"481 290 LINE",
"481 410 LINE",
"407 410 LINE"
);
}
);
width = 682;
},
{
associatedMasterId = "3BA1B4B2-6ACF-4D2C-A9DD-A548EEBF9DB3";
layerId = "43951022-8FFD-4EC2-A6BF-2804144FFCDB";
name = "Color 2";
width = 682;
},
{
associatedMasterId = "3BA1B4B2-6ACF-4D2C-A9DD-A548EEBF9DB3";
layerId = "86EB6CF9-8C89-4383-8C93-5CB2C17E9B55";
name = "Color 3";
paths = (
{
closed = 1;
nodes = (
"503 4 LINE",
"577 4 LINE",
"577 124 LINE",
"503 124 LINE"
);
},
{
closed = 1;
nodes = (
"119 576 LINE",
"193 576 LINE",
"193 696 LINE",
"119 696 LINE"
);
}
);
width = 682;
},
{
associatedMasterId = "3BA1B4B2-6ACF-4D2C-A9DD-A548EEBF9DB3";
layerId = "CFB20FB6-12E7-41FB-B1EF-A7FD86EC44BC";
name = "Color 4";
paths = (
{
closed = 1;
nodes = (
"23 576 LINE",
"97 576 LINE",
"97 696 LINE",
"23 696 LINE"
);
},
{
closed = 1;
nodes = (
"23 433 LINE",
"97 433 LINE",
"97 553 LINE",
"23 553 LINE"
);
},
{
closed = 1;
nodes = (
"119 433 LINE",
"193 433 LINE",
"193 553 LINE",
"119 553 LINE"
);
},
{
closed = 1;
nodes = (
"23 290 LINE",
"97 290 LINE",
"97 410 LINE",
"23 410 LINE"
);
}
);
width = 682;
},
{
associatedMasterId = "3BA1B4B2-6ACF-4D2C-A9DD-A548EEBF9DB3";
layerId = "4C27334D-8596-40AB-AA4B-95D0CB73C0C6";
name = "Color 5";
paths = (
{
closed = 1;
nodes = (
"407 4 LINE",
"481 4 LINE",
"481 124 LINE",
"407 124 LINE"
);
},
{
closed = 1;
nodes = (
"407 147 LINE",
"481 147 LINE",
"481 267 LINE",
"407 267 LINE"
);
},
{
closed = 1;
nodes = (
"503 147 LINE",
"577 147 LINE",
"577 267 LINE",
"503 267 LINE"
);
},
{
closed = 1;
nodes = (
"503 290 LINE",
"577 290 LINE",
"577 410 LINE",
"503 410 LINE"
);
}
);
width = 682;
},
{
associatedMasterId = "3BA1B4B2-6ACF-4D2C-A9DD-A548EEBF9DB3";
layerId = "4FB7B404-137A-4EB6-8768-5796CBABCEA4";
name = "Color 6";
width = 682;
},
{
associatedMasterId = "3BA1B4B2-6ACF-4D2C-A9DD-A548EEBF9DB3";
layerId = "0E5DD102-7911-43BC-9F28-E30260AD6B74";
name = "Color 7";
paths = (
{
closed = 1;
nodes = (
"23 147 LINE",
"97 147 LINE",
"97 267 LINE",
"23 267 LINE"
);
},
{
closed = 1;
nodes = (
"119 147 LINE",
"193 147 LINE",
"193 267 LINE",
"119 267 LINE"
);
},
{
closed = 1;
nodes = (
"23 4 LINE",
"97 4 LINE",
"97 124 LINE",
"23 124 LINE"
);
},
{
closed = 1;
nodes = (
"119 4 LINE",
"193 4 LINE",
"193 124 LINE",
"119 124 LINE"
);
},
{
closed = 1;
nodes = (
"407 576 LINE",
"481 576 LINE",
"481 696 LINE",
"407 696 LINE"
);
},
{
closed = 1;
nodes = (
"503 576 LINE",
"577 576 LINE",
"577 696 LINE",
"503 696 LINE"
);
},
{
closed = 1;
nodes = (
"407 433 LINE",
"481 433 LINE",
"481 553 LINE",
"407 553 LINE"
);
},
{
closed = 1;
nodes = (
"503 433 LINE",
"577 433 LINE",
"577 553 LINE",
"503 553 LINE"
);
}
);
width = 682;
}
);
unicode = 0048;
},
{
glyphname = I;
lastChange = "2019-02-09 05:30:05 +0000";
layers = (
{
layerId = "3BA1B4B2-6ACF-4D2C-A9DD-A548EEBF9DB3";
paths = (
{
closed = 1;
nodes = (
"60 572 LINE",
"142 572 LINE",
"142 700 LINE",
"60 700 LINE"
);
},
{
closed = 1;
nodes = (
"156 572 LINE",
"238 572 LINE",
"238 700 LINE",
"156 700 LINE"
);
},
{
closed = 1;
nodes = (
"252 572 LINE",
"334 572 LINE",
"334 700 LINE",
"252 700 LINE"
);
},
{
closed = 1;
nodes = (
"348 572 LINE",
"430 572 LINE",
"430 700 LINE",
"348 700 LINE"
);
},
{
closed = 1;
nodes = (
"444 572 LINE",
"526 572 LINE",
"526 700 LINE",
"444 700 LINE"
);
},
{
closed = 1;
nodes = (
"540 572 LINE",
"622 572 LINE",
"622 700 LINE",
"540 700 LINE"
);
},
{
closed = 1;
nodes = (
"252 429 LINE",
"334 429 LINE",
"334 557 LINE",
"252 557 LINE"
);
},
{
closed = 1;
nodes = (
"348 429 LINE",
"430 429 LINE",
"430 557 LINE",
"348 557 LINE"
);
},
{
closed = 1;
nodes = (
"252 286 LINE",
"334 286 LINE",
"334 414 LINE",
"252 414 LINE"
);
},
{
closed = 1;
nodes = (
"348 286 LINE",
"430 286 LINE",
"430 414 LINE",
"348 414 LINE"
);
},
{
closed = 1;
nodes = (
"252 143 LINE",
"334 143 LINE",
"334 271 LINE",
"252 271 LINE"
);
},
{
closed = 1;
nodes = (
"348 143 LINE",
"430 143 LINE",
"430 271 LINE",
"348 271 LINE"
);
},
{
closed = 1;
nodes = (
"252 0 LINE",
"334 0 LINE",
"334 128 LINE",
"252 128 LINE"
);
},
{
closed = 1;
nodes = (
"348 0 LINE",
"430 0 LINE",
"430 128 LINE",
"348 128 LINE"
);
},
{
closed = 1;
nodes = (
"156 0 LINE",
"238 0 LINE",
"238 128 LINE",
"156 128 LINE"
);
},
{
closed = 1;
nodes = (
"444 0 LINE",
"526 0 LINE",
"526 128 LINE",
"444 128 LINE"
);
},
{
closed = 1;
nodes = (
"60 0 LINE",
"142 0 LINE",
"142 128 LINE",
"60 128 LINE"
);
},
{
closed = 1;
nodes = (
"540 0 LINE",
"622 0 LINE",
"622 128 LINE",
"540 128 LINE"
);
}
);
width = 682;
},
{
associatedMasterId = "3BA1B4B2-6ACF-4D2C-A9DD-A548EEBF9DB3";
layerId = "EB07B809-7D58-4C21-844C-B11B5E7120FE";
name = "Color 0";
paths = (
{
closed = 1;
nodes = (
"19 572 LINE",
"101 572 LINE",
"101 700 LINE",
"19 700 LINE"
);
},
{
closed = 1;
nodes = (
"115 572 LINE",
"197 572 LINE",
"197 700 LINE",
"115 700 LINE"
);
},
{
closed = 1;
nodes = (
"211 572 LINE",
"293 572 LINE",
"293 700 LINE",
"211 700 LINE"
);
},
{
closed = 1;
nodes = (
"307 572 LINE",
"389 572 LINE",
"389 700 LINE",
"307 700 LINE"
);
},
{
closed = 1;
nodes = (
"403 572 LINE",
"485 572 LINE",
"485 700 LINE",
"403 700 LINE"
);
},
{
closed = 1;
nodes = (
"499 572 LINE",
"581 572 LINE",
"581 700 LINE",
"499 700 LINE"
);
},
{
closed = 1;
nodes = (
"211 429 LINE",
"293 429 LINE",
"293 557 LINE",
"211 557 LINE"
);
},
{
closed = 1;
nodes = (
"307 429 LINE",
"389 429 LINE",
"389 557 LINE",
"307 557 LINE"
);
},
{
closed = 1;
nodes = (
"211 286 LINE",
"293 286 LINE",
"293 414 LINE",
"211 414 LINE"
);
},
{
closed = 1;
nodes = (
"307 286 LINE",
"389 286 LINE",
"389 414 LINE",
"307 414 LINE"
);
},
{
closed = 1;
nodes = (
"211 143 LINE",
"293 143 LINE",
"293 271 LINE",
"211 271 LINE"
);
},
{
closed = 1;
nodes = (
"307 143 LINE",
"389 143 LINE",
"389 271 LINE",
"307 271 LINE"
);
},
{
closed = 1;
nodes = (
"211 0 LINE",
"293 0 LINE",
"293 128 LINE",
"211 128 LINE"
);
},
{
closed = 1;
nodes = (
"307 0 LINE",
"389 0 LINE",
"389 128 LINE",
"307 128 LINE"
);
},
{
closed = 1;
nodes = (
"115 0 LINE",
"197 0 LINE",
"197 128 LINE",
"115 128 LINE"
);
},
{
closed = 1;
nodes = (
"403 0 LINE",
"485 0 LINE",
"485 128 LINE",
"403 128 LINE"
);
},
{
closed = 1;
nodes = (
"19 0 LINE",
"101 0 LINE",
"101 128 LINE",
"19 128 LINE"
);
},
{
closed = 1;
nodes = (
"499 0 LINE",
"581 0 LINE",
"581 128 LINE",
"499 128 LINE"
);
}
);
width = 682;
},
{
associatedMasterId = "3BA1B4B2-6ACF-4D2C-A9DD-A548EEBF9DB3";
layerId = "21DD3B49-86C6-4A14-AF44-4A1DE7A38653";
name = "Color 1";
width = 682;
},
{
associatedMasterId = "3BA1B4B2-6ACF-4D2C-A9DD-A548EEBF9DB3";
layerId = "38297459-A9E7-45DC-AD6F-A15B5059C3FA";
name = "Color 2";
paths = (
{
closed = 1;
nodes = (
"23 576 LINE",
"97 576 LINE",
"97 696 LINE",
"23 696 LINE"
);
},
{
closed = 1;
nodes = (
"119 576 LINE",
"193 576 LINE",
"193 696 LINE",
"119 696 LINE"
);
},
{
closed = 1;
nodes = (
"215 576 LINE",
"289 576 LINE",
"289 696 LINE",
"215 696 LINE"
);
},
{
closed = 1;
nodes = (
"215 433 LINE",
"289 433 LINE",
"289 553 LINE",
"215 553 LINE"
);
},
{
closed = 1;
nodes = (
"311 147 LINE",
"385 147 LINE",
"385 267 LINE",
"311 267 LINE"
);
},
{
closed = 1;
nodes = (
"311 4 LINE",
"385 4 LINE",
"385 124 LINE",
"311 124 LINE"
);
},
{
closed = 1;
nodes = (
"407 4 LINE",
"481 4 LINE",
"481 124 LINE",
"407 124 LINE"
);
},
{
closed = 1;
nodes = (
"503 4 LINE",
"577 4 LINE",
"577 124 LINE",
"503 124 LINE"
);
}
);
width = 682;
},
{
associatedMasterId = "3BA1B4B2-6ACF-4D2C-A9DD-A548EEBF9DB3";
layerId = "D13C9346-FBA5-4F76-8F4C-6FEB9365F37D";
name = "Color 3";
width = 682;
},
{
associatedMasterId = "3BA1B4B2-6ACF-4D2C-A9DD-A548EEBF9DB3";
layerId = "52335A2B-9B6B-4D7E-BF59-B48ADB6C4A91";
name = "Color 4";
width = 682;
},
{
associatedMasterId = "3BA1B4B2-6ACF-4D2C-A9DD-A548EEBF9DB3";
layerId = "9FFCF9E8-D8D4-4A3F-BA79-D70AFCA192EE";
name = "Color 5";
width = 682;
},
{
associatedMasterId = "3BA1B4B2-6ACF-4D2C-A9DD-A548EEBF9DB3";
layerId = "59E0EA25-A0AA-4145-8BAE-A2CBB81EDCDC";
name = "Color 6";
paths = (
{
closed = 1;
nodes = (
"311 433 LINE",
"385 433 LINE",
"385 553 LINE",
"311 553 LINE"
);
},
{
closed = 1;
nodes = (
"311 576 LINE",
"385 576 LINE",
"385 696 LINE",
"311 696 LINE"
);
},
{
closed = 1;
nodes = (
"407 576 LINE",
"481 576 LINE",
"481 696 LINE",
"407 696 LINE"
);
},
{
closed = 1;
nodes = (
"503 576 LINE",
"577 576 LINE",
"577 696 LINE",
"503 696 LINE"
);
},
{
closed = 1;
nodes = (
"215 147 LINE",
"289 147 LINE",
"289 267 LINE",
"215 267 LINE"
);
},
{
closed = 1;
nodes = (
"215 4 LINE",
"289 4 LINE",
"289 124 LINE",
"215 124 LINE"
);
},
{
closed = 1;
nodes = (
"119 4 LINE",
"193 4 LINE",
"193 124 LINE",
"119 124 LINE"
);
},
{
closed = 1;
nodes = (
"23 4 LINE",
"97 4 LINE",
"97 124 LINE",
"23 124 LINE"
);
}
);
width = 682;
},
{
associatedMasterId = "3BA1B4B2-6ACF-4D2C-A9DD-A548EEBF9DB3";
layerId = "A0ED586E-4876-4D73-A5E2-039CDB17E138";
name = "Color 7";
paths = (
{
closed = 1;
nodes = (
"215 290 LINE",
"289 290 LINE",
"289 410 LINE",
"215 410 LINE"
);
},
{
closed = 1;
nodes = (
"311 290 LINE",
"385 290 LINE",
"385 410 LINE",
"311 410 LINE"
);
}
);
width = 682;
}
);
unicode = 0049;
},
{
glyphname = J;
lastChange = "2019-02-09 05:30:05 +0000";
layers = (
{
layerId = "3BA1B4B2-6ACF-4D2C-A9DD-A548EEBF9DB3";
paths = (
{
closed = 1;
nodes = (
"444 572 LINE",
"526 572 LINE",
"526 700 LINE",
"444 700 LINE"
);
},
{
closed = 1;
nodes = (
"540 572 LINE",
"622 572 LINE",
"622 700 LINE",
"540 700 LINE"
);
},
{
closed = 1;
nodes = (
"444 429 LINE",
"526 429 LINE",
"526 557 LINE",
"444 557 LINE"
);
},
{
closed = 1;
nodes = (
"540 429 LINE",
"622 429 LINE",
"622 557 LINE",
"540 557 LINE"
);
},
{
closed = 1;
nodes = (
"444 286 LINE",
"526 286 LINE",
"526 414 LINE",
"444 414 LINE"
);
},
{
closed = 1;
nodes = (
"540 286 LINE",
"622 286 LINE",
"622 414 LINE",
"540 414 LINE"
);
},
{
closed = 1;
nodes = (
"444 143 LINE",
"526 143 LINE",
"526 271 LINE",
"444 271 LINE"
);
},
{
closed = 1;
nodes = (
"540 143 LINE",
"622 143 LINE",
"622 271 LINE",
"540 271 LINE"
);
},
{
closed = 1;
nodes = (
"444 0 LINE",
"526 0 LINE",
"526 128 LINE",
"444 128 LINE"
);
},
{
closed = 1;
nodes = (
"348 0 LINE",
"430 0 LINE",
"430 128 LINE",
"348 128 LINE"
);
},
{
closed = 1;
nodes = (
"252 0 LINE",
"334 0 LINE",
"334 128 LINE",
"252 128 LINE"
);
},
{
closed = 1;
nodes = (
"156 0 LINE",
"238 0 LINE",
"238 128 LINE",
"156 128 LINE"
);
},
{
closed = 1;
nodes = (
"156 143 LINE",
"238 143 LINE",
"238 271 LINE",
"156 271 LINE"
);
},
{
closed = 1;
nodes = (
"60 143 LINE",
"142 143 LINE",
"142 271 LINE",
"60 271 LINE"
);
}
);
width = 682;
},
{
associatedMasterId = "3BA1B4B2-6ACF-4D2C-A9DD-A548EEBF9DB3";
layerId = "AEEDA7CC-971B-4BD7-9981-82445BD407E2";
name = "Color 0";
paths = (
{
closed = 1;
nodes = (
"403 572 LINE",
"485 572 LINE",
"485 700 LINE",
"403 700 LINE"
);
},
{
closed = 1;
nodes = (
"499 572 LINE",
"581 572 LINE",
"581 700 LINE",
"499 700 LINE"
);
},
{
closed = 1;
nodes = (
"403 429 LINE",
"485 429 LINE",
"485 557 LINE",
"403 557 LINE"
);
},
{
closed = 1;
nodes = (
"499 429 LINE",
"581 429 LINE",
"581 557 LINE",
"499 557 LINE"
);
},
{
closed = 1;
nodes = (
"403 286 LINE",
"485 286 LINE",
"485 414 LINE",
"403 414 LINE"
);
},
{
closed = 1;
nodes = (
"499 286 LINE",
"581 286 LINE",
"581 414 LINE",
"499 414 LINE"
);
},
{
closed = 1;
nodes = (
"403 143 LINE",
"485 143 LINE",
"485 271 LINE",
"403 271 LINE"
);
},
{
closed = 1;
nodes = (
"499 143 LINE",
"581 143 LINE",
"581 271 LINE",
"499 271 LINE"
);
},
{
closed = 1;
nodes = (
"403 0 LINE",
"485 0 LINE",
"485 128 LINE",
"403 128 LINE"
);
},
{
closed = 1;
nodes = (
"307 0 LINE",
"389 0 LINE",
"389 128 LINE",
"307 128 LINE"
);
},
{
closed = 1;
nodes = (
"211 0 LINE",
"293 0 LINE",
"293 128 LINE",
"211 128 LINE"
);
},
{
closed = 1;
nodes = (
"115 0 LINE",
"197 0 LINE",
"197 128 LINE",
"115 128 LINE"
);
},
{
closed = 1;
nodes = (
"115 143 LINE",
"197 143 LINE",
"197 271 LINE",
"115 271 LINE"
);
},
{
closed = 1;
nodes = (
"19 143 LINE",
"101 143 LINE",
"101 271 LINE",
"19 271 LINE"
);
}
);
width = 682;
},
{
associatedMasterId = "3BA1B4B2-6ACF-4D2C-A9DD-A548EEBF9DB3";
layerId = "1A05AE5C-FED4-4239-8612-E9F5E8121531";
name = "Color 1";
width = 682;
},
{
associatedMasterId = "3BA1B4B2-6ACF-4D2C-A9DD-A548EEBF9DB3";
layerId = "ED466969-D508-4812-BD8B-A871443BA634";
name = "Color 2";
width = 682;
},
{
associatedMasterId = "3BA1B4B2-6ACF-4D2C-A9DD-A548EEBF9DB3";
layerId = "43813CD6-844F-4172-8911-F8D486C5765E";
name = "Color 3";
paths = (
{
closed = 1;
nodes = (
"311 4 LINE",
"385 4 LINE",
"385 124 LINE",
"311 124 LINE"
);
},
{
closed = 1;
nodes = (
"407 4 LINE",
"481 4 LINE",
"481 124 LINE",
"407 124 LINE"
);
},
{
closed = 1;
nodes = (
"407 147 LINE",
"481 147 LINE",
"481 267 LINE",
"407 267 LINE"
);
},
{
closed = 1;
nodes = (
"503 147 LINE",
"577 147 LINE",
"577 267 LINE",
"503 267 LINE"
);
}
);
width = 682;
},
{
associatedMasterId = "3BA1B4B2-6ACF-4D2C-A9DD-A548EEBF9DB3";
layerId = "6FC043E9-759B-40DE-B744-6636C3FACD50";
name = "Color 4";
paths = (
{
closed = 1;
nodes = (
"407 433 LINE",
"481 433 LINE",
"481 553 LINE",
"407 553 LINE"
);
},
{
closed = 1;
nodes = (
"503 433 LINE",
"577 433 LINE",
"577 553 LINE",
"503 553 LINE"
);
},
{
closed = 1;
nodes = (
"407 576 LINE",
"481 576 LINE",
"481 696 LINE",
"407 696 LINE"
);
},
{
closed = 1;
nodes = (
"407 290 LINE",
"481 290 LINE",
"481 410 LINE",
"407 410 LINE"
);
}
);
width = 682;
},
{
associatedMasterId = "3BA1B4B2-6ACF-4D2C-A9DD-A548EEBF9DB3";
layerId = "210A780F-2810-4304-82AB-37FFA7D371D9";
name = "Color 5";
paths = (
{
closed = 1;
nodes = (
"23 147 LINE",
"97 147 LINE",
"97 267 LINE",
"23 267 LINE"
);
},
{
closed = 1;
nodes = (
"119 147 LINE",
"193 147 LINE",
"193 267 LINE",
"119 267 LINE"
);
},
{
closed = 1;
nodes = (
"119 4 LINE",
"193 4 LINE",
"193 124 LINE",
"119 124 LINE"
);
},
{
closed = 1;
nodes = (
"215 4 LINE",
"289 4 LINE",
"289 124 LINE",
"215 124 LINE"
);
}
);
width = 682;
},
{
associatedMasterId = "3BA1B4B2-6ACF-4D2C-A9DD-A548EEBF9DB3";
layerId = "931CABA6-B291-4FE3-9BA5-FD66D8F34A66";
name = "Color 6";
width = 682;
},
{
associatedMasterId = "3BA1B4B2-6ACF-4D2C-A9DD-A548EEBF9DB3";
layerId = "A8FD1C3B-80BD-485A-93E0-B3EF359A3E3B";
name = "Color 7";
paths = (
{
closed = 1;
nodes = (
"503 290 LINE",
"577 290 LINE",
"577 410 LINE",
"503 410 LINE"
);
},
{
closed = 1;
nodes = (
"503 576 LINE",
"577 576 LINE",
"577 696 LINE",
"503 696 LINE"
);
}
);
width = 682;
}
);
unicode = 004A;
},
{
glyphname = K;
lastChange = "2019-02-09 05:30:05 +0000";
layers = (
{
layerId = "3BA1B4B2-6ACF-4D2C-A9DD-A548EEBF9DB3";
paths = (
{
closed = 1;
nodes = (
"60 572 LINE",
"142 572 LINE",
"142 700 LINE",
"60 700 LINE"
);
},
{
closed = 1;
nodes = (
"156 572 LINE",
"238 572 LINE",
"238 700 LINE",
"156 700 LINE"
);
},
{
closed = 1;
nodes = (
"60 429 LINE",
"142 429 LINE",
"142 557 LINE",
"60 557 LINE"
);
},
{
closed = 1;
nodes = (
"156 429 LINE",
"238 429 LINE",
"238 557 LINE",
"156 557 LINE"
);
},
{
closed = 1;
nodes = (
"60 286 LINE",
"142 286 LINE",
"142 414 LINE",
"60 414 LINE"
);
},
{
closed = 1;
nodes = (
"156 286 LINE",
"238 286 LINE",
"238 414 LINE",
"156 414 LINE"
);
},
{
closed = 1;
nodes = (
"60 143 LINE",
"142 143 LINE",
"142 271 LINE",
"60 271 LINE"
);
},
{
closed = 1;
nodes = (
"156 143 LINE",
"238 143 LINE",
"238 271 LINE",
"156 271 LINE"
);
},
{
closed = 1;
nodes = (
"60 0 LINE",
"142 0 LINE",
"142 128 LINE",
"60 128 LINE"
);
},
{
closed = 1;
nodes = (
"156 0 LINE",
"238 0 LINE",
"238 128 LINE",
"156 128 LINE"
);
},
{
closed = 1;
nodes = (
"252 286 LINE",
"334 286 LINE",
"334 414 LINE",
"252 414 LINE"
);
},
{
closed = 1;
nodes = (
"348 286 LINE",
"430 286 LINE",
"430 414 LINE",
"348 414 LINE"
);
},
{
closed = 1;
nodes = (
"348 429 LINE",
"430 429 LINE",
"430 557 LINE",
"348 557 LINE"
);
},
{
closed = 1;
nodes = (
"444 429 LINE",
"526 429 LINE",
"526 557 LINE",
"444 557 LINE"
);
},
{
closed = 1;
nodes = (
"444 572 LINE",
"526 572 LINE",
"526 700 LINE",
"444 700 LINE"
);
},
{
closed = 1;
nodes = (
"540 572 LINE",
"622 572 LINE",
"622 700 LINE",
"540 700 LINE"
);
},
{
closed = 1;
nodes = (
"348 143 LINE",
"430 143 LINE",
"430 271 LINE",
"348 271 LINE"
);
},
{
closed = 1;
nodes = (
"444 143 LINE",
"526 143 LINE",
"526 271 LINE",
"444 271 LINE"
);
},
{
closed = 1;
nodes = (
"444 0 LINE",
"526 0 LINE",
"526 128 LINE",
"444 128 LINE"
);
},
{
closed = 1;
nodes = (
"540 0 LINE",
"622 0 LINE",
"622 128 LINE",
"540 128 LINE"
);
}
);
width = 682;
},
{
associatedMasterId = "3BA1B4B2-6ACF-4D2C-A9DD-A548EEBF9DB3";
layerId = "641D9D14-F7C6-463D-88B4-3E63DD490EB4";
name = "Color 0";
paths = (
{
closed = 1;
nodes = (
"19 572 LINE",
"101 572 LINE",
"101 700 LINE",
"19 700 LINE"
);
},
{
closed = 1;
nodes = (
"115 572 LINE",
"197 572 LINE",
"197 700 LINE",
"115 700 LINE"
);
},
{
closed = 1;
nodes = (
"19 429 LINE",
"101 429 LINE",
"101 557 LINE",
"19 557 LINE"
);
},
{
closed = 1;
nodes = (
"115 429 LINE",
"197 429 LINE",
"197 557 LINE",
"115 557 LINE"
);
},
{
closed = 1;
nodes = (
"19 286 LINE",
"101 286 LINE",
"101 414 LINE",
"19 414 LINE"
);
},
{
closed = 1;
nodes = (
"115 286 LINE",
"197 286 LINE",
"197 414 LINE",
"115 414 LINE"
);
},
{
closed = 1;
nodes = (
"19 143 LINE",
"101 143 LINE",
"101 271 LINE",
"19 271 LINE"
);
},
{
closed = 1;
nodes = (
"115 143 LINE",
"197 143 LINE",
"197 271 LINE",
"115 271 LINE"
);
},
{
closed = 1;
nodes = (
"19 0 LINE",
"101 0 LINE",
"101 128 LINE",
"19 128 LINE"
);
},
{
closed = 1;
nodes = (
"115 0 LINE",
"197 0 LINE",
"197 128 LINE",
"115 128 LINE"
);
},
{
closed = 1;
nodes = (
"211 286 LINE",
"293 286 LINE",
"293 414 LINE",
"211 414 LINE"
);
},
{
closed = 1;
nodes = (
"307 286 LINE",
"389 286 LINE",
"389 414 LINE",
"307 414 LINE"
);
},
{
closed = 1;
nodes = (
"307 429 LINE",
"389 429 LINE",
"389 557 LINE",
"307 557 LINE"
);
},
{
closed = 1;
nodes = (
"403 429 LINE",
"485 429 LINE",
"485 557 LINE",
"403 557 LINE"
);
},
{
closed = 1;
nodes = (
"403 572 LINE",
"485 572 LINE",
"485 700 LINE",
"403 700 LINE"
);
},
{
closed = 1;
nodes = (
"499 572 LINE",
"581 572 LINE",
"581 700 LINE",
"499 700 LINE"
);
},
{
closed = 1;
nodes = (
"307 143 LINE",
"389 143 LINE",
"389 271 LINE",
"307 271 LINE"
);
},
{
closed = 1;
nodes = (
"403 143 LINE",
"485 143 LINE",
"485 271 LINE",
"403 271 LINE"
);
},
{
closed = 1;
nodes = (
"403 0 LINE",
"485 0 LINE",
"485 128 LINE",
"403 128 LINE"
);
},
{
closed = 1;
nodes = (
"499 0 LINE",
"581 0 LINE",
"581 128 LINE",
"499 128 LINE"
);
}
);
width = 682;
},
{
associatedMasterId = "3BA1B4B2-6ACF-4D2C-A9DD-A548EEBF9DB3";
layerId = "FDEC6C43-4B08-4F11-B375-FBBD34726FF1";
name = "Color 1";
paths = (
{
closed = 1;
nodes = (
"23 290 LINE",
"97 290 LINE",
"97 410 LINE",
"23 410 LINE"
);
},
{
closed = 1;
nodes = (
"119 290 LINE",
"193 290 LINE",
"193 410 LINE",
"119 410 LINE"
);
},
{
closed = 1;
nodes = (
"215 290 LINE",
"289 290 LINE",
"289 410 LINE",
"215 410 LINE"
);
},
{
closed = 1;
nodes = (
"311 290 LINE",
"385 290 LINE",
"385 410 LINE",
"311 410 LINE"
);
}
);
width = 682;
},
{
associatedMasterId = "3BA1B4B2-6ACF-4D2C-A9DD-A548EEBF9DB3";
layerId = "EF06B9CE-23F3-4812-B61B-0583CFE1CE15";
name = "Color 2";
width = 682;
},
{
associatedMasterId = "3BA1B4B2-6ACF-4D2C-A9DD-A548EEBF9DB3";
layerId = "1471ED3A-9D1F-4EA5-83DA-7A9294C90532";
name = "Color 3";
paths = (
{
closed = 1;
nodes = (
"311 433 LINE",
"385 433 LINE",
"385 553 LINE",
"311 553 LINE"
);
},
{
closed = 1;
nodes = (
"407 433 LINE",
"481 433 LINE",
"481 553 LINE",
"407 553 LINE"
);
},
{
closed = 1;
nodes = (
"407 576 LINE",
"481 576 LINE",
"481 696 LINE",
"407 696 LINE"
);
},
{
closed = 1;
nodes = (
"503 576 LINE",
"577 576 LINE",
"577 696 LINE",
"503 696 LINE"
);
}
);
width = 682;
},
{
associatedMasterId = "3BA1B4B2-6ACF-4D2C-A9DD-A548EEBF9DB3";
layerId = "9879F39C-0DED-4D33-A7DE-BFAA0A380215";
name = "Color 4";
width = 682;
},
{
associatedMasterId = "3BA1B4B2-6ACF-4D2C-A9DD-A548EEBF9DB3";
layerId = "F712D4EB-3F51-4109-BC32-CF226AE0473E";
name = "Color 5";
paths = (
{
closed = 1;
nodes = (
"311 147 LINE",
"385 147 LINE",
"385 267 LINE",
"311 267 LINE"
);
},
{
closed = 1;
nodes = (
"407 147 LINE",
"481 147 LINE",
"481 267 LINE",
"407 267 LINE"
);
},
{
closed = 1;
nodes = (
"407 4 LINE",
"481 4 LINE",
"481 124 LINE",
"407 124 LINE"
);
},
{
closed = 1;
nodes = (
"503 5 LINE",
"577 5 LINE",
"577 125 LINE",
"503 125 LINE"
);
}
);
width = 682;
},
{
associatedMasterId = "3BA1B4B2-6ACF-4D2C-A9DD-A548EEBF9DB3";
layerId = "DF645BB9-4787-41E2-8C6A-FFB07C86C5F2";
name = "Color 6";
width = 682;
},
{
associatedMasterId = "3BA1B4B2-6ACF-4D2C-A9DD-A548EEBF9DB3";
layerId = "0A64844D-DDF2-4260-924C-AC1C0A7DA4FB";
name = "Color 7";
paths = (
{
closed = 1;
nodes = (
"23 147 LINE",
"97 147 LINE",
"97 267 LINE",
"23 267 LINE"
);
},
{
closed = 1;
nodes = (
"119 147 LINE",
"193 147 LINE",
"193 267 LINE",
"119 267 LINE"
);
},
{
closed = 1;
nodes = (
"23 4 LINE",
"97 4 LINE",
"97 124 LINE",
"23 124 LINE"
);
},
{
closed = 1;
nodes = (
"119 4 LINE",
"193 4 LINE",
"193 124 LINE",
"119 124 LINE"
);
},
{
closed = 1;
nodes = (
"23 576 LINE",
"97 576 LINE",
"97 696 LINE",
"23 696 LINE"
);
},
{
closed = 1;
nodes = (
"119 576 LINE",
"193 576 LINE",
"193 696 LINE",
"119 696 LINE"
);
},
{
closed = 1;
nodes = (
"23 433 LINE",
"97 433 LINE",
"97 553 LINE",
"23 553 LINE"
);
},
{
closed = 1;
nodes = (
"119 433 LINE",
"193 433 LINE",
"193 553 LINE",
"119 553 LINE"
);
}
);
width = 682;
}
);
unicode = 004B;
},
{
glyphname = L;
lastChange = "2019-02-09 05:30:05 +0000";
layers = (
{
layerId = "3BA1B4B2-6ACF-4D2C-A9DD-A548EEBF9DB3";
paths = (
{
closed = 1;
nodes = (
"60 572 LINE",
"142 572 LINE",
"142 700 LINE",
"60 700 LINE"
);
},
{
closed = 1;
nodes = (
"156 572 LINE",
"238 572 LINE",
"238 700 LINE",
"156 700 LINE"
);
},
{
closed = 1;
nodes = (
"60 429 LINE",
"142 429 LINE",
"142 557 LINE",
"60 557 LINE"
);
},
{
closed = 1;
nodes = (
"156 429 LINE",
"238 429 LINE",
"238 557 LINE",
"156 557 LINE"
);
},
{
closed = 1;
nodes = (
"60 286 LINE",
"142 286 LINE",
"142 414 LINE",
"60 414 LINE"
);
},
{
closed = 1;
nodes = (
"156 286 LINE",
"238 286 LINE",
"238 414 LINE",
"156 414 LINE"
);
},
{
closed = 1;
nodes = (
"60 143 LINE",
"142 143 LINE",
"142 271 LINE",
"60 271 LINE"
);
},
{
closed = 1;
nodes = (
"156 143 LINE",
"238 143 LINE",
"238 271 LINE",
"156 271 LINE"
);
},
{
closed = 1;
nodes = (
"60 0 LINE",
"142 0 LINE",
"142 128 LINE",
"60 128 LINE"
);
},
{
closed = 1;
nodes = (
"156 0 LINE",
"238 0 LINE",
"238 128 LINE",
"156 128 LINE"
);
},
{
closed = 1;
nodes = (
"252 0 LINE",
"334 0 LINE",
"334 128 LINE",
"252 128 LINE"
);
},
{
closed = 1;
nodes = (
"348 0 LINE",
"430 0 LINE",
"430 128 LINE",
"348 128 LINE"
);
},
{
closed = 1;
nodes = (
"444 0 LINE",
"526 0 LINE",
"526 128 LINE",
"444 128 LINE"
);
},
{
closed = 1;
nodes = (
"540 0 LINE",
"622 0 LINE",
"622 128 LINE",
"540 128 LINE"
);
}
);
width = 682;
},
{
associatedMasterId = "3BA1B4B2-6ACF-4D2C-A9DD-A548EEBF9DB3";
layerId = "991911A6-82F3-4432-89F2-45671F914D2F";
name = "Color 0";
paths = (
{
closed = 1;
nodes = (
"19 572 LINE",
"101 572 LINE",
"101 700 LINE",
"19 700 LINE"
);
},
{
closed = 1;
nodes = (
"115 572 LINE",
"197 572 LINE",
"197 700 LINE",
"115 700 LINE"
);
},
{
closed = 1;
nodes = (
"19 429 LINE",
"101 429 LINE",
"101 557 LINE",
"19 557 LINE"
);
},
{
closed = 1;
nodes = (
"115 429 LINE",
"197 429 LINE",
"197 557 LINE",
"115 557 LINE"
);
},
{
closed = 1;
nodes = (
"19 286 LINE",
"101 286 LINE",
"101 414 LINE",
"19 414 LINE"
);
},
{
closed = 1;
nodes = (
"115 286 LINE",
"197 286 LINE",
"197 414 LINE",
"115 414 LINE"
);
},
{
closed = 1;
nodes = (
"19 143 LINE",
"101 143 LINE",
"101 271 LINE",
"19 271 LINE"
);
},
{
closed = 1;
nodes = (
"115 143 LINE",
"197 143 LINE",
"197 271 LINE",
"115 271 LINE"
);
},
{
closed = 1;
nodes = (
"19 0 LINE",
"101 0 LINE",
"101 128 LINE",
"19 128 LINE"
);
},
{
closed = 1;
nodes = (
"115 0 LINE",
"197 0 LINE",
"197 128 LINE",
"115 128 LINE"
);
},
{
closed = 1;
nodes = (
"211 0 LINE",
"293 0 LINE",
"293 128 LINE",
"211 128 LINE"
);
},
{
closed = 1;
nodes = (
"307 0 LINE",
"389 0 LINE",
"389 128 LINE",
"307 128 LINE"
);
},
{
closed = 1;
nodes = (
"403 0 LINE",
"485 0 LINE",
"485 128 LINE",
"403 128 LINE"
);
},
{
closed = 1;
nodes = (
"499 0 LINE",
"581 0 LINE",
"581 128 LINE",
"499 128 LINE"
);
}
);
width = 682;
},
{
associatedMasterId = "3BA1B4B2-6ACF-4D2C-A9DD-A548EEBF9DB3";
layerId = "710571C6-C248-49D1-90A3-446613FB7465";
name = "Color 1";
paths = (
{
closed = 1;
nodes = (
"215 4 LINE",
"289 4 LINE",
"289 124 LINE",
"215 124 LINE"
);
},
{
closed = 1;
nodes = (
"311 4 LINE",
"385 4 LINE",
"385 124 LINE",
"311 124 LINE"
);
},
{
closed = 1;
nodes = (
"407 4 LINE",
"481 4 LINE",
"481 124 LINE",
"407 124 LINE"
);
},
{
closed = 1;
nodes = (
"503 4 LINE",
"577 4 LINE",
"577 124 LINE",
"503 124 LINE"
);
}
);
width = 682;
},
{
associatedMasterId = "3BA1B4B2-6ACF-4D2C-A9DD-A548EEBF9DB3";
layerId = "DCC0AD0D-14DD-4D7B-A798-41D11F140AB9";
name = "Color 2";
width = 682;
},
{
associatedMasterId = "3BA1B4B2-6ACF-4D2C-A9DD-A548EEBF9DB3";
layerId = "74CBF786-180C-46BA-AC71-B42B0181DBCB";
name = "Color 3";
paths = (
{
closed = 1;
nodes = (
"119 289 LINE",
"193 289 LINE",
"193 409 LINE",
"119 409 LINE"
);
}
);
width = 682;
},
{
associatedMasterId = "3BA1B4B2-6ACF-4D2C-A9DD-A548EEBF9DB3";
layerId = "248F043F-7C44-43C5-815C-244AB576C5FC";
name = "Color 4";
paths = (
{
closed = 1;
nodes = (
"23 576 LINE",
"97 576 LINE",
"97 696 LINE",
"23 696 LINE"
);
}
);
width = 682;
},
{
associatedMasterId = "3BA1B4B2-6ACF-4D2C-A9DD-A548EEBF9DB3";
layerId = "BF7B240E-EEEF-416A-B200-1F964707DE0E";
name = "Color 5";
paths = (
{
closed = 1;
nodes = (
"119 576 LINE",
"193 576 LINE",
"193 696 LINE",
"119 696 LINE"
);
},
{
closed = 1;
nodes = (
"119 433 LINE",
"193 433 LINE",
"193 553 LINE",
"119 553 LINE"
);
},
{
closed = 1;
nodes = (
"23 433 LINE",
"97 433 LINE",
"97 553 LINE",
"23 553 LINE"
);
},
{
closed = 1;
nodes = (
"23 290 LINE",
"97 290 LINE",
"97 410 LINE",
"23 410 LINE"
);
}
);
width = 682;
},
{
associatedMasterId = "3BA1B4B2-6ACF-4D2C-A9DD-A548EEBF9DB3";
layerId = "B5B8C338-F32A-4868-B9DD-099C8FDD95AA";
name = "Color 6";
width = 682;
},
{
associatedMasterId = "3BA1B4B2-6ACF-4D2C-A9DD-A548EEBF9DB3";
layerId = "3438AF69-EB51-48F7-A227-8CED2FA9B16D";
name = "Color 7";
paths = (
{
closed = 1;
nodes = (
"23 147 LINE",
"97 147 LINE",
"97 267 LINE",
"23 267 LINE"
);
},
{
closed = 1;
nodes = (
"119 147 LINE",
"193 147 LINE",
"193 267 LINE",
"119 267 LINE"
);
},
{
closed = 1;
nodes = (
"23 4 LINE",
"97 4 LINE",
"97 124 LINE",
"23 124 LINE"
);
},
{
closed = 1;
nodes = (
"119 4 LINE",
"193 4 LINE",
"193 124 LINE",
"119 124 LINE"
);
}
);
width = 682;
}
);
unicode = 004C;
},
{
glyphname = M;
lastChange = "2019-02-09 05:30:05 +0000";
layers = (
{
layerId = "3BA1B4B2-6ACF-4D2C-A9DD-A548EEBF9DB3";
paths = (
{
closed = 1;
nodes = (
"60 572 LINE",
"142 572 LINE",
"142 700 LINE",
"60 700 LINE"
);
},
{
closed = 1;
nodes = (
"60 429 LINE",
"142 429 LINE",
"142 557 LINE",
"60 557 LINE"
);
},
{
closed = 1;
nodes = (
"156 429 LINE",
"238 429 LINE",
"238 557 LINE",
"156 557 LINE"
);
},
{
closed = 1;
nodes = (
"60 286 LINE",
"142 286 LINE",
"142 414 LINE",
"60 414 LINE"
);
},
{
closed = 1;
nodes = (
"156 286 LINE",
"238 286 LINE",
"238 414 LINE",
"156 414 LINE"
);
},
{
closed = 1;
nodes = (
"60 143 LINE",
"142 143 LINE",
"142 271 LINE",
"60 271 LINE"
);
},
{
closed = 1;
nodes = (
"156 143 LINE",
"238 143 LINE",
"238 271 LINE",
"156 271 LINE"
);
},
{
closed = 1;
nodes = (
"60 0 LINE",
"142 0 LINE",
"142 128 LINE",
"60 128 LINE"
);
},
{
closed = 1;
nodes = (
"156 0 LINE",
"238 0 LINE",
"238 128 LINE",
"156 128 LINE"
);
},
{
closed = 1;
nodes = (
"252 286 LINE",
"334 286 LINE",
"334 414 LINE",
"252 414 LINE"
);
},
{
closed = 1;
nodes = (
"348 286 LINE",
"430 286 LINE",
"430 414 LINE",
"348 414 LINE"
);
},
{
closed = 1;
nodes = (
"444 286 LINE",
"526 286 LINE",
"526 414 LINE",
"444 414 LINE"
);
},
{
closed = 1;
nodes = (
"540 286 LINE",
"622 286 LINE",
"622 414 LINE",
"540 414 LINE"
);
},
{
closed = 1;
nodes = (
"444 429 LINE",
"526 429 LINE",
"526 557 LINE",
"444 557 LINE"
);
},
{
closed = 1;
nodes = (
"540 429 LINE",
"622 429 LINE",
"622 557 LINE",
"540 557 LINE"
);
},
{
closed = 1;
nodes = (
"540 572 LINE",
"622 572 LINE",
"622 700 LINE",
"540 700 LINE"
);
},
{
closed = 1;
nodes = (
"444 143 LINE",
"526 143 LINE",
"526 271 LINE",
"444 271 LINE"
);
},
{
closed = 1;
nodes = (
"540 143 LINE",
"622 143 LINE",
"622 271 LINE",
"540 271 LINE"
);
},
{
closed = 1;
nodes = (
"444 0 LINE",
"526 0 LINE",
"526 128 LINE",
"444 128 LINE"
);
},
{
closed = 1;
nodes = (
"540 0 LINE",
"622 0 LINE",
"622 128 LINE",
"540 128 LINE"
);
}
);
width = 682;
},
{
associatedMasterId = "3BA1B4B2-6ACF-4D2C-A9DD-A548EEBF9DB3";
layerId = "9C4ED923-9734-4E88-BE77-1A532CCEA567";
name = "Color 0";
paths = (
{
closed = 1;
nodes = (
"19 572 LINE",
"101 572 LINE",
"101 700 LINE",
"19 700 LINE"
);
},
{
closed = 1;
nodes = (
"19 429 LINE",
"101 429 LINE",
"101 557 LINE",
"19 557 LINE"
);
},
{
closed = 1;
nodes = (
"115 429 LINE",
"197 429 LINE",
"197 557 LINE",
"115 557 LINE"
);
},
{
closed = 1;
nodes = (
"19 286 LINE",
"101 286 LINE",
"101 414 LINE",
"19 414 LINE"
);
},
{
closed = 1;
nodes = (
"115 286 LINE",
"197 286 LINE",
"197 414 LINE",
"115 414 LINE"
);
},
{
closed = 1;
nodes = (
"19 143 LINE",
"101 143 LINE",
"101 271 LINE",
"19 271 LINE"
);
},
{
closed = 1;
nodes = (
"115 143 LINE",
"197 143 LINE",
"197 271 LINE",
"115 271 LINE"
);
},
{
closed = 1;
nodes = (
"19 0 LINE",
"101 0 LINE",
"101 128 LINE",
"19 128 LINE"
);
},
{
closed = 1;
nodes = (
"115 0 LINE",
"197 0 LINE",
"197 128 LINE",
"115 128 LINE"
);
},
{
closed = 1;
nodes = (
"211 286 LINE",
"293 286 LINE",
"293 414 LINE",
"211 414 LINE"
);
},
{
closed = 1;
nodes = (
"307 286 LINE",
"389 286 LINE",
"389 414 LINE",
"307 414 LINE"
);
},
{
closed = 1;
nodes = (
"403 286 LINE",
"485 286 LINE",
"485 414 LINE",
"403 414 LINE"
);
},
{
closed = 1;
nodes = (
"499 286 LINE",
"581 286 LINE",
"581 414 LINE",
"499 414 LINE"
);
},
{
closed = 1;
nodes = (
"403 429 LINE",
"485 429 LINE",
"485 557 LINE",
"403 557 LINE"
);
},
{
closed = 1;
nodes = (
"499 429 LINE",
"581 429 LINE",
"581 557 LINE",
"499 557 LINE"
);
},
{
closed = 1;
nodes = (
"499 572 LINE",
"581 572 LINE",
"581 700 LINE",
"499 700 LINE"
);
},
{
closed = 1;
nodes = (
"403 143 LINE",
"485 143 LINE",
"485 271 LINE",
"403 271 LINE"
);
},
{
closed = 1;
nodes = (
"499 143 LINE",
"581 143 LINE",
"581 271 LINE",
"499 271 LINE"
);
},
{
closed = 1;
nodes = (
"403 0 LINE",
"485 0 LINE",
"485 128 LINE",
"403 128 LINE"
);
},
{
closed = 1;
nodes = (
"499 0 LINE",
"581 0 LINE",
"581 128 LINE",
"499 128 LINE"
);
}
);
width = 682;
},
{
associatedMasterId = "3BA1B4B2-6ACF-4D2C-A9DD-A548EEBF9DB3";
layerId = "1F71F1F1-2E27-4093-B570-BFD4511CF07C";
name = "Color 1";
paths = (
{
closed = 1;
nodes = (
"407 290 LINE",
"481 290 LINE",
"481 410 LINE",
"407 410 LINE"
);
},
{
closed = 1;
nodes = (
"311 290 LINE",
"385 290 LINE",
"385 410 LINE",
"311 410 LINE"
);
},
{
closed = 1;
nodes = (
"215 290 LINE",
"289 290 LINE",
"289 410 LINE",
"215 410 LINE"
);
},
{
closed = 1;
nodes = (
"119 290 LINE",
"193 290 LINE",
"193 410 LINE",
"119 410 LINE"
);
}
);
width = 682;
},
{
associatedMasterId = "3BA1B4B2-6ACF-4D2C-A9DD-A548EEBF9DB3";
layerId = "DAFB2FEE-F16E-424F-88A3-BE9FEFAE8DD1";
name = "Color 2";
width = 682;
},
{
associatedMasterId = "3BA1B4B2-6ACF-4D2C-A9DD-A548EEBF9DB3";
layerId = "1261DC94-6153-4D2A-946F-6959BAF21CD8";
name = "Color 3";
width = 682;
},
{
associatedMasterId = "3BA1B4B2-6ACF-4D2C-A9DD-A548EEBF9DB3";
layerId = "720364E5-8308-44BE-AFAA-89F82F29BD33";
name = "Color 4";
paths = (
{
closed = 1;
nodes = (
"503 576 LINE",
"577 576 LINE",
"577 696 LINE",
"503 696 LINE"
);
},
{
closed = 1;
nodes = (
"503 433 LINE",
"577 433 LINE",
"577 553 LINE",
"503 553 LINE"
);
},
{
closed = 1;
nodes = (
"407 433 LINE",
"481 433 LINE",
"481 553 LINE",
"407 553 LINE"
);
},
{
closed = 1;
nodes = (
"503 290 LINE",
"577 290 LINE",
"577 410 LINE",
"503 410 LINE"
);
},
{
closed = 1;
nodes = (
"23 576 LINE",
"97 576 LINE",
"97 696 LINE",
"23 696 LINE"
);
},
{
closed = 1;
nodes = (
"23 433 LINE",
"97 433 LINE",
"97 553 LINE",
"23 553 LINE"
);
},
{
closed = 1;
nodes = (
"119 433 LINE",
"193 433 LINE",
"193 553 LINE",
"119 553 LINE"
);
},
{
closed = 1;
nodes = (
"23 290 LINE",
"97 290 LINE",
"97 410 LINE",
"23 410 LINE"
);
}
);
width = 682;
},
{
associatedMasterId = "3BA1B4B2-6ACF-4D2C-A9DD-A548EEBF9DB3";
layerId = "8DC963C3-0568-4854-B054-D35AA24A90ED";
name = "Color 5";
width = 682;
},
{
associatedMasterId = "3BA1B4B2-6ACF-4D2C-A9DD-A548EEBF9DB3";
layerId = "47CF6963-6066-4549-9E2F-C0A95711AC3F";
name = "Color 6";
width = 682;
},
{
associatedMasterId = "3BA1B4B2-6ACF-4D2C-A9DD-A548EEBF9DB3";
layerId = "47EF9C7C-CDA9-49F2-B885-68D29BC09DC7";
name = "Color 7";
paths = (
{
closed = 1;
nodes = (
"407 147 LINE",
"481 147 LINE",
"481 267 LINE",
"407 267 LINE"
);
},
{
closed = 1;
nodes = (
"503 147 LINE",
"577 147 LINE",
"577 267 LINE",
"503 267 LINE"
);
},
{
closed = 1;
nodes = (
"407 4 LINE",
"481 4 LINE",
"481 124 LINE",
"407 124 LINE"
);
},
{
closed = 1;
nodes = (
"503 4 LINE",
"577 4 LINE",
"577 124 LINE",
"503 124 LINE"
);
},
{
closed = 1;
nodes = (
"23 147 LINE",
"97 147 LINE",
"97 267 LINE",
"23 267 LINE"
);
},
{
closed = 1;
nodes = (
"119 147 LINE",
"193 147 LINE",
"193 267 LINE",
"119 267 LINE"
);
},
{
closed = 1;
nodes = (
"119 4 LINE",
"193 4 LINE",
"193 124 LINE",
"119 124 LINE"
);
},
{
closed = 1;
nodes = (
"23 0 LINE",
"97 0 LINE",
"97 124 LINE",
"23 124 LINE"
);
}
);
width = 682;
}
);
unicode = 004D;
},
{
glyphname = N;
lastChange = "2019-02-09 05:30:05 +0000";
layers = (
{
layerId = "3BA1B4B2-6ACF-4D2C-A9DD-A548EEBF9DB3";
paths = (
{
closed = 1;
nodes = (
"60 572 LINE",
"142 572 LINE",
"142 700 LINE",
"60 700 LINE"
);
},
{
closed = 1;
nodes = (
"156 572 LINE",
"238 572 LINE",
"238 700 LINE",
"156 700 LINE"
);
},
{
closed = 1;
nodes = (
"60 429 LINE",
"142 429 LINE",
"142 557 LINE",
"60 557 LINE"
);
},
{
closed = 1;
nodes = (
"156 429 LINE",
"238 429 LINE",
"238 557 LINE",
"156 557 LINE"
);
},
{
closed = 1;
nodes = (
"60 286 LINE",
"142 286 LINE",
"142 414 LINE",
"60 414 LINE"
);
},
{
closed = 1;
nodes = (
"156 286 LINE",
"238 286 LINE",
"238 414 LINE",
"156 414 LINE"
);
},
{
closed = 1;
nodes = (
"60 143 LINE",
"142 143 LINE",
"142 271 LINE",
"60 271 LINE"
);
},
{
closed = 1;
nodes = (
"156 143 LINE",
"238 143 LINE",
"238 271 LINE",
"156 271 LINE"
);
},
{
closed = 1;
nodes = (
"60 0 LINE",
"142 0 LINE",
"142 128 LINE",
"60 128 LINE"
);
},
{
closed = 1;
nodes = (
"156 0 LINE",
"238 0 LINE",
"238 128 LINE",
"156 128 LINE"
);
},
{
closed = 1;
nodes = (
"444 572 LINE",
"526 572 LINE",
"526 700 LINE",
"444 700 LINE"
);
},
{
closed = 1;
nodes = (
"540 572 LINE",
"622 572 LINE",
"622 700 LINE",
"540 700 LINE"
);
},
{
closed = 1;
nodes = (
"444 429 LINE",
"526 429 LINE",
"526 557 LINE",
"444 557 LINE"
);
},
{
closed = 1;
nodes = (
"540 429 LINE",
"622 429 LINE",
"622 557 LINE",
"540 557 LINE"
);
},
{
closed = 1;
nodes = (
"444 286 LINE",
"526 286 LINE",
"526 414 LINE",
"444 414 LINE"
);
},
{
closed = 1;
nodes = (
"540 286 LINE",
"622 286 LINE",
"622 414 LINE",
"540 414 LINE"
);
},
{
closed = 1;
nodes = (
"444 143 LINE",
"526 143 LINE",
"526 271 LINE",
"444 271 LINE"
);
},
{
closed = 1;
nodes = (
"540 143 LINE",
"622 143 LINE",
"622 271 LINE",
"540 271 LINE"
);
},
{
closed = 1;
nodes = (
"444 0 LINE",
"526 0 LINE",
"526 128 LINE",
"444 128 LINE"
);
},
{
closed = 1;
nodes = (
"540 0 LINE",
"622 0 LINE",
"622 128 LINE",
"540 128 LINE"
);
},
{
closed = 1;
nodes = (
"252 429 LINE",
"334 429 LINE",
"334 557 LINE",
"252 557 LINE"
);
},
{
closed = 1;
nodes = (
"252 286 LINE",
"334 286 LINE",
"334 414 LINE",
"252 414 LINE"
);
},
{
closed = 1;
nodes = (
"348 286 LINE",
"430 286 LINE",
"430 414 LINE",
"348 414 LINE"
);
},
{
closed = 1;
nodes = (
"348 143 LINE",
"430 143 LINE",
"430 271 LINE",
"348 271 LINE"
);
}
);
width = 682;
},
{
associatedMasterId = "3BA1B4B2-6ACF-4D2C-A9DD-A548EEBF9DB3";
layerId = "C3EA9F9F-49A0-43C5-8A25-115FA29926AF";
name = "Color 0";
paths = (
{
closed = 1;
nodes = (
"19 572 LINE",
"101 572 LINE",
"101 700 LINE",
"19 700 LINE"
);
},
{
closed = 1;
nodes = (
"115 572 LINE",
"197 572 LINE",
"197 700 LINE",
"115 700 LINE"
);
},
{
closed = 1;
nodes = (
"19 429 LINE",
"101 429 LINE",
"101 557 LINE",
"19 557 LINE"
);
},
{
closed = 1;
nodes = (
"115 429 LINE",
"197 429 LINE",
"197 557 LINE",
"115 557 LINE"
);
},
{
closed = 1;
nodes = (
"19 286 LINE",
"101 286 LINE",
"101 414 LINE",
"19 414 LINE"
);
},
{
closed = 1;
nodes = (
"115 286 LINE",
"197 286 LINE",
"197 414 LINE",
"115 414 LINE"
);
},
{
closed = 1;
nodes = (
"19 143 LINE",
"101 143 LINE",
"101 271 LINE",
"19 271 LINE"
);
},
{
closed = 1;
nodes = (
"115 143 LINE",
"197 143 LINE",
"197 271 LINE",
"115 271 LINE"
);
},
{
closed = 1;
nodes = (
"19 0 LINE",
"101 0 LINE",
"101 128 LINE",
"19 128 LINE"
);
},
{
closed = 1;
nodes = (
"115 0 LINE",
"197 0 LINE",
"197 128 LINE",
"115 128 LINE"
);
},
{
closed = 1;
nodes = (
"403 572 LINE",
"485 572 LINE",
"485 700 LINE",
"403 700 LINE"
);
},
{
closed = 1;
nodes = (
"499 572 LINE",
"581 572 LINE",
"581 700 LINE",
"499 700 LINE"
);
},
{
closed = 1;
nodes = (
"403 429 LINE",
"485 429 LINE",
"485 557 LINE",
"403 557 LINE"
);
},
{
closed = 1;
nodes = (
"499 429 LINE",
"581 429 LINE",
"581 557 LINE",
"499 557 LINE"
);
},
{
closed = 1;
nodes = (
"403 286 LINE",
"485 286 LINE",
"485 414 LINE",
"403 414 LINE"
);
},
{
closed = 1;
nodes = (
"499 286 LINE",
"581 286 LINE",
"581 414 LINE",
"499 414 LINE"
);
},
{
closed = 1;
nodes = (
"403 143 LINE",
"485 143 LINE",
"485 271 LINE",
"403 271 LINE"
);
},
{
closed = 1;
nodes = (
"499 143 LINE",
"581 143 LINE",
"581 271 LINE",
"499 271 LINE"
);
},
{
closed = 1;
nodes = (
"403 0 LINE",
"485 0 LINE",
"485 128 LINE",
"403 128 LINE"
);
},
{
closed = 1;
nodes = (
"499 0 LINE",
"581 0 LINE",
"581 128 LINE",
"499 128 LINE"
);
},
{
closed = 1;
nodes = (
"211 429 LINE",
"293 429 LINE",
"293 557 LINE",
"211 557 LINE"
);
},
{
closed = 1;
nodes = (
"211 286 LINE",
"293 286 LINE",
"293 414 LINE",
"211 414 LINE"
);
},
{
closed = 1;
nodes = (
"307 286 LINE",
"389 286 LINE",
"389 414 LINE",
"307 414 LINE"
);
},
{
closed = 1;
nodes = (
"307 143 LINE",
"389 143 LINE",
"389 271 LINE",
"307 271 LINE"
);
}
);
width = 682;
},
{
associatedMasterId = "3BA1B4B2-6ACF-4D2C-A9DD-A548EEBF9DB3";
layerId = "185EB959-AAF5-4BCC-B610-CCF48ED3B1B0";
name = "Color 1";
width = 682;
},
{
associatedMasterId = "3BA1B4B2-6ACF-4D2C-A9DD-A548EEBF9DB3";
layerId = "E20C6241-33FF-4E03-9B09-6373815C0468";
name = "Color 2";
paths = (
{
closed = 1;
nodes = (
"23 290 LINE",
"97 290 LINE",
"97 410 LINE",
"23 410 LINE"
);
},
{
closed = 1;
nodes = (
"119 290 LINE",
"193 290 LINE",
"193 410 LINE",
"119 410 LINE"
);
},
{
closed = 1;
nodes = (
"119 433 LINE",
"193 433 LINE",
"193 553 LINE",
"119 553 LINE"
);
},
{
closed = 1;
nodes = (
"119 576 LINE",
"193 576 LINE",
"193 696 LINE",
"119 696 LINE"
);
},
{
closed = 1;
nodes = (
"503 290 LINE",
"577 290 LINE",
"577 410 LINE",
"503 410 LINE"
);
},
{
closed = 1;
nodes = (
"407 290 LINE",
"481 290 LINE",
"481 410 LINE",
"407 410 LINE"
);
},
{
closed = 1;
nodes = (
"407 147 LINE",
"481 147 LINE",
"481 267 LINE",
"407 267 LINE"
);
},
{
closed = 1;
nodes = (
"407 4 LINE",
"481 4 LINE",
"481 124 LINE",
"407 124 LINE"
);
}
);
width = 682;
},
{
associatedMasterId = "3BA1B4B2-6ACF-4D2C-A9DD-A548EEBF9DB3";
layerId = "8BD77106-71B6-42D8-8D2E-E5AC0C2CAD0C";
name = "Color 3";
paths = (
{
closed = 1;
nodes = (
"215 433 LINE",
"289 433 LINE",
"289 553 LINE",
"215 553 LINE"
);
},
{
closed = 1;
nodes = (
"215 290 LINE",
"289 290 LINE",
"289 410 LINE",
"215 410 LINE"
);
},
{
closed = 1;
nodes = (
"311 290 LINE",
"385 290 LINE",
"385 410 LINE",
"311 410 LINE"
);
},
{
closed = 1;
nodes = (
"311 147 LINE",
"385 147 LINE",
"385 267 LINE",
"311 267 LINE"
);
}
);
width = 682;
},
{
associatedMasterId = "3BA1B4B2-6ACF-4D2C-A9DD-A548EEBF9DB3";
layerId = "E6CC5234-22DD-437A-AC57-8ED046EA28FD";
name = "Color 4";
paths = (
{
closed = 1;
nodes = (
"23 576 LINE",
"97 576 LINE",
"97 696 LINE",
"23 696 LINE"
);
},
{
closed = 1;
nodes = (
"23 433 LINE",
"97 433 LINE",
"97 553 LINE",
"23 553 LINE"
);
}
);
width = 682;
},
{
associatedMasterId = "3BA1B4B2-6ACF-4D2C-A9DD-A548EEBF9DB3";
layerId = "F1213D51-0644-4510-8260-13AC6934583E";
name = "Color 5";
paths = (
{
closed = 1;
nodes = (
"503 147 LINE",
"577 147 LINE",
"577 267 LINE",
"503 267 LINE"
);
},
{
closed = 1;
nodes = (
"503 4 LINE",
"577 4 LINE",
"577 124 LINE",
"503 124 LINE"
);
}
);
width = 682;
},
{
associatedMasterId = "3BA1B4B2-6ACF-4D2C-A9DD-A548EEBF9DB3";
layerId = "50A4BF04-3ECC-421C-B8CB-60F88B3541B6";
name = "Color 6";
width = 682;
},
{
associatedMasterId = "3BA1B4B2-6ACF-4D2C-A9DD-A548EEBF9DB3";
layerId = "7C47B432-70CA-4C5B-8774-CDD0E3D871E5";
name = "Color 7";
paths = (
{
closed = 1;
nodes = (
"23 147 LINE",
"97 147 LINE",
"97 267 LINE",
"23 267 LINE"
);
},
{
closed = 1;
nodes = (
"119 147 LINE",
"193 147 LINE",
"193 267 LINE",
"119 267 LINE"
);
},
{
closed = 1;
nodes = (
"23 4 LINE",
"97 4 LINE",
"97 124 LINE",
"23 124 LINE"
);
},
{
closed = 1;
nodes = (
"119 4 LINE",
"193 4 LINE",
"193 124 LINE",
"119 124 LINE"
);
},
{
closed = 1;
nodes = (
"407 576 LINE",
"481 576 LINE",
"481 696 LINE",
"407 696 LINE"
);
},
{
closed = 1;
nodes = (
"503 576 LINE",
"577 576 LINE",
"577 696 LINE",
"503 696 LINE"
);
},
{
closed = 1;
nodes = (
"407 433 LINE",
"481 433 LINE",
"481 553 LINE",
"407 553 LINE"
);
},
{
closed = 1;
nodes = (
"503 433 LINE",
"577 433 LINE",
"577 553 LINE",
"503 553 LINE"
);
}
);
width = 682;
}
);
unicode = 004E;
},
{
glyphname = O;
lastChange = "2019-02-09 05:30:05 +0000";
layers = (
{
layerId = "3BA1B4B2-6ACF-4D2C-A9DD-A548EEBF9DB3";
paths = (
{
closed = 1;
nodes = (
"156 572 LINE",
"238 572 LINE",
"238 700 LINE",
"156 700 LINE"
);
},
{
closed = 1;
nodes = (
"252 572 LINE",
"334 572 LINE",
"334 700 LINE",
"252 700 LINE"
);
},
{
closed = 1;
nodes = (
"348 572 LINE",
"430 572 LINE",
"430 700 LINE",
"348 700 LINE"
);
},
{
closed = 1;
nodes = (
"444 572 LINE",
"526 572 LINE",
"526 700 LINE",
"444 700 LINE"
);
},
{
closed = 1;
nodes = (
"60 429 LINE",
"142 429 LINE",
"142 557 LINE",
"60 557 LINE"
);
},
{
closed = 1;
nodes = (
"156 429 LINE",
"238 429 LINE",
"238 557 LINE",
"156 557 LINE"
);
},
{
closed = 1;
nodes = (
"444 429 LINE",
"526 429 LINE",
"526 557 LINE",
"444 557 LINE"
);
},
{
closed = 1;
nodes = (
"540 429 LINE",
"622 429 LINE",
"622 557 LINE",
"540 557 LINE"
);
},
{
closed = 1;
nodes = (
"60 286 LINE",
"142 286 LINE",
"142 414 LINE",
"60 414 LINE"
);
},
{
closed = 1;
nodes = (
"156 286 LINE",
"238 286 LINE",
"238 414 LINE",
"156 414 LINE"
);
},
{
closed = 1;
nodes = (
"444 286 LINE",
"526 286 LINE",
"526 414 LINE",
"444 414 LINE"
);
},
{
closed = 1;
nodes = (
"540 286 LINE",
"622 286 LINE",
"622 414 LINE",
"540 414 LINE"
);
},
{
closed = 1;
nodes = (
"60 143 LINE",
"142 143 LINE",
"142 271 LINE",
"60 271 LINE"
);
},
{
closed = 1;
nodes = (
"156 143 LINE",
"238 143 LINE",
"238 271 LINE",
"156 271 LINE"
);
},
{
closed = 1;
nodes = (
"444 143 LINE",
"526 143 LINE",
"526 271 LINE",
"444 271 LINE"
);
},
{
closed = 1;
nodes = (
"540 143 LINE",
"622 143 LINE",
"622 271 LINE",
"540 271 LINE"
);
},
{
closed = 1;
nodes = (
"156 0 LINE",
"238 0 LINE",
"238 128 LINE",
"156 128 LINE"
);
},
{
closed = 1;
nodes = (
"252 0 LINE",
"334 0 LINE",
"334 128 LINE",
"252 128 LINE"
);
},
{
closed = 1;
nodes = (
"348 0 LINE",
"430 0 LINE",
"430 128 LINE",
"348 128 LINE"
);
},
{
closed = 1;
nodes = (
"444 0 LINE",
"526 0 LINE",
"526 128 LINE",
"444 128 LINE"
);
}
);
width = 682;
},
{
associatedMasterId = "3BA1B4B2-6ACF-4D2C-A9DD-A548EEBF9DB3";
layerId = "E5844353-F654-4E95-AEE2-E6F891266A7F";
name = "Color 0";
paths = (
{
closed = 1;
nodes = (
"115 572 LINE",
"197 572 LINE",
"197 700 LINE",
"115 700 LINE"
);
},
{
closed = 1;
nodes = (
"211 572 LINE",
"293 572 LINE",
"293 700 LINE",
"211 700 LINE"
);
},
{
closed = 1;
nodes = (
"307 572 LINE",
"389 572 LINE",
"389 700 LINE",
"307 700 LINE"
);
},
{
closed = 1;
nodes = (
"403 572 LINE",
"485 572 LINE",
"485 700 LINE",
"403 700 LINE"
);
},
{
closed = 1;
nodes = (
"19 429 LINE",
"101 429 LINE",
"101 557 LINE",
"19 557 LINE"
);
},
{
closed = 1;
nodes = (
"115 429 LINE",
"197 429 LINE",
"197 557 LINE",
"115 557 LINE"
);
},
{
closed = 1;
nodes = (
"403 429 LINE",
"485 429 LINE",
"485 557 LINE",
"403 557 LINE"
);
},
{
closed = 1;
nodes = (
"499 429 LINE",
"581 429 LINE",
"581 557 LINE",
"499 557 LINE"
);
},
{
closed = 1;
nodes = (
"19 286 LINE",
"101 286 LINE",
"101 414 LINE",
"19 414 LINE"
);
},
{
closed = 1;
nodes = (
"115 286 LINE",
"197 286 LINE",
"197 414 LINE",
"115 414 LINE"
);
},
{
closed = 1;
nodes = (
"403 286 LINE",
"485 286 LINE",
"485 414 LINE",
"403 414 LINE"
);
},
{
closed = 1;
nodes = (
"499 286 LINE",
"581 286 LINE",
"581 414 LINE",
"499 414 LINE"
);
},
{
closed = 1;
nodes = (
"19 143 LINE",
"101 143 LINE",
"101 271 LINE",
"19 271 LINE"
);
},
{
closed = 1;
nodes = (
"115 143 LINE",
"197 143 LINE",
"197 271 LINE",
"115 271 LINE"
);
},
{
closed = 1;
nodes = (
"403 143 LINE",
"485 143 LINE",
"485 271 LINE",
"403 271 LINE"
);
},
{
closed = 1;
nodes = (
"499 143 LINE",
"581 143 LINE",
"581 271 LINE",
"499 271 LINE"
);
},
{
closed = 1;
nodes = (
"115 0 LINE",
"197 0 LINE",
"197 128 LINE",
"115 128 LINE"
);
},
{
closed = 1;
nodes = (
"211 0 LINE",
"293 0 LINE",
"293 128 LINE",
"211 128 LINE"
);
},
{
closed = 1;
nodes = (
"307 0 LINE",
"389 0 LINE",
"389 128 LINE",
"307 128 LINE"
);
},
{
closed = 1;
nodes = (
"403 0 LINE",
"485 0 LINE",
"485 128 LINE",
"403 128 LINE"
);
}
);
width = 682;
},
{
associatedMasterId = "3BA1B4B2-6ACF-4D2C-A9DD-A548EEBF9DB3";
layerId = "FE51AF41-053C-4108-9C83-91E3E1C2C3B2";
name = "Color 1";
width = 682;
},
{
associatedMasterId = "3BA1B4B2-6ACF-4D2C-A9DD-A548EEBF9DB3";
layerId = "2F0687E6-1C62-4AEA-98F8-21FF66FA94B2";
name = "Color 2";
paths = (
{
closed = 1;
nodes = (
"215 576 LINE",
"289 576 LINE",
"289 696 LINE",
"215 696 LINE"
);
},
{
closed = 1;
nodes = (
"311 576 LINE",
"385 576 LINE",
"385 696 LINE",
"311 696 LINE"
);
},
{
closed = 1;
nodes = (
"407 576 LINE",
"481 576 LINE",
"481 696 LINE",
"407 696 LINE"
);
},
{
closed = 1;
nodes = (
"407 433 LINE",
"481 433 LINE",
"481 553 LINE",
"407 553 LINE"
);
}
);
width = 682;
},
{
associatedMasterId = "3BA1B4B2-6ACF-4D2C-A9DD-A548EEBF9DB3";
layerId = "9EE2E921-3EDA-431A-9295-D93C3090C77B";
name = "Color 3";
width = 682;
},
{
associatedMasterId = "3BA1B4B2-6ACF-4D2C-A9DD-A548EEBF9DB3";
layerId = "A395A6CE-3930-4F02-A632-F505A9CDF3D5";
name = "Color 4";
paths = (
{
closed = 1;
nodes = (
"407 290 LINE",
"481 290 LINE",
"481 410 LINE",
"407 410 LINE"
);
},
{
closed = 1;
nodes = (
"503 433 LINE",
"577 433 LINE",
"577 553 LINE",
"503 553 LINE"
);
},
{
closed = 1;
nodes = (
"503 290 LINE",
"577 290 LINE",
"577 410 LINE",
"503 410 LINE"
);
},
{
closed = 1;
nodes = (
"503 147 LINE",
"577 147 LINE",
"577 267 LINE",
"503 267 LINE"
);
},
{
closed = 1;
nodes = (
"119 4 LINE",
"193 4 LINE",
"193 124 LINE",
"119 124 LINE"
);
},
{
closed = 1;
nodes = (
"23 147 LINE",
"97 147 LINE",
"97 267 LINE",
"23 267 LINE"
);
},
{
closed = 1;
nodes = (
"119 147 LINE",
"193 147 LINE",
"193 267 LINE",
"119 267 LINE"
);
},
{
closed = 1;
nodes = (
"119 290 LINE",
"193 290 LINE",
"193 410 LINE",
"119 410 LINE"
);
}
);
width = 682;
},
{
associatedMasterId = "3BA1B4B2-6ACF-4D2C-A9DD-A548EEBF9DB3";
layerId = "224ADD3E-CBCD-42FD-AFB6-CD50CA7B31F9";
name = "Color 5";
paths = (
{
closed = 1;
nodes = (
"23 290 LINE",
"97 290 LINE",
"97 410 LINE",
"23 410 LINE"
);
},
{
closed = 1;
nodes = (
"23 433 LINE",
"97 433 LINE",
"97 553 LINE",
"23 553 LINE"
);
},
{
closed = 1;
nodes = (
"119 433 LINE",
"193 433 LINE",
"193 553 LINE",
"119 553 LINE"
);
},
{
closed = 1;
nodes = (
"119 576 LINE",
"193 576 LINE",
"193 696 LINE",
"119 696 LINE"
);
}
);
width = 682;
},
{
associatedMasterId = "3BA1B4B2-6ACF-4D2C-A9DD-A548EEBF9DB3";
layerId = "146B7462-88CA-45B4-A7D6-9E1B73138694";
name = "Color 6";
paths = (
{
closed = 1;
nodes = (
"215 4 LINE",
"289 4 LINE",
"289 124 LINE",
"215 124 LINE"
);
},
{
closed = 1;
nodes = (
"311 4 LINE",
"385 4 LINE",
"385 124 LINE",
"311 124 LINE"
);
},
{
closed = 1;
nodes = (
"407 4 LINE",
"481 4 LINE",
"481 124 LINE",
"407 124 LINE"
);
},
{
closed = 1;
nodes = (
"407 147 LINE",
"481 147 LINE",
"481 267 LINE",
"407 267 LINE"
);
}
);
width = 682;
},
{
associatedMasterId = "3BA1B4B2-6ACF-4D2C-A9DD-A548EEBF9DB3";
layerId = "4A2B2770-353C-4F94-8387-EA724CE2D8C3";
name = "Color 7";
width = 682;
}
);
unicode = 004F;
},
{
glyphname = P;
lastChange = "2019-02-09 05:30:05 +0000";
layers = (
{
layerId = "3BA1B4B2-6ACF-4D2C-A9DD-A548EEBF9DB3";
paths = (
{
closed = 1;
nodes = (
"60 572 LINE",
"142 572 LINE",
"142 700 LINE",
"60 700 LINE"
);
},
{
closed = 1;
nodes = (
"156 572 LINE",
"238 572 LINE",
"238 700 LINE",
"156 700 LINE"
);
},
{
closed = 1;
nodes = (
"252 572 LINE",
"334 572 LINE",
"334 700 LINE",
"252 700 LINE"
);
},
{
closed = 1;
nodes = (
"348 572 LINE",
"430 572 LINE",
"430 700 LINE",
"348 700 LINE"
);
},
{
closed = 1;
nodes = (
"444 572 LINE",
"526 572 LINE",
"526 700 LINE",
"444 700 LINE"
);
},
{
closed = 1;
nodes = (
"444 429 LINE",
"526 429 LINE",
"526 557 LINE",
"444 557 LINE"
);
},
{
closed = 1;
nodes = (
"540 429 LINE",
"622 429 LINE",
"622 557 LINE",
"540 557 LINE"
);
},
{
closed = 1;
nodes = (
"60 429 LINE",
"142 429 LINE",
"142 557 LINE",
"60 557 LINE"
);
},
{
closed = 1;
nodes = (
"156 429 LINE",
"238 429 LINE",
"238 557 LINE",
"156 557 LINE"
);
},
{
closed = 1;
nodes = (
"60 286 LINE",
"142 286 LINE",
"142 414 LINE",
"60 414 LINE"
);
},
{
closed = 1;
nodes = (
"156 286 LINE",
"238 286 LINE",
"238 414 LINE",
"156 414 LINE"
);
},
{
closed = 1;
nodes = (
"252 286 LINE",
"334 286 LINE",
"334 414 LINE",
"252 414 LINE"
);
},
{
closed = 1;
nodes = (
"348 286 LINE",
"430 286 LINE",
"430 414 LINE",
"348 414 LINE"
);
},
{
closed = 1;
nodes = (
"444 286 LINE",
"526 286 LINE",
"526 414 LINE",
"444 414 LINE"
);
},
{
closed = 1;
nodes = (
"60 143 LINE",
"142 143 LINE",
"142 271 LINE",
"60 271 LINE"
);
},
{
closed = 1;
nodes = (
"156 143 LINE",
"238 143 LINE",
"238 271 LINE",
"156 271 LINE"
);
},
{
closed = 1;
nodes = (
"60 0 LINE",
"142 0 LINE",
"142 128 LINE",
"60 128 LINE"
);
},
{
closed = 1;
nodes = (
"156 0 LINE",
"238 0 LINE",
"238 128 LINE",
"156 128 LINE"
);
}
);
width = 682;
},
{
associatedMasterId = "3BA1B4B2-6ACF-4D2C-A9DD-A548EEBF9DB3";
layerId = "CF1DE637-3EE8-4EEF-973E-32AA7387E445";
name = "Color 0";
paths = (
{
closed = 1;
nodes = (
"19 572 LINE",
"101 572 LINE",
"101 700 LINE",
"19 700 LINE"
);
},
{
closed = 1;
nodes = (
"115 572 LINE",
"197 572 LINE",
"197 700 LINE",
"115 700 LINE"
);
},
{
closed = 1;
nodes = (
"211 572 LINE",
"293 572 LINE",
"293 700 LINE",
"211 700 LINE"
);
},
{
closed = 1;
nodes = (
"307 572 LINE",
"389 572 LINE",
"389 700 LINE",
"307 700 LINE"
);
},
{
closed = 1;
nodes = (
"403 572 LINE",
"485 572 LINE",
"485 700 LINE",
"403 700 LINE"
);
},
{
closed = 1;
nodes = (
"403 429 LINE",
"485 429 LINE",
"485 557 LINE",
"403 557 LINE"
);
},
{
closed = 1;
nodes = (
"499 429 LINE",
"581 429 LINE",
"581 557 LINE",
"499 557 LINE"
);
},
{
closed = 1;
nodes = (
"19 429 LINE",
"101 429 LINE",
"101 557 LINE",
"19 557 LINE"
);
},
{
closed = 1;
nodes = (
"115 429 LINE",
"197 429 LINE",
"197 557 LINE",
"115 557 LINE"
);
},
{
closed = 1;
nodes = (
"19 286 LINE",
"101 286 LINE",
"101 414 LINE",
"19 414 LINE"
);
},
{
closed = 1;
nodes = (
"115 286 LINE",
"197 286 LINE",
"197 414 LINE",
"115 414 LINE"
);
},
{
closed = 1;
nodes = (
"211 286 LINE",
"293 286 LINE",
"293 414 LINE",
"211 414 LINE"
);
},
{
closed = 1;
nodes = (
"307 286 LINE",
"389 286 LINE",
"389 414 LINE",
"307 414 LINE"
);
},
{
closed = 1;
nodes = (
"403 286 LINE",
"485 286 LINE",
"485 414 LINE",
"403 414 LINE"
);
},
{
closed = 1;
nodes = (
"19 143 LINE",
"101 143 LINE",
"101 271 LINE",
"19 271 LINE"
);
},
{
closed = 1;
nodes = (
"115 143 LINE",
"197 143 LINE",
"197 271 LINE",
"115 271 LINE"
);
},
{
closed = 1;
nodes = (
"19 0 LINE",
"101 0 LINE",
"101 128 LINE",
"19 128 LINE"
);
},
{
closed = 1;
nodes = (
"115 0 LINE",
"197 0 LINE",
"197 128 LINE",
"115 128 LINE"
);
}
);
width = 682;
},
{
associatedMasterId = "3BA1B4B2-6ACF-4D2C-A9DD-A548EEBF9DB3";
layerId = "411D8DA6-96FB-49F0-8717-D464C81BD09E";
name = "Color 1";
paths = (
{
closed = 1;
nodes = (
"119 576 LINE",
"193 576 LINE",
"193 696 LINE",
"119 696 LINE"
);
},
{
closed = 1;
nodes = (
"215 576 LINE",
"289 576 LINE",
"289 696 LINE",
"215 696 LINE"
);
},
{
closed = 1;
nodes = (
"311 576 LINE",
"385 576 LINE",
"385 696 LINE",
"311 696 LINE"
);
},
{
closed = 1;
nodes = (
"407 576 LINE",
"481 576 LINE",
"481 696 LINE",
"407 696 LINE"
);
}
);
width = 682;
},
{
associatedMasterId = "3BA1B4B2-6ACF-4D2C-A9DD-A548EEBF9DB3";
layerId = "0590C92E-52D1-4EB5-A8C9-BA4E4BC97D8A";
name = "Color 2";
paths = (
{
closed = 1;
nodes = (
"215 290 LINE",
"289 290 LINE",
"289 410 LINE",
"215 410 LINE"
);
},
{
closed = 1;
nodes = (
"119 0 LINE",
"193 0 LINE",
"193 124 LINE",
"119 124 LINE"
);
}
);
width = 682;
},
{
associatedMasterId = "3BA1B4B2-6ACF-4D2C-A9DD-A548EEBF9DB3";
layerId = "653C97DC-0487-4065-82DA-D75636B10FA3";
name = "Color 3";
paths = (
{
closed = 1;
nodes = (
"503 433 LINE",
"577 433 LINE",
"577 553 LINE",
"503 553 LINE"
);
},
{
closed = 1;
nodes = (
"407 433 LINE",
"481 433 LINE",
"481 553 LINE",
"407 553 LINE"
);
},
{
closed = 1;
nodes = (
"407 290 LINE",
"481 290 LINE",
"481 410 LINE",
"407 410 LINE"
);
},
{
closed = 1;
nodes = (
"311 290 LINE",
"385 290 LINE",
"385 410 LINE",
"311 410 LINE"
);
}
);
width = 682;
},
{
associatedMasterId = "3BA1B4B2-6ACF-4D2C-A9DD-A548EEBF9DB3";
layerId = "D36C9DCF-4C3F-41E1-A970-2576882FC12D";
name = "Color 4";
paths = (
{
closed = 1;
nodes = (
"23 576 LINE",
"97 576 LINE",
"97 696 LINE",
"23 696 LINE"
);
},
{
closed = 1;
nodes = (
"23 433 LINE",
"97 433 LINE",
"97 553 LINE",
"23 553 LINE"
);
},
{
closed = 1;
nodes = (
"119 433 LINE",
"193 433 LINE",
"193 553 LINE",
"119 553 LINE"
);
},
{
closed = 1;
nodes = (
"23 290 LINE",
"97 290 LINE",
"97 410 LINE",
"23 410 LINE"
);
}
);
width = 682;
},
{
associatedMasterId = "3BA1B4B2-6ACF-4D2C-A9DD-A548EEBF9DB3";
layerId = "0A6195A9-7286-473C-8106-89EE5D4A7C41";
name = "Color 5";
paths = (
{
closed = 1;
nodes = (
"119 290 LINE",
"193 290 LINE",
"193 410 LINE",
"119 410 LINE"
);
},
{
closed = 1;
nodes = (
"119 147 LINE",
"193 147 LINE",
"193 267 LINE",
"119 267 LINE"
);
},
{
closed = 1;
nodes = (
"23 147 LINE",
"97 147 LINE",
"97 267 LINE",
"23 267 LINE"
);
},
{
closed = 1;
nodes = (
"23 4 LINE",
"97 4 LINE",
"97 124 LINE",
"23 124 LINE"
);
}
);
width = 682;
},
{
associatedMasterId = "3BA1B4B2-6ACF-4D2C-A9DD-A548EEBF9DB3";
layerId = "BA29C482-1016-454C-AC74-B8F8E279827B";
name = "Color 6";
width = 682;
},
{
associatedMasterId = "3BA1B4B2-6ACF-4D2C-A9DD-A548EEBF9DB3";
layerId = "D2C31695-6AE0-4ED9-BE4B-632DD3D9F84F";
name = "Color 7";
width = 682;
}
);
unicode = 0050;
},
{
glyphname = Q;
lastChange = "2019-02-09 05:30:05 +0000";
layers = (
{
layerId = "3BA1B4B2-6ACF-4D2C-A9DD-A548EEBF9DB3";
paths = (
{
closed = 1;
nodes = (
"60 429 LINE",
"142 429 LINE",
"142 557 LINE",
"60 557 LINE"
);
},
{
closed = 1;
nodes = (
"156 429 LINE",
"238 429 LINE",
"238 557 LINE",
"156 557 LINE"
);
},
{
closed = 1;
nodes = (
"156 572 LINE",
"238 572 LINE",
"238 700 LINE",
"156 700 LINE"
);
},
{
closed = 1;
nodes = (
"252 572 LINE",
"334 572 LINE",
"334 700 LINE",
"252 700 LINE"
);
},
{
closed = 1;
nodes = (
"348 572 LINE",
"430 572 LINE",
"430 700 LINE",
"348 700 LINE"
);
},
{
closed = 1;
nodes = (
"444 572 LINE",
"526 572 LINE",
"526 700 LINE",
"444 700 LINE"
);
},
{
closed = 1;
nodes = (
"540 572 LINE",
"622 572 LINE",
"622 700 LINE",
"540 700 LINE"
);
},
{
closed = 1;
nodes = (
"156 286 LINE",
"238 286 LINE",
"238 414 LINE",
"156 414 LINE"
);
},
{
closed = 1;
nodes = (
"252 286 LINE",
"334 286 LINE",
"334 414 LINE",
"252 414 LINE"
);
},
{
closed = 1;
nodes = (
"348 286 LINE",
"430 286 LINE",
"430 414 LINE",
"348 414 LINE"
);
},
{
closed = 1;
nodes = (
"444 286 LINE",
"526 286 LINE",
"526 414 LINE",
"444 414 LINE"
);
},
{
closed = 1;
nodes = (
"540 286 LINE",
"622 286 LINE",
"622 414 LINE",
"540 414 LINE"
);
},
{
closed = 1;
nodes = (
"444 429 LINE",
"526 429 LINE",
"526 557 LINE",
"444 557 LINE"
);
},
{
closed = 1;
nodes = (
"540 429 LINE",
"622 429 LINE",
"622 557 LINE",
"540 557 LINE"
);
},
{
closed = 1;
nodes = (
"444 143 LINE",
"526 143 LINE",
"526 271 LINE",
"444 271 LINE"
);
},
{
closed = 1;
nodes = (
"540 143 LINE",
"622 143 LINE",
"622 271 LINE",
"540 271 LINE"
);
},
{
closed = 1;
nodes = (
"444 0 LINE",
"526 0 LINE",
"526 128 LINE",
"444 128 LINE"
);
},
{
closed = 1;
nodes = (
"540 0 LINE",
"622 0 LINE",
"622 128 LINE",
"540 128 LINE"
);
}
);
width = 682;
},
{
associatedMasterId = "3BA1B4B2-6ACF-4D2C-A9DD-A548EEBF9DB3";
layerId = "1118CB2B-ADB7-480A-B837-EEC818F0A663";
name = "Color 0";
paths = (
{
closed = 1;
nodes = (
"19 429 LINE",
"101 429 LINE",
"101 557 LINE",
"19 557 LINE"
);
},
{
closed = 1;
nodes = (
"115 429 LINE",
"197 429 LINE",
"197 557 LINE",
"115 557 LINE"
);
},
{
closed = 1;
nodes = (
"115 572 LINE",
"197 572 LINE",
"197 700 LINE",
"115 700 LINE"
);
},
{
closed = 1;
nodes = (
"211 572 LINE",
"293 572 LINE",
"293 700 LINE",
"211 700 LINE"
);
},
{
closed = 1;
nodes = (
"307 572 LINE",
"389 572 LINE",
"389 700 LINE",
"307 700 LINE"
);
},
{
closed = 1;
nodes = (
"403 572 LINE",
"485 572 LINE",
"485 700 LINE",
"403 700 LINE"
);
},
{
closed = 1;
nodes = (
"499 572 LINE",
"581 572 LINE",
"581 700 LINE",
"499 700 LINE"
);
},
{
closed = 1;
nodes = (
"115 286 LINE",
"197 286 LINE",
"197 414 LINE",
"115 414 LINE"
);
},
{
closed = 1;
nodes = (
"211 286 LINE",
"293 286 LINE",
"293 414 LINE",
"211 414 LINE"
);
},
{
closed = 1;
nodes = (
"307 286 LINE",
"389 286 LINE",
"389 414 LINE",
"307 414 LINE"
);
},
{
closed = 1;
nodes = (
"403 286 LINE",
"485 286 LINE",
"485 414 LINE",
"403 414 LINE"
);
},
{
closed = 1;
nodes = (
"499 286 LINE",
"581 286 LINE",
"581 414 LINE",
"499 414 LINE"
);
},
{
closed = 1;
nodes = (
"403 429 LINE",
"485 429 LINE",
"485 557 LINE",
"403 557 LINE"
);
},
{
closed = 1;
nodes = (
"499 429 LINE",
"581 429 LINE",
"581 557 LINE",
"499 557 LINE"
);
},
{
closed = 1;
nodes = (
"403 143 LINE",
"485 143 LINE",
"485 271 LINE",
"403 271 LINE"
);
},
{
closed = 1;
nodes = (
"499 143 LINE",
"581 143 LINE",
"581 271 LINE",
"499 271 LINE"
);
},
{
closed = 1;
nodes = (
"403 0 LINE",
"485 0 LINE",
"485 128 LINE",
"403 128 LINE"
);
},
{
closed = 1;
nodes = (
"499 0 LINE",
"581 0 LINE",
"581 128 LINE",
"499 128 LINE"
);
}
);
width = 682;
},
{
associatedMasterId = "3BA1B4B2-6ACF-4D2C-A9DD-A548EEBF9DB3";
layerId = "3752B86E-6268-4237-BC5A-D2944A44C134";
name = "Color 1";
paths = (
{
closed = 1;
nodes = (
"119 576 LINE",
"193 576 LINE",
"193 696 LINE",
"119 696 LINE"
);
},
{
closed = 1;
nodes = (
"215 576 LINE",
"289 576 LINE",
"289 696 LINE",
"215 696 LINE"
);
},
{
closed = 1;
nodes = (
"311 576 LINE",
"385 576 LINE",
"385 696 LINE",
"311 696 LINE"
);
},
{
closed = 1;
nodes = (
"407 576 LINE",
"481 576 LINE",
"481 696 LINE",
"407 696 LINE"
);
}
);
width = 682;
},
{
associatedMasterId = "3BA1B4B2-6ACF-4D2C-A9DD-A548EEBF9DB3";
layerId = "6EE8A460-6C35-4497-A4D9-22B92D1A3CCA";
name = "Color 2";
paths = (
{
closed = 1;
nodes = (
"407 4 LINE",
"481 4 LINE",
"481 124 LINE",
"407 124 LINE"
);
},
{
closed = 1;
nodes = (
"503 4 LINE",
"577 4 LINE",
"577 124 LINE",
"503 124 LINE"
);
},
{
closed = 1;
nodes = (
"503 147 LINE",
"577 147 LINE",
"577 267 LINE",
"503 267 LINE"
);
},
{
closed = 1;
nodes = (
"503 290 LINE",
"577 290 LINE",
"577 410 LINE",
"503 410 LINE"
);
}
);
width = 682;
},
{
associatedMasterId = "3BA1B4B2-6ACF-4D2C-A9DD-A548EEBF9DB3";
layerId = "C4B4B812-E8C0-4649-B65E-ED9265C91D77";
name = "Color 3";
paths = (
{
closed = 1;
nodes = (
"503 576 LINE",
"577 576 LINE",
"577 696 LINE",
"503 696 LINE"
);
},
{
closed = 1;
nodes = (
"503 433 LINE",
"577 433 LINE",
"577 553 LINE",
"503 553 LINE"
);
}
);
width = 682;
},
{
associatedMasterId = "3BA1B4B2-6ACF-4D2C-A9DD-A548EEBF9DB3";
layerId = "A2AC1243-981E-4B99-9AC1-F3F8C10E0575";
name = "Color 4";
paths = (
{
closed = 1;
nodes = (
"407 433 LINE",
"481 433 LINE",
"481 553 LINE",
"407 553 LINE"
);
},
{
closed = 1;
nodes = (
"407 290 LINE",
"481 290 LINE",
"481 410 LINE",
"407 410 LINE"
);
},
{
closed = 1;
nodes = (
"311 290 LINE",
"385 290 LINE",
"385 410 LINE",
"311 410 LINE"
);
},
{
closed = 1;
nodes = (
"407 147 LINE",
"481 147 LINE",
"481 267 LINE",
"407 267 LINE"
);
}
);
width = 682;
},
{
associatedMasterId = "3BA1B4B2-6ACF-4D2C-A9DD-A548EEBF9DB3";
layerId = "A5FCD8B0-0B86-480A-8ACC-1F6CF1FB6C91";
name = "Color 5";
paths = (
{
closed = 1;
nodes = (
"23 433 LINE",
"97 433 LINE",
"97 553 LINE",
"23 553 LINE"
);
},
{
closed = 1;
nodes = (
"119 433 LINE",
"193 433 LINE",
"193 553 LINE",
"119 553 LINE"
);
},
{
closed = 1;
nodes = (
"119 290 LINE",
"193 290 LINE",
"193 410 LINE",
"119 410 LINE"
);
},
{
closed = 1;
nodes = (
"215 290 LINE",
"289 290 LINE",
"289 410 LINE",
"215 410 LINE"
);
}
);
width = 682;
},
{
associatedMasterId = "3BA1B4B2-6ACF-4D2C-A9DD-A548EEBF9DB3";
layerId = "0D493957-D1FC-4145-9043-108D3632D782";
name = "Color 6";
width = 682;
},
{
associatedMasterId = "3BA1B4B2-6ACF-4D2C-A9DD-A548EEBF9DB3";
layerId = "C8DE9F2F-5444-45FF-9203-67A6BD745A02";
name = "Color 7";
width = 682;
}
);
unicode = 0051;
},
{
glyphname = R;
lastChange = "2019-02-09 05:30:05 +0000";
layers = (
{
layerId = "3BA1B4B2-6ACF-4D2C-A9DD-A548EEBF9DB3";
paths = (
{
closed = 1;
nodes = (
"60 572 LINE",
"142 572 LINE",
"142 700 LINE",
"60 700 LINE"
);
},
{
closed = 1;
nodes = (
"156 572 LINE",
"238 572 LINE",
"238 700 LINE",
"156 700 LINE"
);
},
{
closed = 1;
nodes = (
"60 429 LINE",
"142 429 LINE",
"142 557 LINE",
"60 557 LINE"
);
},
{
closed = 1;
nodes = (
"156 429 LINE",
"238 429 LINE",
"238 557 LINE",
"156 557 LINE"
);
},
{
closed = 1;
nodes = (
"60 286 LINE",
"142 286 LINE",
"142 414 LINE",
"60 414 LINE"
);
},
{
closed = 1;
nodes = (
"156 286 LINE",
"238 286 LINE",
"238 414 LINE",
"156 414 LINE"
);
},
{
closed = 1;
nodes = (
"60 143 LINE",
"142 143 LINE",
"142 271 LINE",
"60 271 LINE"
);
},
{
closed = 1;
nodes = (
"156 143 LINE",
"238 143 LINE",
"238 271 LINE",
"156 271 LINE"
);
},
{
closed = 1;
nodes = (
"60 0 LINE",
"142 0 LINE",
"142 128 LINE",
"60 128 LINE"
);
},
{
closed = 1;
nodes = (
"156 0 LINE",
"238 0 LINE",
"238 128 LINE",
"156 128 LINE"
);
},
{
closed = 1;
nodes = (
"252 572 LINE",
"334 572 LINE",
"334 700 LINE",
"252 700 LINE"
);
},
{
closed = 1;
nodes = (
"348 572 LINE",
"430 572 LINE",
"430 700 LINE",
"348 700 LINE"
);
},
{
closed = 1;
nodes = (
"444 572 LINE",
"526 572 LINE",
"526 700 LINE",
"444 700 LINE"
);
},
{
closed = 1;
nodes = (
"444 429 LINE",
"526 429 LINE",
"526 557 LINE",
"444 557 LINE"
);
},
{
closed = 1;
nodes = (
"540 429 LINE",
"622 429 LINE",
"622 557 LINE",
"540 557 LINE"
);
},
{
closed = 1;
nodes = (
"444 286 LINE",
"526 286 LINE",
"526 414 LINE",
"444 414 LINE"
);
},
{
closed = 1;
nodes = (
"348 286 LINE",
"430 286 LINE",
"430 414 LINE",
"348 414 LINE"
);
},
{
closed = 1;
nodes = (
"252 286 LINE",
"334 286 LINE",
"334 414 LINE",
"252 414 LINE"
);
},
{
closed = 1;
nodes = (
"444 143 LINE",
"526 143 LINE",
"526 271 LINE",
"444 271 LINE"
);
},
{
closed = 1;
nodes = (
"540 143 LINE",
"622 143 LINE",
"622 271 LINE",
"540 271 LINE"
);
},
{
closed = 1;
nodes = (
"444 0 LINE",
"526 0 LINE",
"526 128 LINE",
"444 128 LINE"
);
},
{
closed = 1;
nodes = (
"540 0 LINE",
"622 0 LINE",
"622 128 LINE",
"540 128 LINE"
);
}
);
width = 682;
},
{
associatedMasterId = "3BA1B4B2-6ACF-4D2C-A9DD-A548EEBF9DB3";
layerId = "82B023F3-45C3-4DE2-8FF9-662A72A00EB0";
name = "Color 0";
paths = (
{
closed = 1;
nodes = (
"19 572 LINE",
"101 572 LINE",
"101 700 LINE",
"19 700 LINE"
);
},
{
closed = 1;
nodes = (
"115 572 LINE",
"197 572 LINE",
"197 700 LINE",
"115 700 LINE"
);
},
{
closed = 1;
nodes = (
"19 429 LINE",
"101 429 LINE",
"101 557 LINE",
"19 557 LINE"
);
},
{
closed = 1;
nodes = (
"115 429 LINE",
"197 429 LINE",
"197 557 LINE",
"115 557 LINE"
);
},
{
closed = 1;
nodes = (
"19 286 LINE",
"101 286 LINE",
"101 414 LINE",
"19 414 LINE"
);
},
{
closed = 1;
nodes = (
"115 286 LINE",
"197 286 LINE",
"197 414 LINE",
"115 414 LINE"
);
},
{
closed = 1;
nodes = (
"19 143 LINE",
"101 143 LINE",
"101 271 LINE",
"19 271 LINE"
);
},
{
closed = 1;
nodes = (
"115 143 LINE",
"197 143 LINE",
"197 271 LINE",
"115 271 LINE"
);
},
{
closed = 1;
nodes = (
"19 0 LINE",
"101 0 LINE",
"101 128 LINE",
"19 128 LINE"
);
},
{
closed = 1;
nodes = (
"115 0 LINE",
"197 0 LINE",
"197 128 LINE",
"115 128 LINE"
);
},
{
closed = 1;
nodes = (
"211 572 LINE",
"293 572 LINE",
"293 700 LINE",
"211 700 LINE"
);
},
{
closed = 1;
nodes = (
"307 572 LINE",
"389 572 LINE",
"389 700 LINE",
"307 700 LINE"
);
},
{
closed = 1;
nodes = (
"403 572 LINE",
"485 572 LINE",
"485 700 LINE",
"403 700 LINE"
);
},
{
closed = 1;
nodes = (
"403 429 LINE",
"485 429 LINE",
"485 557 LINE",
"403 557 LINE"
);
},
{
closed = 1;
nodes = (
"499 429 LINE",
"581 429 LINE",
"581 557 LINE",
"499 557 LINE"
);
},
{
closed = 1;
nodes = (
"403 286 LINE",
"485 286 LINE",
"485 414 LINE",
"403 414 LINE"
);
},
{
closed = 1;
nodes = (
"307 286 LINE",
"389 286 LINE",
"389 414 LINE",
"307 414 LINE"
);
},
{
closed = 1;
nodes = (
"211 286 LINE",
"293 286 LINE",
"293 414 LINE",
"211 414 LINE"
);
},
{
closed = 1;
nodes = (
"403 143 LINE",
"485 143 LINE",
"485 271 LINE",
"403 271 LINE"
);
},
{
closed = 1;
nodes = (
"499 143 LINE",
"581 143 LINE",
"581 271 LINE",
"499 271 LINE"
);
},
{
closed = 1;
nodes = (
"403 0 LINE",
"485 0 LINE",
"485 128 LINE",
"403 128 LINE"
);
},
{
closed = 1;
nodes = (
"499 0 LINE",
"581 0 LINE",
"581 128 LINE",
"499 128 LINE"
);
}
);
width = 682;
},
{
associatedMasterId = "3BA1B4B2-6ACF-4D2C-A9DD-A548EEBF9DB3";
layerId = "D974F3FE-4C44-440C-B2C2-1C1B2DA58FC0";
name = "Color 1";
paths = (
{
closed = 1;
nodes = (
"119 576 LINE",
"193 576 LINE",
"193 696 LINE",
"119 696 LINE"
);
},
{
closed = 1;
nodes = (
"215 576 LINE",
"289 576 LINE",
"289 696 LINE",
"215 696 LINE"
);
},
{
closed = 1;
nodes = (
"311 576 LINE",
"385 576 LINE",
"385 696 LINE",
"311 696 LINE"
);
},
{
closed = 1;
nodes = (
"407 576 LINE",
"481 576 LINE",
"481 696 LINE",
"407 696 LINE"
);
}
);
width = 682;
},
{
associatedMasterId = "3BA1B4B2-6ACF-4D2C-A9DD-A548EEBF9DB3";
layerId = "C21A8845-341C-4534-AFE5-5F323AB3EEC1";
name = "Color 2";
paths = (
{
closed = 1;
nodes = (
"215 290 LINE",
"289 290 LINE",
"289 410 LINE",
"215 410 LINE"
);
},
{
closed = 1;
nodes = (
"119 4 LINE",
"193 4 LINE",
"193 124 LINE",
"119 124 LINE"
);
}
);
width = 682;
},
{
associatedMasterId = "3BA1B4B2-6ACF-4D2C-A9DD-A548EEBF9DB3";
layerId = "39CBBBB2-F04F-42A0-BAC9-79A8668BF69E";
name = "Color 3";
paths = (
{
closed = 1;
nodes = (
"503 433 LINE",
"577 433 LINE",
"577 553 LINE",
"503 553 LINE"
);
},
{
closed = 1;
nodes = (
"407 433 LINE",
"481 433 LINE",
"481 553 LINE",
"407 553 LINE"
);
},
{
closed = 1;
nodes = (
"407 290 LINE",
"481 290 LINE",
"481 410 LINE",
"407 410 LINE"
);
},
{
closed = 1;
nodes = (
"311 290 LINE",
"385 290 LINE",
"385 410 LINE",
"311 410 LINE"
);
}
);
width = 682;
},
{
associatedMasterId = "3BA1B4B2-6ACF-4D2C-A9DD-A548EEBF9DB3";
layerId = "DB608F4F-2B08-4443-B6FC-1586B5496AFA";
name = "Color 4";
paths = (
{
closed = 1;
nodes = (
"23 576 LINE",
"97 576 LINE",
"97 696 LINE",
"23 696 LINE"
);
},
{
closed = 1;
nodes = (
"23 433 LINE",
"97 433 LINE",
"97 553 LINE",
"23 553 LINE"
);
},
{
closed = 1;
nodes = (
"119 433 LINE",
"193 433 LINE",
"193 553 LINE",
"119 553 LINE"
);
},
{
closed = 1;
nodes = (
"23 290 LINE",
"97 290 LINE",
"97 410 LINE",
"23 410 LINE"
);
}
);
width = 682;
},
{
associatedMasterId = "3BA1B4B2-6ACF-4D2C-A9DD-A548EEBF9DB3";
layerId = "FDA153CD-8477-4CC5-8BD9-23765BDD27DA";
name = "Color 5";
paths = (
{
closed = 1;
nodes = (
"23 4 LINE",
"97 4 LINE",
"97 124 LINE",
"23 124 LINE"
);
},
{
closed = 1;
nodes = (
"23 147 LINE",
"97 147 LINE",
"97 267 LINE",
"23 267 LINE"
);
},
{
closed = 1;
nodes = (
"119 147 LINE",
"193 147 LINE",
"193 267 LINE",
"119 267 LINE"
);
},
{
closed = 1;
nodes = (
"119 290 LINE",
"193 290 LINE",
"193 410 LINE",
"119 410 LINE"
);
}
);
width = 682;
},
{
associatedMasterId = "3BA1B4B2-6ACF-4D2C-A9DD-A548EEBF9DB3";
layerId = "9F6972EB-F989-437F-BF1F-570E58A818E1";
name = "Color 6";
width = 682;
},
{
associatedMasterId = "3BA1B4B2-6ACF-4D2C-A9DD-A548EEBF9DB3";
layerId = "0721A9A8-8C31-434D-9550-89F2C8EC1730";
name = "Color 7";
paths = (
{
closed = 1;
nodes = (
"407 147 LINE",
"481 147 LINE",
"481 267 LINE",
"407 267 LINE"
);
},
{
closed = 1;
nodes = (
"503 147 LINE",
"577 147 LINE",
"577 267 LINE",
"503 267 LINE"
);
},
{
closed = 1;
nodes = (
"503 4 LINE",
"577 4 LINE",
"577 124 LINE",
"503 124 LINE"
);
},
{
closed = 1;
nodes = (
"407 4 LINE",
"481 4 LINE",
"481 124 LINE",
"407 124 LINE"
);
}
);
width = 682;
}
);
unicode = 0052;
},
{
glyphname = S;
lastChange = "2019-02-09 05:30:05 +0000";
layers = (
{
layerId = "3BA1B4B2-6ACF-4D2C-A9DD-A548EEBF9DB3";
paths = (
{
closed = 1;
nodes = (
"520 572 LINE",
"602 572 LINE",
"602 700 LINE",
"520 700 LINE"
);
},
{
closed = 1;
nodes = (
"424 572 LINE",
"506 572 LINE",
"506 700 LINE",
"424 700 LINE"
);
},
{
closed = 1;
nodes = (
"328 572 LINE",
"410 572 LINE",
"410 700 LINE",
"328 700 LINE"
);
},
{
closed = 1;
nodes = (
"232 572 LINE",
"314 572 LINE",
"314 700 LINE",
"232 700 LINE"
);
},
{
closed = 1;
nodes = (
"136 572 LINE",
"218 572 LINE",
"218 700 LINE",
"136 700 LINE"
);
},
{
closed = 1;
nodes = (
"40 572 LINE",
"122 572 LINE",
"122 700 LINE",
"40 700 LINE"
);
},
{
closed = 1;
nodes = (
"40 429 LINE",
"122 429 LINE",
"122 557 LINE",
"40 557 LINE"
);
},
{
closed = 1;
nodes = (
"136 429 LINE",
"218 429 LINE",
"218 557 LINE",
"136 557 LINE"
);
},
{
closed = 1;
nodes = (
"232 286 LINE",
"314 286 LINE",
"314 414 LINE",
"232 414 LINE"
);
},
{
closed = 1;
nodes = (
"328 286 LINE",
"410 286 LINE",
"410 414 LINE",
"328 414 LINE"
);
},
{
closed = 1;
nodes = (
"424 143 LINE",
"506 143 LINE",
"506 271 LINE",
"424 271 LINE"
);
},
{
closed = 1;
nodes = (
"520 143 LINE",
"602 143 LINE",
"602 271 LINE",
"520 271 LINE"
);
},
{
closed = 1;
nodes = (
"424 0 LINE",
"506 0 LINE",
"506 128 LINE",
"424 128 LINE"
);
},
{
closed = 1;
nodes = (
"520 0 LINE",
"602 0 LINE",
"602 128 LINE",
"520 128 LINE"
);
},
{
closed = 1;
nodes = (
"328 0 LINE",
"410 0 LINE",
"410 128 LINE",
"328 128 LINE"
);
},
{
closed = 1;
nodes = (
"232 0 LINE",
"314 0 LINE",
"314 128 LINE",
"232 128 LINE"
);
},
{
closed = 1;
nodes = (
"136 0 LINE",
"218 0 LINE",
"218 128 LINE",
"136 128 LINE"
);
},
{
closed = 1;
nodes = (
"40 0 LINE",
"122 0 LINE",
"122 128 LINE",
"40 128 LINE"
);
}
);
width = 642;
},
{
associatedMasterId = "3BA1B4B2-6ACF-4D2C-A9DD-A548EEBF9DB3";
layerId = "6130DCA7-19DE-401E-818F-6EF305BEC2DE";
name = "Color 0";
paths = (
{
closed = 1;
nodes = (
"499 572 LINE",
"581 572 LINE",
"581 700 LINE",
"499 700 LINE"
);
},
{
closed = 1;
nodes = (
"403 572 LINE",
"485 572 LINE",
"485 700 LINE",
"403 700 LINE"
);
},
{
closed = 1;
nodes = (
"307 572 LINE",
"389 572 LINE",
"389 700 LINE",
"307 700 LINE"
);
},
{
closed = 1;
nodes = (
"211 572 LINE",
"293 572 LINE",
"293 700 LINE",
"211 700 LINE"
);
},
{
closed = 1;
nodes = (
"115 572 LINE",
"197 572 LINE",
"197 700 LINE",
"115 700 LINE"
);
},
{
closed = 1;
nodes = (
"19 572 LINE",
"101 572 LINE",
"101 700 LINE",
"19 700 LINE"
);
},
{
closed = 1;
nodes = (
"19 429 LINE",
"101 429 LINE",
"101 557 LINE",
"19 557 LINE"
);
},
{
closed = 1;
nodes = (
"115 429 LINE",
"197 429 LINE",
"197 557 LINE",
"115 557 LINE"
);
},
{
closed = 1;
nodes = (
"211 286 LINE",
"293 286 LINE",
"293 414 LINE",
"211 414 LINE"
);
},
{
closed = 1;
nodes = (
"307 286 LINE",
"389 286 LINE",
"389 414 LINE",
"307 414 LINE"
);
},
{
closed = 1;
nodes = (
"403 143 LINE",
"485 143 LINE",
"485 271 LINE",
"403 271 LINE"
);
},
{
closed = 1;
nodes = (
"499 143 LINE",
"581 143 LINE",
"581 271 LINE",
"499 271 LINE"
);
},
{
closed = 1;
nodes = (
"403 0 LINE",
"485 0 LINE",
"485 128 LINE",
"403 128 LINE"
);
},
{
closed = 1;
nodes = (
"499 0 LINE",
"581 0 LINE",
"581 128 LINE",
"499 128 LINE"
);
},
{
closed = 1;
nodes = (
"307 0 LINE",
"389 0 LINE",
"389 128 LINE",
"307 128 LINE"
);
},
{
closed = 1;
nodes = (
"211 0 LINE",
"293 0 LINE",
"293 128 LINE",
"211 128 LINE"
);
},
{
closed = 1;
nodes = (
"115 0 LINE",
"197 0 LINE",
"197 128 LINE",
"115 128 LINE"
);
},
{
closed = 1;
nodes = (
"19 0 LINE",
"101 0 LINE",
"101 128 LINE",
"19 128 LINE"
);
}
);
width = 642;
},
{
associatedMasterId = "3BA1B4B2-6ACF-4D2C-A9DD-A548EEBF9DB3";
layerId = "B389D0D5-A0C3-42E0-9338-1988DC57F4E7";
name = "Color 1";
paths = (
{
closed = 1;
nodes = (
"215 576 LINE",
"289 576 LINE",
"289 696 LINE",
"215 696 LINE"
);
},
{
closed = 1;
nodes = (
"311 576 LINE",
"385 576 LINE",
"385 696 LINE",
"311 696 LINE"
);
},
{
closed = 1;
nodes = (
"407 576 LINE",
"481 576 LINE",
"481 696 LINE",
"407 696 LINE"
);
},
{
closed = 1;
nodes = (
"503 576 LINE",
"577 576 LINE",
"577 696 LINE",
"503 696 LINE"
);
},
{
closed = 1;
nodes = (
"23 4 LINE",
"97 4 LINE",
"97 124 LINE",
"23 124 LINE"
);
},
{
closed = 1;
nodes = (
"119 4 LINE",
"193 4 LINE",
"193 124 LINE",
"119 124 LINE"
);
},
{
closed = 1;
nodes = (
"215 4 LINE",
"289 4 LINE",
"289 124 LINE",
"215 124 LINE"
);
},
{
closed = 1;
nodes = (
"311 4 LINE",
"385 4 LINE",
"385 124 LINE",
"311 124 LINE"
);
}
);
width = 642;
},
{
associatedMasterId = "3BA1B4B2-6ACF-4D2C-A9DD-A548EEBF9DB3";
layerId = "0CA341F2-0A39-4252-A6E6-49CE3230E0EE";
name = "Color 2";
paths = (
{
closed = 1;
nodes = (
"215 576 LINE",
"289 576 LINE",
"289 696 LINE",
"215 696 LINE"
);
},
{
closed = 1;
nodes = (
"311 576 LINE",
"385 576 LINE",
"385 696 LINE",
"311 696 LINE"
);
},
{
closed = 1;
nodes = (
"407 576 LINE",
"481 576 LINE",
"481 696 LINE",
"407 696 LINE"
);
},
{
closed = 1;
nodes = (
"503 576 LINE",
"577 576 LINE",
"577 696 LINE",
"503 696 LINE"
);
},
{
closed = 1;
nodes = (
"23 4 LINE",
"97 4 LINE",
"97 124 LINE",
"23 124 LINE"
);
},
{
closed = 1;
nodes = (
"119 4 LINE",
"193 4 LINE",
"193 124 LINE",
"119 124 LINE"
);
},
{
closed = 1;
nodes = (
"215 4 LINE",
"289 4 LINE",
"289 124 LINE",
"215 124 LINE"
);
},
{
closed = 1;
nodes = (
"311 4 LINE",
"385 4 LINE",
"385 124 LINE",
"311 124 LINE"
);
}
);
width = 642;
},
{
associatedMasterId = "3BA1B4B2-6ACF-4D2C-A9DD-A548EEBF9DB3";
layerId = "4443AECD-5F49-41C6-808D-7708F7A752F8";
name = "Color 3";
width = 642;
},
{
associatedMasterId = "3BA1B4B2-6ACF-4D2C-A9DD-A548EEBF9DB3";
layerId = "5171E6EA-350A-48AD-BA13-FA422B20433C";
name = "Color 4";
paths = (
{
closed = 1;
nodes = (
"215 290 LINE",
"289 290 LINE",
"289 410 LINE",
"215 410 LINE"
);
},
{
closed = 1;
nodes = (
"311 290 LINE",
"385 290 LINE",
"385 410 LINE",
"311 410 LINE"
);
}
);
width = 642;
},
{
associatedMasterId = "3BA1B4B2-6ACF-4D2C-A9DD-A548EEBF9DB3";
layerId = "77D0FEBB-310F-4F2D-BB0F-4F83DE3F6CC3";
name = "Color 5";
width = 642;
},
{
associatedMasterId = "3BA1B4B2-6ACF-4D2C-A9DD-A548EEBF9DB3";
layerId = "15D512F1-33CB-4A9C-A2BD-DF9C0B4AC8EB";
name = "Color 6";
width = 642;
},
{
associatedMasterId = "3BA1B4B2-6ACF-4D2C-A9DD-A548EEBF9DB3";
layerId = "9F5C74FD-F993-4387-9CBA-BBF998B19BC3";
name = "Color 7";
paths = (
{
closed = 1;
nodes = (
"23 576 LINE",
"97 576 LINE",
"97 696 LINE",
"23 696 LINE"
);
},
{
closed = 1;
nodes = (
"119 576 LINE",
"193 576 LINE",
"193 696 LINE",
"119 696 LINE"
);
},
{
closed = 1;
nodes = (
"119 433 LINE",
"193 433 LINE",
"193 553 LINE",
"119 553 LINE"
);
},
{
closed = 1;
nodes = (
"23 433 LINE",
"97 433 LINE",
"97 553 LINE",
"23 553 LINE"
);
},
{
closed = 1;
nodes = (
"407 147 LINE",
"481 147 LINE",
"481 267 LINE",
"407 267 LINE"
);
},
{
closed = 1;
nodes = (
"503 147 LINE",
"577 147 LINE",
"577 267 LINE",
"503 267 LINE"
);
},
{
closed = 1;
nodes = (
"407 4 LINE",
"481 4 LINE",
"481 124 LINE",
"407 124 LINE"
);
},
{
closed = 1;
nodes = (
"503 4 LINE",
"577 4 LINE",
"577 124 LINE",
"503 124 LINE"
);
}
);
width = 642;
}
);
unicode = 0053;
},
{
glyphname = T;
lastChange = "2019-02-09 05:30:05 +0000";
layers = (
{
layerId = "3BA1B4B2-6ACF-4D2C-A9DD-A548EEBF9DB3";
paths = (
{
closed = 1;
nodes = (
"60 572 LINE",
"142 572 LINE",
"142 700 LINE",
"60 700 LINE"
);
},
{
closed = 1;
nodes = (
"156 572 LINE",
"238 572 LINE",
"238 700 LINE",
"156 700 LINE"
);
},
{
closed = 1;
nodes = (
"252 572 LINE",
"334 572 LINE",
"334 700 LINE",
"252 700 LINE"
);
},
{
closed = 1;
nodes = (
"348 572 LINE",
"430 572 LINE",
"430 700 LINE",
"348 700 LINE"
);
},
{
closed = 1;
nodes = (
"252 429 LINE",
"334 429 LINE",
"334 557 LINE",
"252 557 LINE"
);
},
{
closed = 1;
nodes = (
"348 429 LINE",
"430 429 LINE",
"430 557 LINE",
"348 557 LINE"
);
},
{
closed = 1;
nodes = (
"444 572 LINE",
"526 572 LINE",
"526 700 LINE",
"444 700 LINE"
);
},
{
closed = 1;
nodes = (
"540 572 LINE",
"622 572 LINE",
"622 700 LINE",
"540 700 LINE"
);
},
{
closed = 1;
nodes = (
"252 286 LINE",
"334 286 LINE",
"334 414 LINE",
"252 414 LINE"
);
},
{
closed = 1;
nodes = (
"348 286 LINE",
"430 286 LINE",
"430 414 LINE",
"348 414 LINE"
);
},
{
closed = 1;
nodes = (
"252 143 LINE",
"334 143 LINE",
"334 271 LINE",
"252 271 LINE"
);
},
{
closed = 1;
nodes = (
"348 143 LINE",
"430 143 LINE",
"430 271 LINE",
"348 271 LINE"
);
},
{
closed = 1;
nodes = (
"252 0 LINE",
"334 0 LINE",
"334 128 LINE",
"252 128 LINE"
);
},
{
closed = 1;
nodes = (
"348 0 LINE",
"430 0 LINE",
"430 128 LINE",
"348 128 LINE"
);
}
);
width = 682;
},
{
associatedMasterId = "3BA1B4B2-6ACF-4D2C-A9DD-A548EEBF9DB3";
layerId = "399D8AA5-9838-423A-8EFF-9C3F53D025BB";
name = "Color 0";
paths = (
{
closed = 1;
nodes = (
"19 572 LINE",
"101 572 LINE",
"101 700 LINE",
"19 700 LINE"
);
},
{
closed = 1;
nodes = (
"115 572 LINE",
"197 572 LINE",
"197 700 LINE",
"115 700 LINE"
);
},
{
closed = 1;
nodes = (
"211 572 LINE",
"293 572 LINE",
"293 700 LINE",
"211 700 LINE"
);
},
{
closed = 1;
nodes = (
"307 572 LINE",
"389 572 LINE",
"389 700 LINE",
"307 700 LINE"
);
},
{
closed = 1;
nodes = (
"211 429 LINE",
"293 429 LINE",
"293 557 LINE",
"211 557 LINE"
);
},
{
closed = 1;
nodes = (
"307 429 LINE",
"389 429 LINE",
"389 557 LINE",
"307 557 LINE"
);
},
{
closed = 1;
nodes = (
"403 572 LINE",
"485 572 LINE",
"485 700 LINE",
"403 700 LINE"
);
},
{
closed = 1;
nodes = (
"499 572 LINE",
"581 572 LINE",
"581 700 LINE",
"499 700 LINE"
);
},
{
closed = 1;
nodes = (
"211 286 LINE",
"293 286 LINE",
"293 414 LINE",
"211 414 LINE"
);
},
{
closed = 1;
nodes = (
"307 286 LINE",
"389 286 LINE",
"389 414 LINE",
"307 414 LINE"
);
},
{
closed = 1;
nodes = (
"211 143 LINE",
"293 143 LINE",
"293 271 LINE",
"211 271 LINE"
);
},
{
closed = 1;
nodes = (
"307 143 LINE",
"389 143 LINE",
"389 271 LINE",
"307 271 LINE"
);
},
{
closed = 1;
nodes = (
"211 0 LINE",
"293 0 LINE",
"293 128 LINE",
"211 128 LINE"
);
},
{
closed = 1;
nodes = (
"307 0 LINE",
"389 0 LINE",
"389 128 LINE",
"307 128 LINE"
);
}
);
width = 682;
},
{
associatedMasterId = "3BA1B4B2-6ACF-4D2C-A9DD-A548EEBF9DB3";
layerId = "5F82CDCB-4C52-45E9-9449-6619B4E92AB1";
name = "Color 1";
paths = (
{
closed = 1;
nodes = (
"215 576 LINE",
"289 576 LINE",
"289 696 LINE",
"215 696 LINE"
);
},
{
closed = 1;
nodes = (
"215 433 LINE",
"289 433 LINE",
"289 553 LINE",
"215 553 LINE"
);
},
{
closed = 1;
nodes = (
"215 290 LINE",
"289 290 LINE",
"289 410 LINE",
"215 410 LINE"
);
},
{
closed = 1;
nodes = (
"215 147 LINE",
"289 147 LINE",
"289 267 LINE",
"215 267 LINE"
);
}
);
width = 682;
},
{
associatedMasterId = "3BA1B4B2-6ACF-4D2C-A9DD-A548EEBF9DB3";
layerId = "4B7D894D-AFBD-442C-A924-DC5652DC4117";
name = "Color 2";
paths = (
{
closed = 1;
nodes = (
"311 290 LINE",
"385 290 LINE",
"385 410 LINE",
"311 410 LINE"
);
},
{
closed = 1;
nodes = (
"311 147 LINE",
"385 147 LINE",
"385 267 LINE",
"311 267 LINE"
);
},
{
closed = 1;
nodes = (
"311 4 LINE",
"385 4 LINE",
"385 124 LINE",
"311 124 LINE"
);
},
{
closed = 1;
nodes = (
"215 4 LINE",
"289 4 LINE",
"289 124 LINE",
"215 124 LINE"
);
}
);
width = 682;
},
{
associatedMasterId = "3BA1B4B2-6ACF-4D2C-A9DD-A548EEBF9DB3";
layerId = "66FC362D-89E9-4670-8A37-D2AFDDE718EA";
name = "Color 3";
paths = (
{
closed = 1;
nodes = (
"23 576 LINE",
"97 576 LINE",
"97 696 LINE",
"23 696 LINE"
);
},
{
closed = 1;
nodes = (
"119 576 LINE",
"193 576 LINE",
"193 696 LINE",
"119 696 LINE"
);
}
);
width = 682;
},
{
associatedMasterId = "3BA1B4B2-6ACF-4D2C-A9DD-A548EEBF9DB3";
layerId = "8B7C9B2F-72CF-4B29-8CDE-2A8C2244B78A";
name = "Color 4";
width = 682;
},
{
associatedMasterId = "3BA1B4B2-6ACF-4D2C-A9DD-A548EEBF9DB3";
layerId = "AE83FFAB-1992-4FD7-843E-594F1A340A73";
name = "Color 5";
width = 682;
},
{
associatedMasterId = "3BA1B4B2-6ACF-4D2C-A9DD-A548EEBF9DB3";
layerId = "5D3AA401-ED05-43A9-B5FF-6EE3AF890585";
name = "Color 6";
paths = (
{
closed = 1;
nodes = (
"311 433 LINE",
"385 433 LINE",
"385 553 LINE",
"311 553 LINE"
);
},
{
closed = 1;
nodes = (
"311 576 LINE",
"385 576 LINE",
"385 696 LINE",
"311 696 LINE"
);
},
{
closed = 1;
nodes = (
"407 576 LINE",
"481 576 LINE",
"481 696 LINE",
"407 696 LINE"
);
},
{
closed = 1;
nodes = (
"503 576 LINE",
"577 576 LINE",
"577 696 LINE",
"503 696 LINE"
);
}
);
width = 682;
},
{
associatedMasterId = "3BA1B4B2-6ACF-4D2C-A9DD-A548EEBF9DB3";
layerId = "6928A2B5-6EB4-4FC1-B297-C3A9B50B3A3C";
name = "Color 7";
width = 682;
}
);
unicode = 0054;
},
{
glyphname = U;
lastChange = "2019-02-09 05:30:05 +0000";
layers = (
{
layerId = "3BA1B4B2-6ACF-4D2C-A9DD-A548EEBF9DB3";
paths = (
{
closed = 1;
nodes = (
"156 0 LINE",
"238 0 LINE",
"238 128 LINE",
"156 128 LINE"
);
},
{
closed = 1;
nodes = (
"252 0 LINE",
"334 0 LINE",
"334 128 LINE",
"252 128 LINE"
);
},
{
closed = 1;
nodes = (
"348 0 LINE",
"430 0 LINE",
"430 128 LINE",
"348 128 LINE"
);
},
{
closed = 1;
nodes = (
"444 0 LINE",
"526 0 LINE",
"526 128 LINE",
"444 128 LINE"
);
},
{
closed = 1;
nodes = (
"60 572 LINE",
"142 572 LINE",
"142 700 LINE",
"60 700 LINE"
);
},
{
closed = 1;
nodes = (
"156 572 LINE",
"238 572 LINE",
"238 700 LINE",
"156 700 LINE"
);
},
{
closed = 1;
nodes = (
"60 429 LINE",
"142 429 LINE",
"142 557 LINE",
"60 557 LINE"
);
},
{
closed = 1;
nodes = (
"156 429 LINE",
"238 429 LINE",
"238 557 LINE",
"156 557 LINE"
);
},
{
closed = 1;
nodes = (
"60 286 LINE",
"142 286 LINE",
"142 414 LINE",
"60 414 LINE"
);
},
{
closed = 1;
nodes = (
"156 286 LINE",
"238 286 LINE",
"238 414 LINE",
"156 414 LINE"
);
},
{
closed = 1;
nodes = (
"60 143 LINE",
"142 143 LINE",
"142 271 LINE",
"60 271 LINE"
);
},
{
closed = 1;
nodes = (
"156 143 LINE",
"238 143 LINE",
"238 271 LINE",
"156 271 LINE"
);
},
{
closed = 1;
nodes = (
"444 143 LINE",
"526 143 LINE",
"526 271 LINE",
"444 271 LINE"
);
},
{
closed = 1;
nodes = (
"540 143 LINE",
"622 143 LINE",
"622 271 LINE",
"540 271 LINE"
);
},
{
closed = 1;
nodes = (
"444 286 LINE",
"526 286 LINE",
"526 414 LINE",
"444 414 LINE"
);
},
{
closed = 1;
nodes = (
"540 286 LINE",
"622 286 LINE",
"622 414 LINE",
"540 414 LINE"
);
},
{
closed = 1;
nodes = (
"444 429 LINE",
"526 429 LINE",
"526 557 LINE",
"444 557 LINE"
);
},
{
closed = 1;
nodes = (
"540 429 LINE",
"622 429 LINE",
"622 557 LINE",
"540 557 LINE"
);
},
{
closed = 1;
nodes = (
"444 572 LINE",
"526 572 LINE",
"526 700 LINE",
"444 700 LINE"
);
},
{
closed = 1;
nodes = (
"540 572 LINE",
"622 572 LINE",
"622 700 LINE",
"540 700 LINE"
);
}
);
width = 682;
},
{
associatedMasterId = "3BA1B4B2-6ACF-4D2C-A9DD-A548EEBF9DB3";
layerId = "A2A08B31-B7E8-4261-B2D7-4421FD551126";
name = "Color 0";
paths = (
{
closed = 1;
nodes = (
"115 0 LINE",
"197 0 LINE",
"197 128 LINE",
"115 128 LINE"
);
},
{
closed = 1;
nodes = (
"211 0 LINE",
"293 0 LINE",
"293 128 LINE",
"211 128 LINE"
);
},
{
closed = 1;
nodes = (
"307 0 LINE",
"389 0 LINE",
"389 128 LINE",
"307 128 LINE"
);
},
{
closed = 1;
nodes = (
"403 0 LINE",
"485 0 LINE",
"485 128 LINE",
"403 128 LINE"
);
},
{
closed = 1;
nodes = (
"19 572 LINE",
"101 572 LINE",
"101 700 LINE",
"19 700 LINE"
);
},
{
closed = 1;
nodes = (
"115 572 LINE",
"197 572 LINE",
"197 700 LINE",
"115 700 LINE"
);
},
{
closed = 1;
nodes = (
"19 429 LINE",
"101 429 LINE",
"101 557 LINE",
"19 557 LINE"
);
},
{
closed = 1;
nodes = (
"115 429 LINE",
"197 429 LINE",
"197 557 LINE",
"115 557 LINE"
);
},
{
closed = 1;
nodes = (
"19 286 LINE",
"101 286 LINE",
"101 414 LINE",
"19 414 LINE"
);
},
{
closed = 1;
nodes = (
"115 286 LINE",
"197 286 LINE",
"197 414 LINE",
"115 414 LINE"
);
},
{
closed = 1;
nodes = (
"19 143 LINE",
"101 143 LINE",
"101 271 LINE",
"19 271 LINE"
);
},
{
closed = 1;
nodes = (
"115 143 LINE",
"197 143 LINE",
"197 271 LINE",
"115 271 LINE"
);
},
{
closed = 1;
nodes = (
"403 143 LINE",
"485 143 LINE",
"485 271 LINE",
"403 271 LINE"
);
},
{
closed = 1;
nodes = (
"499 143 LINE",
"581 143 LINE",
"581 271 LINE",
"499 271 LINE"
);
},
{
closed = 1;
nodes = (
"403 286 LINE",
"485 286 LINE",
"485 414 LINE",
"403 414 LINE"
);
},
{
closed = 1;
nodes = (
"499 286 LINE",
"581 286 LINE",
"581 414 LINE",
"499 414 LINE"
);
},
{
closed = 1;
nodes = (
"403 429 LINE",
"485 429 LINE",
"485 557 LINE",
"403 557 LINE"
);
},
{
closed = 1;
nodes = (
"499 429 LINE",
"581 429 LINE",
"581 557 LINE",
"499 557 LINE"
);
},
{
closed = 1;
nodes = (
"403 572 LINE",
"485 572 LINE",
"485 700 LINE",
"403 700 LINE"
);
},
{
closed = 1;
nodes = (
"499 572 LINE",
"581 572 LINE",
"581 700 LINE",
"499 700 LINE"
);
}
);
width = 682;
},
{
associatedMasterId = "3BA1B4B2-6ACF-4D2C-A9DD-A548EEBF9DB3";
layerId = "B8899B5D-3906-427F-8000-759646074444";
name = "Color 1";
paths = (
{
closed = 1;
nodes = (
"23 576 LINE",
"97 576 LINE",
"97 696 LINE",
"23 696 LINE"
);
},
{
closed = 1;
nodes = (
"119 576 LINE",
"193 576 LINE",
"193 696 LINE",
"119 696 LINE"
);
},
{
closed = 1;
nodes = (
"407 576 LINE",
"481 576 LINE",
"481 696 LINE",
"407 696 LINE"
);
},
{
closed = 1;
nodes = (
"503 576 LINE",
"577 576 LINE",
"577 696 LINE",
"503 696 LINE"
);
}
);
width = 682;
},
{
associatedMasterId = "3BA1B4B2-6ACF-4D2C-A9DD-A548EEBF9DB3";
layerId = "D0F2D5DD-48C0-46CD-92A6-3634110DCDAD";
name = "Color 2";
paths = (
{
closed = 1;
nodes = (
"23 147 LINE",
"97 147 LINE",
"97 267 LINE",
"23 267 LINE"
);
},
{
closed = 1;
nodes = (
"23 290 LINE",
"97 290 LINE",
"97 410 LINE",
"23 410 LINE"
);
},
{
closed = 1;
nodes = (
"23 433 LINE",
"97 433 LINE",
"97 553 LINE",
"23 553 LINE"
);
},
{
closed = 1;
nodes = (
"119 433 LINE",
"193 433 LINE",
"193 553 LINE",
"119 553 LINE"
);
}
);
width = 682;
},
{
associatedMasterId = "3BA1B4B2-6ACF-4D2C-A9DD-A548EEBF9DB3";
layerId = "B32AC5F7-40CF-49DD-AEB9-2AB792322ED7";
name = "Color 3";
paths = (
{
closed = 1;
nodes = (
"311 4 LINE",
"385 4 LINE",
"385 124 LINE",
"311 124 LINE"
);
},
{
closed = 1;
nodes = (
"407 4 LINE",
"481 4 LINE",
"481 124 LINE",
"407 124 LINE"
);
},
{
closed = 1;
nodes = (
"407 147 LINE",
"481 147 LINE",
"481 267 LINE",
"407 267 LINE"
);
},
{
closed = 1;
nodes = (
"503 147 LINE",
"577 147 LINE",
"577 267 LINE",
"503 267 LINE"
);
}
);
width = 682;
},
{
associatedMasterId = "3BA1B4B2-6ACF-4D2C-A9DD-A548EEBF9DB3";
layerId = "0533DC39-F8DA-4ED3-921A-DB234C97631D";
name = "Color 4";
width = 682;
},
{
associatedMasterId = "3BA1B4B2-6ACF-4D2C-A9DD-A548EEBF9DB3";
layerId = "A39F2B66-380A-4CA6-BBEF-D53D251AE5F4";
name = "Color 5";
width = 682;
},
{
associatedMasterId = "3BA1B4B2-6ACF-4D2C-A9DD-A548EEBF9DB3";
layerId = "EEDF2302-FB3F-40EA-9344-67395561949D";
name = "Color 6";
paths = (
{
closed = 1;
nodes = (
"215 4 LINE",
"289 4 LINE",
"289 124 LINE",
"215 124 LINE"
);
},
{
closed = 1;
nodes = (
"119 4 LINE",
"193 4 LINE",
"193 124 LINE",
"119 124 LINE"
);
},
{
closed = 1;
nodes = (
"119 147 LINE",
"193 147 LINE",
"193 267 LINE",
"119 267 LINE"
);
},
{
closed = 1;
nodes = (
"119 290 LINE",
"193 290 LINE",
"193 410 LINE",
"119 410 LINE"
);
}
);
width = 682;
},
{
associatedMasterId = "3BA1B4B2-6ACF-4D2C-A9DD-A548EEBF9DB3";
layerId = "C357A97D-F3CA-4786-85C6-7DA23D00DA72";
name = "Color 7";
paths = (
{
closed = 1;
nodes = (
"407 433 LINE",
"481 433 LINE",
"481 553 LINE",
"407 553 LINE"
);
},
{
closed = 1;
nodes = (
"503 433 LINE",
"577 433 LINE",
"577 553 LINE",
"503 553 LINE"
);
},
{
closed = 1;
nodes = (
"407 290 LINE",
"481 290 LINE",
"481 410 LINE",
"407 410 LINE"
);
},
{
closed = 1;
nodes = (
"503 290 LINE",
"577 290 LINE",
"577 410 LINE",
"503 410 LINE"
);
}
);
width = 682;
}
);
unicode = 0055;
},
{
glyphname = V;
lastChange = "2019-02-09 05:30:05 +0000";
layers = (
{
layerId = "3BA1B4B2-6ACF-4D2C-A9DD-A548EEBF9DB3";
paths = (
{
closed = 1;
nodes = (
"60 572 LINE",
"142 572 LINE",
"142 700 LINE",
"60 700 LINE"
);
},
{
closed = 1;
nodes = (
"156 572 LINE",
"238 572 LINE",
"238 700 LINE",
"156 700 LINE"
);
},
{
closed = 1;
nodes = (
"60 429 LINE",
"142 429 LINE",
"142 557 LINE",
"60 557 LINE"
);
},
{
closed = 1;
nodes = (
"156 429 LINE",
"238 429 LINE",
"238 557 LINE",
"156 557 LINE"
);
},
{
closed = 1;
nodes = (
"60 286 LINE",
"142 286 LINE",
"142 414 LINE",
"60 414 LINE"
);
},
{
closed = 1;
nodes = (
"156 286 LINE",
"238 286 LINE",
"238 414 LINE",
"156 414 LINE"
);
},
{
closed = 1;
nodes = (
"444 572 LINE",
"526 572 LINE",
"526 700 LINE",
"444 700 LINE"
);
},
{
closed = 1;
nodes = (
"540 572 LINE",
"622 572 LINE",
"622 700 LINE",
"540 700 LINE"
);
},
{
closed = 1;
nodes = (
"444 429 LINE",
"526 429 LINE",
"526 557 LINE",
"444 557 LINE"
);
},
{
closed = 1;
nodes = (
"540 429 LINE",
"622 429 LINE",
"622 557 LINE",
"540 557 LINE"
);
},
{
closed = 1;
nodes = (
"444 286 LINE",
"526 286 LINE",
"526 414 LINE",
"444 414 LINE"
);
},
{
closed = 1;
nodes = (
"540 286 LINE",
"622 286 LINE",
"622 414 LINE",
"540 414 LINE"
);
},
{
closed = 1;
nodes = (
"156 143 LINE",
"238 143 LINE",
"238 271 LINE",
"156 271 LINE"
);
},
{
closed = 1;
nodes = (
"252 143 LINE",
"334 143 LINE",
"334 271 LINE",
"252 271 LINE"
);
},
{
closed = 1;
nodes = (
"348 143 LINE",
"430 143 LINE",
"430 271 LINE",
"348 271 LINE"
);
},
{
closed = 1;
nodes = (
"444 143 LINE",
"526 143 LINE",
"526 271 LINE",
"444 271 LINE"
);
},
{
closed = 1;
nodes = (
"252 0 LINE",
"334 0 LINE",
"334 128 LINE",
"252 128 LINE"
);
},
{
closed = 1;
nodes = (
"348 0 LINE",
"430 0 LINE",
"430 128 LINE",
"348 128 LINE"
);
}
);
width = 682;
},
{
associatedMasterId = "3BA1B4B2-6ACF-4D2C-A9DD-A548EEBF9DB3";
layerId = "908E87F6-B3C7-43B2-925C-C22E10570DC3";
name = "Color 0";
paths = (
{
closed = 1;
nodes = (
"19 572 LINE",
"101 572 LINE",
"101 700 LINE",
"19 700 LINE"
);
},
{
closed = 1;
nodes = (
"115 572 LINE",
"197 572 LINE",
"197 700 LINE",
"115 700 LINE"
);
},
{
closed = 1;
nodes = (
"19 429 LINE",
"101 429 LINE",
"101 557 LINE",
"19 557 LINE"
);
},
{
closed = 1;
nodes = (
"115 429 LINE",
"197 429 LINE",
"197 557 LINE",
"115 557 LINE"
);
},
{
closed = 1;
nodes = (
"19 286 LINE",
"101 286 LINE",
"101 414 LINE",
"19 414 LINE"
);
},
{
closed = 1;
nodes = (
"115 286 LINE",
"197 286 LINE",
"197 414 LINE",
"115 414 LINE"
);
},
{
closed = 1;
nodes = (
"403 572 LINE",
"485 572 LINE",
"485 700 LINE",
"403 700 LINE"
);
},
{
closed = 1;
nodes = (
"499 572 LINE",
"581 572 LINE",
"581 700 LINE",
"499 700 LINE"
);
},
{
closed = 1;
nodes = (
"403 429 LINE",
"485 429 LINE",
"485 557 LINE",
"403 557 LINE"
);
},
{
closed = 1;
nodes = (
"499 429 LINE",
"581 429 LINE",
"581 557 LINE",
"499 557 LINE"
);
},
{
closed = 1;
nodes = (
"403 286 LINE",
"485 286 LINE",
"485 414 LINE",
"403 414 LINE"
);
},
{
closed = 1;
nodes = (
"499 286 LINE",
"581 286 LINE",
"581 414 LINE",
"499 414 LINE"
);
},
{
closed = 1;
nodes = (
"115 143 LINE",
"197 143 LINE",
"197 271 LINE",
"115 271 LINE"
);
},
{
closed = 1;
nodes = (
"211 143 LINE",
"293 143 LINE",
"293 271 LINE",
"211 271 LINE"
);
},
{
closed = 1;
nodes = (
"307 143 LINE",
"389 143 LINE",
"389 271 LINE",
"307 271 LINE"
);
},
{
closed = 1;
nodes = (
"403 143 LINE",
"485 143 LINE",
"485 271 LINE",
"403 271 LINE"
);
},
{
closed = 1;
nodes = (
"211 0 LINE",
"293 0 LINE",
"293 128 LINE",
"211 128 LINE"
);
},
{
closed = 1;
nodes = (
"307 0 LINE",
"389 0 LINE",
"389 128 LINE",
"307 128 LINE"
);
}
);
width = 682;
},
{
associatedMasterId = "3BA1B4B2-6ACF-4D2C-A9DD-A548EEBF9DB3";
layerId = "5826DB58-6859-4B65-9F5E-BB83DFF00203";
name = "Color 1";
width = 682;
},
{
associatedMasterId = "3BA1B4B2-6ACF-4D2C-A9DD-A548EEBF9DB3";
layerId = "62E2428F-9679-4B39-871C-50FAFCFD218D";
name = "Color 2";
paths = (
{
closed = 1;
nodes = (
"119 576 LINE",
"193 576 LINE",
"193 696 LINE",
"119 696 LINE"
);
},
{
closed = 1;
nodes = (
"23 576 LINE",
"97 576 LINE",
"97 696 LINE",
"23 696 LINE"
);
},
{
closed = 1;
nodes = (
"23 433 LINE",
"97 433 LINE",
"97 553 LINE",
"23 553 LINE"
);
},
{
closed = 1;
nodes = (
"23 290 LINE",
"97 290 LINE",
"97 410 LINE",
"23 410 LINE"
);
}
);
width = 682;
},
{
associatedMasterId = "3BA1B4B2-6ACF-4D2C-A9DD-A548EEBF9DB3";
layerId = "1D5026F7-1CD3-423A-A29D-61B5F009026C";
name = "Color 3";
paths = (
{
closed = 1;
nodes = (
"119 290 LINE",
"193 290 LINE",
"193 410 LINE",
"119 410 LINE"
);
},
{
closed = 1;
nodes = (
"119 147 LINE",
"193 147 LINE",
"193 267 LINE",
"119 267 LINE"
);
},
{
closed = 1;
nodes = (
"215 147 LINE",
"289 147 LINE",
"289 267 LINE",
"215 267 LINE"
);
},
{
closed = 1;
nodes = (
"215 0 LINE",
"289 0 LINE",
"289 124 LINE",
"215 124 LINE"
);
},
{
closed = 1;
nodes = (
"119 290 LINE",
"193 290 LINE",
"193 410 LINE",
"119 410 LINE"
);
},
{
closed = 1;
nodes = (
"119 147 LINE",
"193 147 LINE",
"193 267 LINE",
"119 267 LINE"
);
},
{
closed = 1;
nodes = (
"215 147 LINE",
"289 147 LINE",
"289 267 LINE",
"215 267 LINE"
);
},
{
closed = 1;
nodes = (
"215 0 LINE",
"289 0 LINE",
"289 124 LINE",
"215 124 LINE"
);
}
);
width = 682;
},
{
associatedMasterId = "3BA1B4B2-6ACF-4D2C-A9DD-A548EEBF9DB3";
layerId = "3E178A28-CD88-4C5E-873A-6BF631B9AD92";
name = "Color 4";
paths = (
{
closed = 1;
nodes = (
"407 433 LINE",
"481 433 LINE",
"481 553 LINE",
"407 553 LINE"
);
},
{
closed = 1;
nodes = (
"503 433 LINE",
"577 433 LINE",
"577 553 LINE",
"503 553 LINE"
);
},
{
closed = 1;
nodes = (
"503 576 LINE",
"577 576 LINE",
"577 696 LINE",
"503 696 LINE"
);
},
{
closed = 1;
nodes = (
"503 290 LINE",
"577 290 LINE",
"577 410 LINE",
"503 410 LINE"
);
}
);
width = 682;
},
{
associatedMasterId = "3BA1B4B2-6ACF-4D2C-A9DD-A548EEBF9DB3";
layerId = "A398882D-1FDC-4E4B-859F-E5AFBAA5594B";
name = "Color 5";
paths = (
{
closed = 1;
nodes = (
"311 147 LINE",
"385 147 LINE",
"385 267 LINE",
"311 267 LINE"
);
},
{
closed = 1;
nodes = (
"311 4 LINE",
"385 4 LINE",
"385 124 LINE",
"311 124 LINE"
);
},
{
closed = 1;
nodes = (
"407 147 LINE",
"481 147 LINE",
"481 267 LINE",
"407 267 LINE"
);
},
{
closed = 1;
nodes = (
"407 290 LINE",
"481 290 LINE",
"481 410 LINE",
"407 410 LINE"
);
}
);
width = 682;
},
{
associatedMasterId = "3BA1B4B2-6ACF-4D2C-A9DD-A548EEBF9DB3";
layerId = "3051FCFF-BB2B-4C68-BC18-7D18B7D692C6";
name = "Color 6";
paths = (
{
closed = 1;
nodes = (
"407 576 LINE",
"481 576 LINE",
"481 696 LINE",
"407 696 LINE"
);
},
{
closed = 1;
nodes = (
"119 433 LINE",
"193 433 LINE",
"193 553 LINE",
"119 553 LINE"
);
}
);
width = 682;
},
{
associatedMasterId = "3BA1B4B2-6ACF-4D2C-A9DD-A548EEBF9DB3";
layerId = "F4367EB5-59E1-49BC-B46F-25C18F3DD9AA";
name = "Color 7";
width = 682;
}
);
unicode = 0056;
},
{
glyphname = W;
lastChange = "2019-02-09 05:30:05 +0000";
layers = (
{
layerId = "3BA1B4B2-6ACF-4D2C-A9DD-A548EEBF9DB3";
paths = (
{
closed = 1;
nodes = (
"60 572 LINE",
"142 572 LINE",
"142 700 LINE",
"60 700 LINE"
);
},
{
closed = 1;
nodes = (
"60 429 LINE",
"142 429 LINE",
"142 557 LINE",
"60 557 LINE"
);
},
{
closed = 1;
nodes = (
"60 286 LINE",
"142 286 LINE",
"142 414 LINE",
"60 414 LINE"
);
},
{
closed = 1;
nodes = (
"60 143 LINE",
"142 143 LINE",
"142 271 LINE",
"60 271 LINE"
);
},
{
closed = 1;
nodes = (
"156 0 LINE",
"238 0 LINE",
"238 128 LINE",
"156 128 LINE"
);
},
{
closed = 1;
nodes = (
"252 0 LINE",
"334 0 LINE",
"334 128 LINE",
"252 128 LINE"
);
},
{
closed = 1;
nodes = (
"348 0 LINE",
"430 0 LINE",
"430 128 LINE",
"348 128 LINE"
);
},
{
closed = 1;
nodes = (
"444 0 LINE",
"526 0 LINE",
"526 128 LINE",
"444 128 LINE"
);
},
{
closed = 1;
nodes = (
"540 572 LINE",
"622 572 LINE",
"622 700 LINE",
"540 700 LINE"
);
},
{
closed = 1;
nodes = (
"540 429 LINE",
"622 429 LINE",
"622 557 LINE",
"540 557 LINE"
);
},
{
closed = 1;
nodes = (
"540 286 LINE",
"622 286 LINE",
"622 414 LINE",
"540 414 LINE"
);
},
{
closed = 1;
nodes = (
"540 143 LINE",
"622 143 LINE",
"622 271 LINE",
"540 271 LINE"
);
},
{
closed = 1;
nodes = (
"252 429 LINE",
"334 429 LINE",
"334 557 LINE",
"252 557 LINE"
);
},
{
closed = 1;
nodes = (
"348 429 LINE",
"430 429 LINE",
"430 557 LINE",
"348 557 LINE"
);
},
{
closed = 1;
nodes = (
"252 286 LINE",
"334 286 LINE",
"334 414 LINE",
"252 414 LINE"
);
},
{
closed = 1;
nodes = (
"348 286 LINE",
"430 286 LINE",
"430 414 LINE",
"348 414 LINE"
);
},
{
closed = 1;
nodes = (
"252 143 LINE",
"334 143 LINE",
"334 271 LINE",
"252 271 LINE"
);
},
{
closed = 1;
nodes = (
"348 143 LINE",
"430 143 LINE",
"430 271 LINE",
"348 271 LINE"
);
}
);
width = 682;
},
{
associatedMasterId = "3BA1B4B2-6ACF-4D2C-A9DD-A548EEBF9DB3";
layerId = "09C3B411-1FF3-4059-BBF0-56F50569E323";
name = "Color 0";
paths = (
{
closed = 1;
nodes = (
"19 572 LINE",
"101 572 LINE",
"101 700 LINE",
"19 700 LINE"
);
},
{
closed = 1;
nodes = (
"19 429 LINE",
"101 429 LINE",
"101 557 LINE",
"19 557 LINE"
);
},
{
closed = 1;
nodes = (
"19 286 LINE",
"101 286 LINE",
"101 414 LINE",
"19 414 LINE"
);
},
{
closed = 1;
nodes = (
"19 143 LINE",
"101 143 LINE",
"101 271 LINE",
"19 271 LINE"
);
},
{
closed = 1;
nodes = (
"115 0 LINE",
"197 0 LINE",
"197 128 LINE",
"115 128 LINE"
);
},
{
closed = 1;
nodes = (
"211 0 LINE",
"293 0 LINE",
"293 128 LINE",
"211 128 LINE"
);
},
{
closed = 1;
nodes = (
"307 0 LINE",
"389 0 LINE",
"389 128 LINE",
"307 128 LINE"
);
},
{
closed = 1;
nodes = (
"403 0 LINE",
"485 0 LINE",
"485 128 LINE",
"403 128 LINE"
);
},
{
closed = 1;
nodes = (
"499 572 LINE",
"581 572 LINE",
"581 700 LINE",
"499 700 LINE"
);
},
{
closed = 1;
nodes = (
"499 429 LINE",
"581 429 LINE",
"581 557 LINE",
"499 557 LINE"
);
},
{
closed = 1;
nodes = (
"499 286 LINE",
"581 286 LINE",
"581 414 LINE",
"499 414 LINE"
);
},
{
closed = 1;
nodes = (
"499 143 LINE",
"581 143 LINE",
"581 271 LINE",
"499 271 LINE"
);
},
{
closed = 1;
nodes = (
"211 429 LINE",
"293 429 LINE",
"293 557 LINE",
"211 557 LINE"
);
},
{
closed = 1;
nodes = (
"307 429 LINE",
"389 429 LINE",
"389 557 LINE",
"307 557 LINE"
);
},
{
closed = 1;
nodes = (
"211 286 LINE",
"293 286 LINE",
"293 414 LINE",
"211 414 LINE"
);
},
{
closed = 1;
nodes = (
"307 286 LINE",
"389 286 LINE",
"389 414 LINE",
"307 414 LINE"
);
},
{
closed = 1;
nodes = (
"211 143 LINE",
"293 143 LINE",
"293 271 LINE",
"211 271 LINE"
);
},
{
closed = 1;
nodes = (
"307 143 LINE",
"389 143 LINE",
"389 271 LINE",
"307 271 LINE"
);
}
);
width = 682;
},
{
associatedMasterId = "3BA1B4B2-6ACF-4D2C-A9DD-A548EEBF9DB3";
layerId = "61D14CA1-3F3C-402B-B4C7-A2D3FB77E3CB";
name = "Color 1";
paths = (
{
closed = 1;
nodes = (
"23 576 LINE",
"97 576 LINE",
"97 696 LINE",
"23 696 LINE"
);
},
{
closed = 1;
nodes = (
"23 433 LINE",
"97 433 LINE",
"97 553 LINE",
"23 553 LINE"
);
},
{
closed = 1;
nodes = (
"23 290 LINE",
"97 290 LINE",
"97 410 LINE",
"23 410 LINE"
);
},
{
closed = 1;
nodes = (
"23 147 LINE",
"97 147 LINE",
"97 267 LINE",
"23 267 LINE"
);
},
{
closed = 1;
nodes = (
"503 576 LINE",
"577 576 LINE",
"577 696 LINE",
"503 696 LINE"
);
},
{
closed = 1;
nodes = (
"503 433 LINE",
"577 433 LINE",
"577 553 LINE",
"503 553 LINE"
);
},
{
closed = 1;
nodes = (
"503 290 LINE",
"577 290 LINE",
"577 410 LINE",
"503 410 LINE"
);
},
{
closed = 1;
nodes = (
"503 147 LINE",
"577 147 LINE",
"577 267 LINE",
"503 267 LINE"
);
}
);
width = 682;
},
{
associatedMasterId = "3BA1B4B2-6ACF-4D2C-A9DD-A548EEBF9DB3";
layerId = "C54FC967-755A-41BC-AC57-7A5861A56E38";
name = "Color 2";
width = 682;
},
{
associatedMasterId = "3BA1B4B2-6ACF-4D2C-A9DD-A548EEBF9DB3";
layerId = "A0FD8CC3-3174-4902-A981-08069580C1DD";
name = "Color 3";
paths = (
{
closed = 1;
nodes = (
"311 433 LINE",
"385 433 LINE",
"385 553 LINE",
"311 553 LINE"
);
},
{
closed = 1;
nodes = (
"407 4 LINE",
"481 4 LINE",
"481 124 LINE",
"407 124 LINE"
);
}
);
width = 682;
},
{
associatedMasterId = "3BA1B4B2-6ACF-4D2C-A9DD-A548EEBF9DB3";
layerId = "8C36E662-B5F6-4A7C-966E-9B263D8EBCA6";
name = "Color 4";
paths = (
{
closed = 1;
nodes = (
"215 433 LINE",
"289 433 LINE",
"289 553 LINE",
"215 553 LINE"
);
},
{
closed = 1;
nodes = (
"215 290 LINE",
"289 290 LINE",
"289 410 LINE",
"215 410 LINE"
);
},
{
closed = 1;
nodes = (
"311 290 LINE",
"385 290 LINE",
"385 410 LINE",
"311 410 LINE"
);
},
{
closed = 1;
nodes = (
"215 147 LINE",
"289 147 LINE",
"289 267 LINE",
"215 267 LINE"
);
}
);
width = 682;
},
{
associatedMasterId = "3BA1B4B2-6ACF-4D2C-A9DD-A548EEBF9DB3";
layerId = "2E06F257-4547-402F-9AE1-A10ADB8871B3";
name = "Color 5";
width = 682;
},
{
associatedMasterId = "3BA1B4B2-6ACF-4D2C-A9DD-A548EEBF9DB3";
layerId = "5341F520-2DE0-43A8-B9D0-E44683A3F36B";
name = "Color 6";
paths = (
{
closed = 1;
nodes = (
"119 4 LINE",
"193 4 LINE",
"193 124 LINE",
"119 124 LINE"
);
},
{
closed = 1;
nodes = (
"215 4 LINE",
"289 4 LINE",
"289 124 LINE",
"215 124 LINE"
);
},
{
closed = 1;
nodes = (
"311 4 LINE",
"385 4 LINE",
"385 124 LINE",
"311 124 LINE"
);
},
{
closed = 1;
nodes = (
"311 147 LINE",
"385 147 LINE",
"385 267 LINE",
"311 267 LINE"
);
}
);
width = 682;
},
{
associatedMasterId = "3BA1B4B2-6ACF-4D2C-A9DD-A548EEBF9DB3";
layerId = "A448CEA3-D43F-458A-AA26-71112845446D";
name = "Color 7";
width = 682;
}
);
unicode = 0057;
},
{
glyphname = X;
lastChange = "2019-02-09 05:30:05 +0000";
layers = (
{
layerId = "3BA1B4B2-6ACF-4D2C-A9DD-A548EEBF9DB3";
paths = (
{
closed = 1;
nodes = (
"156 286 LINE",
"238 286 LINE",
"238 414 LINE",
"156 414 LINE"
);
},
{
closed = 1;
nodes = (
"252 286 LINE",
"334 286 LINE",
"334 414 LINE",
"252 414 LINE"
);
},
{
closed = 1;
nodes = (
"348 286 LINE",
"430 286 LINE",
"430 414 LINE",
"348 414 LINE"
);
},
{
closed = 1;
nodes = (
"444 286 LINE",
"526 286 LINE",
"526 414 LINE",
"444 414 LINE"
);
},
{
closed = 1;
nodes = (
"60 429 LINE",
"142 429 LINE",
"142 557 LINE",
"60 557 LINE"
);
},
{
closed = 1;
nodes = (
"156 429 LINE",
"238 429 LINE",
"238 557 LINE",
"156 557 LINE"
);
},
{
closed = 1;
nodes = (
"444 429 LINE",
"526 429 LINE",
"526 557 LINE",
"444 557 LINE"
);
},
{
closed = 1;
nodes = (
"540 429 LINE",
"622 429 LINE",
"622 557 LINE",
"540 557 LINE"
);
},
{
closed = 1;
nodes = (
"444 572 LINE",
"526 572 LINE",
"526 700 LINE",
"444 700 LINE"
);
},
{
closed = 1;
nodes = (
"540 572 LINE",
"622 572 LINE",
"622 700 LINE",
"540 700 LINE"
);
},
{
closed = 1;
nodes = (
"60 572 LINE",
"142 572 LINE",
"142 700 LINE",
"60 700 LINE"
);
},
{
closed = 1;
nodes = (
"156 572 LINE",
"238 572 LINE",
"238 700 LINE",
"156 700 LINE"
);
},
{
closed = 1;
nodes = (
"60 143 LINE",
"142 143 LINE",
"142 271 LINE",
"60 271 LINE"
);
},
{
closed = 1;
nodes = (
"156 143 LINE",
"238 143 LINE",
"238 271 LINE",
"156 271 LINE"
);
},
{
closed = 1;
nodes = (
"444 143 LINE",
"526 143 LINE",
"526 271 LINE",
"444 271 LINE"
);
},
{
closed = 1;
nodes = (
"540 143 LINE",
"622 143 LINE",
"622 271 LINE",
"540 271 LINE"
);
},
{
closed = 1;
nodes = (
"60 0 LINE",
"142 0 LINE",
"142 128 LINE",
"60 128 LINE"
);
},
{
closed = 1;
nodes = (
"156 0 LINE",
"238 0 LINE",
"238 128 LINE",
"156 128 LINE"
);
},
{
closed = 1;
nodes = (
"444 0 LINE",
"526 0 LINE",
"526 128 LINE",
"444 128 LINE"
);
},
{
closed = 1;
nodes = (
"540 0 LINE",
"622 0 LINE",
"622 128 LINE",
"540 128 LINE"
);
}
);
width = 682;
},
{
associatedMasterId = "3BA1B4B2-6ACF-4D2C-A9DD-A548EEBF9DB3";
layerId = "4E33AE66-7B2C-468D-9692-50FC0A858918";
name = "Color 0";
paths = (
{
closed = 1;
nodes = (
"115 286 LINE",
"197 286 LINE",
"197 414 LINE",
"115 414 LINE"
);
},
{
closed = 1;
nodes = (
"211 286 LINE",
"293 286 LINE",
"293 414 LINE",
"211 414 LINE"
);
},
{
closed = 1;
nodes = (
"307 286 LINE",
"389 286 LINE",
"389 414 LINE",
"307 414 LINE"
);
},
{
closed = 1;
nodes = (
"403 286 LINE",
"485 286 LINE",
"485 414 LINE",
"403 414 LINE"
);
},
{
closed = 1;
nodes = (
"19 429 LINE",
"101 429 LINE",
"101 557 LINE",
"19 557 LINE"
);
},
{
closed = 1;
nodes = (
"115 429 LINE",
"197 429 LINE",
"197 557 LINE",
"115 557 LINE"
);
},
{
closed = 1;
nodes = (
"403 429 LINE",
"485 429 LINE",
"485 557 LINE",
"403 557 LINE"
);
},
{
closed = 1;
nodes = (
"499 429 LINE",
"581 429 LINE",
"581 557 LINE",
"499 557 LINE"
);
},
{
closed = 1;
nodes = (
"403 572 LINE",
"485 572 LINE",
"485 700 LINE",
"403 700 LINE"
);
},
{
closed = 1;
nodes = (
"499 572 LINE",
"581 572 LINE",
"581 700 LINE",
"499 700 LINE"
);
},
{
closed = 1;
nodes = (
"19 572 LINE",
"101 572 LINE",
"101 700 LINE",
"19 700 LINE"
);
},
{
closed = 1;
nodes = (
"115 572 LINE",
"197 572 LINE",
"197 700 LINE",
"115 700 LINE"
);
},
{
closed = 1;
nodes = (
"19 143 LINE",
"101 143 LINE",
"101 271 LINE",
"19 271 LINE"
);
},
{
closed = 1;
nodes = (
"115 143 LINE",
"197 143 LINE",
"197 271 LINE",
"115 271 LINE"
);
},
{
closed = 1;
nodes = (
"403 143 LINE",
"485 143 LINE",
"485 271 LINE",
"403 271 LINE"
);
},
{
closed = 1;
nodes = (
"499 143 LINE",
"581 143 LINE",
"581 271 LINE",
"499 271 LINE"
);
},
{
closed = 1;
nodes = (
"19 0 LINE",
"101 0 LINE",
"101 128 LINE",
"19 128 LINE"
);
},
{
closed = 1;
nodes = (
"115 0 LINE",
"197 0 LINE",
"197 128 LINE",
"115 128 LINE"
);
},
{
closed = 1;
nodes = (
"403 0 LINE",
"485 0 LINE",
"485 128 LINE",
"403 128 LINE"
);
},
{
closed = 1;
nodes = (
"499 0 LINE",
"581 0 LINE",
"581 128 LINE",
"499 128 LINE"
);
}
);
width = 682;
},
{
associatedMasterId = "3BA1B4B2-6ACF-4D2C-A9DD-A548EEBF9DB3";
layerId = "36C578AA-4898-4401-AC44-CB289F436DD7";
name = "Color 1";
paths = (
{
closed = 1;
nodes = (
"119 290 LINE",
"193 290 LINE",
"193 410 LINE",
"119 410 LINE"
);
},
{
closed = 1;
nodes = (
"215 290 LINE",
"289 290 LINE",
"289 410 LINE",
"215 410 LINE"
);
},
{
closed = 1;
nodes = (
"311 290 LINE",
"385 290 LINE",
"385 410 LINE",
"311 410 LINE"
);
},
{
closed = 1;
nodes = (
"407 290 LINE",
"481 290 LINE",
"481 410 LINE",
"407 410 LINE"
);
}
);
width = 682;
},
{
associatedMasterId = "3BA1B4B2-6ACF-4D2C-A9DD-A548EEBF9DB3";
layerId = "5D735843-56F8-4432-9507-7125825053BA";
name = "Color 2";
width = 682;
},
{
associatedMasterId = "3BA1B4B2-6ACF-4D2C-A9DD-A548EEBF9DB3";
layerId = "120F5A99-C555-4F8D-9A5D-95FBD2396176";
name = "Color 3";
width = 682;
},
{
associatedMasterId = "3BA1B4B2-6ACF-4D2C-A9DD-A548EEBF9DB3";
layerId = "457041D3-69B2-4F99-BF04-03D24D5027C9";
name = "Color 4";
width = 682;
},
{
associatedMasterId = "3BA1B4B2-6ACF-4D2C-A9DD-A548EEBF9DB3";
layerId = "D5AED115-BB7A-4C04-BCDB-83EFFE865021";
name = "Color 5";
width = 682;
},
{
associatedMasterId = "3BA1B4B2-6ACF-4D2C-A9DD-A548EEBF9DB3";
layerId = "AF702481-75C3-4546-BE2C-F5AF52105699";
name = "Color 6";
width = 682;
},
{
associatedMasterId = "3BA1B4B2-6ACF-4D2C-A9DD-A548EEBF9DB3";
layerId = "F13C4B26-EA09-4770-BD15-3A03B17705A7";
name = "Color 7";
paths = (
{
closed = 1;
nodes = (
"23 576 LINE",
"97 576 LINE",
"97 696 LINE",
"23 696 LINE"
);
},
{
closed = 1;
nodes = (
"119 576 LINE",
"193 576 LINE",
"193 696 LINE",
"119 696 LINE"
);
},
{
closed = 1;
nodes = (
"23 433 LINE",
"97 433 LINE",
"97 553 LINE",
"23 553 LINE"
);
},
{
closed = 1;
nodes = (
"119 433 LINE",
"193 433 LINE",
"193 553 LINE",
"119 553 LINE"
);
},
{
closed = 1;
nodes = (
"407 576 LINE",
"481 576 LINE",
"481 696 LINE",
"407 696 LINE"
);
},
{
closed = 1;
nodes = (
"503 576 LINE",
"577 576 LINE",
"577 696 LINE",
"503 696 LINE"
);
},
{
closed = 1;
nodes = (
"407 433 LINE",
"481 433 LINE",
"481 553 LINE",
"407 553 LINE"
);
},
{
closed = 1;
nodes = (
"503 433 LINE",
"577 433 LINE",
"577 553 LINE",
"503 553 LINE"
);
},
{
closed = 1;
nodes = (
"407 147 LINE",
"481 147 LINE",
"481 267 LINE",
"407 267 LINE"
);
},
{
closed = 1;
nodes = (
"503 147 LINE",
"577 147 LINE",
"577 267 LINE",
"503 267 LINE"
);
},
{
closed = 1;
nodes = (
"503 4 LINE",
"577 4 LINE",
"577 124 LINE",
"503 124 LINE"
);
},
{
closed = 1;
nodes = (
"407 4 LINE",
"481 4 LINE",
"481 124 LINE",
"407 124 LINE"
);
},
{
closed = 1;
nodes = (
"23 147 LINE",
"97 147 LINE",
"97 267 LINE",
"23 267 LINE"
);
},
{
closed = 1;
nodes = (
"23 4 LINE",
"97 4 LINE",
"97 124 LINE",
"23 124 LINE"
);
},
{
closed = 1;
nodes = (
"119 147 LINE",
"193 147 LINE",
"193 267 LINE",
"119 267 LINE"
);
},
{
closed = 1;
nodes = (
"119 4 LINE",
"193 4 LINE",
"193 124 LINE",
"119 124 LINE"
);
}
);
width = 682;
}
);
unicode = 0058;
},
{
glyphname = Y;
lastChange = "2019-02-09 05:30:05 +0000";
layers = (
{
layerId = "3BA1B4B2-6ACF-4D2C-A9DD-A548EEBF9DB3";
paths = (
{
closed = 1;
nodes = (
"60 572 LINE",
"142 572 LINE",
"142 700 LINE",
"60 700 LINE"
);
},
{
closed = 1;
nodes = (
"156 572 LINE",
"238 572 LINE",
"238 700 LINE",
"156 700 LINE"
);
},
{
closed = 1;
nodes = (
"60 429 LINE",
"142 429 LINE",
"142 557 LINE",
"60 557 LINE"
);
},
{
closed = 1;
nodes = (
"156 429 LINE",
"238 429 LINE",
"238 557 LINE",
"156 557 LINE"
);
},
{
closed = 1;
nodes = (
"60 286 LINE",
"142 286 LINE",
"142 414 LINE",
"60 414 LINE"
);
},
{
closed = 1;
nodes = (
"156 286 LINE",
"238 286 LINE",
"238 414 LINE",
"156 414 LINE"
);
},
{
closed = 1;
nodes = (
"252 286 LINE",
"334 286 LINE",
"334 414 LINE",
"252 414 LINE"
);
},
{
closed = 1;
nodes = (
"348 286 LINE",
"430 286 LINE",
"430 414 LINE",
"348 414 LINE"
);
},
{
closed = 1;
nodes = (
"444 286 LINE",
"526 286 LINE",
"526 414 LINE",
"444 414 LINE"
);
},
{
closed = 1;
nodes = (
"540 286 LINE",
"622 286 LINE",
"622 414 LINE",
"540 414 LINE"
);
},
{
closed = 1;
nodes = (
"444 429 LINE",
"526 429 LINE",
"526 557 LINE",
"444 557 LINE"
);
},
{
closed = 1;
nodes = (
"540 429 LINE",
"622 429 LINE",
"622 557 LINE",
"540 557 LINE"
);
},
{
closed = 1;
nodes = (
"444 572 LINE",
"526 572 LINE",
"526 700 LINE",
"444 700 LINE"
);
},
{
closed = 1;
nodes = (
"540 572 LINE",
"622 572 LINE",
"622 700 LINE",
"540 700 LINE"
);
},
{
closed = 1;
nodes = (
"252 143 LINE",
"334 143 LINE",
"334 271 LINE",
"252 271 LINE"
);
},
{
closed = 1;
nodes = (
"348 143 LINE",
"430 143 LINE",
"430 271 LINE",
"348 271 LINE"
);
},
{
closed = 1;
nodes = (
"252 0 LINE",
"334 0 LINE",
"334 128 LINE",
"252 128 LINE"
);
},
{
closed = 1;
nodes = (
"348 0 LINE",
"430 0 LINE",
"430 128 LINE",
"348 128 LINE"
);
}
);
width = 682;
},
{
associatedMasterId = "3BA1B4B2-6ACF-4D2C-A9DD-A548EEBF9DB3";
layerId = "FA95320F-24F2-4441-8F72-5DEE79C6B942";
name = "Color 0";
paths = (
{
closed = 1;
nodes = (
"19 572 LINE",
"101 572 LINE",
"101 700 LINE",
"19 700 LINE"
);
},
{
closed = 1;
nodes = (
"115 572 LINE",
"197 572 LINE",
"197 700 LINE",
"115 700 LINE"
);
},
{
closed = 1;
nodes = (
"19 429 LINE",
"101 429 LINE",
"101 557 LINE",
"19 557 LINE"
);
},
{
closed = 1;
nodes = (
"115 429 LINE",
"197 429 LINE",
"197 557 LINE",
"115 557 LINE"
);
},
{
closed = 1;
nodes = (
"19 286 LINE",
"101 286 LINE",
"101 414 LINE",
"19 414 LINE"
);
},
{
closed = 1;
nodes = (
"115 286 LINE",
"197 286 LINE",
"197 414 LINE",
"115 414 LINE"
);
},
{
closed = 1;
nodes = (
"211 286 LINE",
"293 286 LINE",
"293 414 LINE",
"211 414 LINE"
);
},
{
closed = 1;
nodes = (
"307 286 LINE",
"389 286 LINE",
"389 414 LINE",
"307 414 LINE"
);
},
{
closed = 1;
nodes = (
"403 286 LINE",
"485 286 LINE",
"485 414 LINE",
"403 414 LINE"
);
},
{
closed = 1;
nodes = (
"499 286 LINE",
"581 286 LINE",
"581 414 LINE",
"499 414 LINE"
);
},
{
closed = 1;
nodes = (
"403 429 LINE",
"485 429 LINE",
"485 557 LINE",
"403 557 LINE"
);
},
{
closed = 1;
nodes = (
"499 429 LINE",
"581 429 LINE",
"581 557 LINE",
"499 557 LINE"
);
},
{
closed = 1;
nodes = (
"403 572 LINE",
"485 572 LINE",
"485 700 LINE",
"403 700 LINE"
);
},
{
closed = 1;
nodes = (
"499 572 LINE",
"581 572 LINE",
"581 700 LINE",
"499 700 LINE"
);
},
{
closed = 1;
nodes = (
"211 143 LINE",
"293 143 LINE",
"293 271 LINE",
"211 271 LINE"
);
},
{
closed = 1;
nodes = (
"307 143 LINE",
"389 143 LINE",
"389 271 LINE",
"307 271 LINE"
);
},
{
closed = 1;
nodes = (
"211 0 LINE",
"293 0 LINE",
"293 128 LINE",
"211 128 LINE"
);
},
{
closed = 1;
nodes = (
"307 0 LINE",
"389 0 LINE",
"389 128 LINE",
"307 128 LINE"
);
}
);
width = 682;
},
{
associatedMasterId = "3BA1B4B2-6ACF-4D2C-A9DD-A548EEBF9DB3";
layerId = "C70B264C-69B0-483B-9AAE-8E21107F1D6D";
name = "Color 1";
width = 682;
},
{
associatedMasterId = "3BA1B4B2-6ACF-4D2C-A9DD-A548EEBF9DB3";
layerId = "48B770C0-6960-4B94-9477-166456E280DD";
name = "Color 2";
paths = (
{
closed = 1;
nodes = (
"119 576 LINE",
"193 576 LINE",
"193 696 LINE",
"119 696 LINE"
);
},
{
closed = 1;
nodes = (
"23 576 LINE",
"97 576 LINE",
"97 696 LINE",
"23 696 LINE"
);
},
{
closed = 1;
nodes = (
"23 433 LINE",
"97 433 LINE",
"97 553 LINE",
"23 553 LINE"
);
},
{
closed = 1;
nodes = (
"23 290 LINE",
"97 290 LINE",
"97 410 LINE",
"23 410 LINE"
);
}
);
width = 682;
},
{
associatedMasterId = "3BA1B4B2-6ACF-4D2C-A9DD-A548EEBF9DB3";
layerId = "CB590D43-6DE6-491D-8109-64B952127893";
name = "Color 3";
paths = (
{
closed = 1;
nodes = (
"119 433 LINE",
"193 433 LINE",
"193 553 LINE",
"119 553 LINE"
);
},
{
closed = 1;
nodes = (
"119 290 LINE",
"193 290 LINE",
"193 410 LINE",
"119 410 LINE"
);
},
{
closed = 1;
nodes = (
"215 290 LINE",
"289 290 LINE",
"289 410 LINE",
"215 410 LINE"
);
},
{
closed = 1;
nodes = (
"215 147 LINE",
"289 147 LINE",
"289 267 LINE",
"215 267 LINE"
);
}
);
width = 682;
},
{
associatedMasterId = "3BA1B4B2-6ACF-4D2C-A9DD-A548EEBF9DB3";
layerId = "D7B2AD66-967D-485F-954C-ABFC77E84F82";
name = "Color 4";
width = 682;
},
{
associatedMasterId = "3BA1B4B2-6ACF-4D2C-A9DD-A548EEBF9DB3";
layerId = "3C2ABA86-3F7D-42E6-97F3-9603C6BC3A01";
name = "Color 5";
paths = (
{
closed = 1;
nodes = (
"311 147 LINE",
"385 147 LINE",
"385 267 LINE",
"311 267 LINE"
);
},
{
closed = 1;
nodes = (
"311 290 LINE",
"385 290 LINE",
"385 410 LINE",
"311 410 LINE"
);
},
{
closed = 1;
nodes = (
"407 290 LINE",
"481 290 LINE",
"481 410 LINE",
"407 410 LINE"
);
},
{
closed = 1;
nodes = (
"407 433 LINE",
"481 433 LINE",
"481 553 LINE",
"407 553 LINE"
);
}
);
width = 682;
},
{
associatedMasterId = "3BA1B4B2-6ACF-4D2C-A9DD-A548EEBF9DB3";
layerId = "E561D88A-1F97-43C2-8430-2FDCD055AD13";
name = "Color 6";
paths = (
{
closed = 1;
nodes = (
"407 576 LINE",
"481 576 LINE",
"481 696 LINE",
"407 696 LINE"
);
},
{
closed = 1;
nodes = (
"503 576 LINE",
"577 576 LINE",
"577 696 LINE",
"503 696 LINE"
);
},
{
closed = 1;
nodes = (
"503 433 LINE",
"577 433 LINE",
"577 553 LINE",
"503 553 LINE"
);
},
{
closed = 1;
nodes = (
"503 290 LINE",
"577 290 LINE",
"577 410 LINE",
"503 410 LINE"
);
}
);
width = 682;
},
{
associatedMasterId = "3BA1B4B2-6ACF-4D2C-A9DD-A548EEBF9DB3";
layerId = "BAB45CE4-38DF-41EB-9C20-107F3404DD89";
name = "Color 7";
paths = (
{
closed = 1;
nodes = (
"215 4 LINE",
"289 4 LINE",
"289 124 LINE",
"215 124 LINE"
);
},
{
closed = 1;
nodes = (
"311 4 LINE",
"385 4 LINE",
"385 124 LINE",
"311 124 LINE"
);
}
);
width = 682;
}
);
unicode = 0059;
},
{
glyphname = Z;
lastChange = "2019-02-09 05:30:05 +0000";
layers = (
{
layerId = "3BA1B4B2-6ACF-4D2C-A9DD-A548EEBF9DB3";
paths = (
{
closed = 1;
nodes = (
"60 572 LINE",
"142 572 LINE",
"142 700 LINE",
"60 700 LINE"
);
},
{
closed = 1;
nodes = (
"156 572 LINE",
"238 572 LINE",
"238 700 LINE",
"156 700 LINE"
);
},
{
closed = 1;
nodes = (
"252 572 LINE",
"334 572 LINE",
"334 700 LINE",
"252 700 LINE"
);
},
{
closed = 1;
nodes = (
"348 572 LINE",
"430 572 LINE",
"430 700 LINE",
"348 700 LINE"
);
},
{
closed = 1;
nodes = (
"444 572 LINE",
"526 572 LINE",
"526 700 LINE",
"444 700 LINE"
);
},
{
closed = 1;
nodes = (
"540 572 LINE",
"622 572 LINE",
"622 700 LINE",
"540 700 LINE"
);
},
{
closed = 1;
nodes = (
"444 429 LINE",
"526 429 LINE",
"526 557 LINE",
"444 557 LINE"
);
},
{
closed = 1;
nodes = (
"540 429 LINE",
"622 429 LINE",
"622 557 LINE",
"540 557 LINE"
);
},
{
closed = 1;
nodes = (
"252 286 LINE",
"334 286 LINE",
"334 414 LINE",
"252 414 LINE"
);
},
{
closed = 1;
nodes = (
"348 286 LINE",
"430 286 LINE",
"430 414 LINE",
"348 414 LINE"
);
},
{
closed = 1;
nodes = (
"60 143 LINE",
"142 143 LINE",
"142 271 LINE",
"60 271 LINE"
);
},
{
closed = 1;
nodes = (
"156 143 LINE",
"238 143 LINE",
"238 271 LINE",
"156 271 LINE"
);
},
{
closed = 1;
nodes = (
"60 0 LINE",
"142 0 LINE",
"142 128 LINE",
"60 128 LINE"
);
},
{
closed = 1;
nodes = (
"156 0 LINE",
"238 0 LINE",
"238 128 LINE",
"156 128 LINE"
);
},
{
closed = 1;
nodes = (
"252 0 LINE",
"334 0 LINE",
"334 128 LINE",
"252 128 LINE"
);
},
{
closed = 1;
nodes = (
"348 0 LINE",
"430 0 LINE",
"430 128 LINE",
"348 128 LINE"
);
},
{
closed = 1;
nodes = (
"444 0 LINE",
"526 0 LINE",
"526 128 LINE",
"444 128 LINE"
);
},
{
closed = 1;
nodes = (
"540 0 LINE",
"622 0 LINE",
"622 128 LINE",
"540 128 LINE"
);
}
);
width = 682;
},
{
associatedMasterId = "3BA1B4B2-6ACF-4D2C-A9DD-A548EEBF9DB3";
layerId = "D410B993-EFAE-48BE-A64A-CB26B687817D";
name = "Color 0";
paths = (
{
closed = 1;
nodes = (
"19 572 LINE",
"101 572 LINE",
"101 700 LINE",
"19 700 LINE"
);
},
{
closed = 1;
nodes = (
"115 572 LINE",
"197 572 LINE",
"197 700 LINE",
"115 700 LINE"
);
},
{
closed = 1;
nodes = (
"211 572 LINE",
"293 572 LINE",
"293 700 LINE",
"211 700 LINE"
);
},
{
closed = 1;
nodes = (
"307 572 LINE",
"389 572 LINE",
"389 700 LINE",
"307 700 LINE"
);
},
{
closed = 1;
nodes = (
"403 572 LINE",
"485 572 LINE",
"485 700 LINE",
"403 700 LINE"
);
},
{
closed = 1;
nodes = (
"499 572 LINE",
"581 572 LINE",
"581 700 LINE",
"499 700 LINE"
);
},
{
closed = 1;
nodes = (
"403 429 LINE",
"485 429 LINE",
"485 557 LINE",
"403 557 LINE"
);
},
{
closed = 1;
nodes = (
"499 429 LINE",
"581 429 LINE",
"581 557 LINE",
"499 557 LINE"
);
},
{
closed = 1;
nodes = (
"211 286 LINE",
"293 286 LINE",
"293 414 LINE",
"211 414 LINE"
);
},
{
closed = 1;
nodes = (
"307 286 LINE",
"389 286 LINE",
"389 414 LINE",
"307 414 LINE"
);
},
{
closed = 1;
nodes = (
"19 143 LINE",
"101 143 LINE",
"101 271 LINE",
"19 271 LINE"
);
},
{
closed = 1;
nodes = (
"115 143 LINE",
"197 143 LINE",
"197 271 LINE",
"115 271 LINE"
);
},
{
closed = 1;
nodes = (
"19 0 LINE",
"101 0 LINE",
"101 128 LINE",
"19 128 LINE"
);
},
{
closed = 1;
nodes = (
"115 0 LINE",
"197 0 LINE",
"197 128 LINE",
"115 128 LINE"
);
},
{
closed = 1;
nodes = (
"211 0 LINE",
"293 0 LINE",
"293 128 LINE",
"211 128 LINE"
);
},
{
closed = 1;
nodes = (
"307 0 LINE",
"389 0 LINE",
"389 128 LINE",
"307 128 LINE"
);
},
{
closed = 1;
nodes = (
"403 0 LINE",
"485 0 LINE",
"485 128 LINE",
"403 128 LINE"
);
},
{
closed = 1;
nodes = (
"499 0 LINE",
"581 0 LINE",
"581 128 LINE",
"499 128 LINE"
);
}
);
width = 682;
},
{
associatedMasterId = "3BA1B4B2-6ACF-4D2C-A9DD-A548EEBF9DB3";
layerId = "5EAD5007-86E1-4C67-AC8B-32806486E3CB";
name = "Color 1";
paths = (
{
closed = 1;
nodes = (
"23 576 LINE",
"97 576 LINE",
"97 696 LINE",
"23 696 LINE"
);
},
{
closed = 1;
nodes = (
"119 576 LINE",
"193 576 LINE",
"193 696 LINE",
"119 696 LINE"
);
},
{
closed = 1;
nodes = (
"215 576 LINE",
"289 576 LINE",
"289 696 LINE",
"215 696 LINE"
);
},
{
closed = 1;
nodes = (
"311 576 LINE",
"385 576 LINE",
"385 696 LINE",
"311 696 LINE"
);
},
{
closed = 1;
nodes = (
"215 4 LINE",
"289 4 LINE",
"289 124 LINE",
"215 124 LINE"
);
},
{
closed = 1;
nodes = (
"311 4 LINE",
"385 4 LINE",
"385 124 LINE",
"311 124 LINE"
);
},
{
closed = 1;
nodes = (
"407 4 LINE",
"481 4 LINE",
"481 124 LINE",
"407 124 LINE"
);
},
{
closed = 1;
nodes = (
"503 4 LINE",
"577 4 LINE",
"577 124 LINE",
"503 124 LINE"
);
}
);
width = 682;
},
{
associatedMasterId = "3BA1B4B2-6ACF-4D2C-A9DD-A548EEBF9DB3";
layerId = "8A7C62F8-C14A-4BF7-97F1-F044F3F8798E";
name = "Color 2";
width = 682;
},
{
associatedMasterId = "3BA1B4B2-6ACF-4D2C-A9DD-A548EEBF9DB3";
layerId = "0D926E88-CC19-4404-9704-20C7F3114917";
name = "Color 3";
width = 682;
},
{
associatedMasterId = "3BA1B4B2-6ACF-4D2C-A9DD-A548EEBF9DB3";
layerId = "E3FDABF8-D4FD-4B80-A6F0-A556D3132DBA";
name = "Color 4";
paths = (
{
closed = 1;
nodes = (
"215 290 LINE",
"289 290 LINE",
"289 410 LINE",
"215 410 LINE"
);
},
{
closed = 1;
nodes = (
"311 290 LINE",
"385 290 LINE",
"385 410 LINE",
"311 410 LINE"
);
}
);
width = 682;
},
{
associatedMasterId = "3BA1B4B2-6ACF-4D2C-A9DD-A548EEBF9DB3";
layerId = "BDEBF6E0-969C-4407-8C5E-8B97A9164A27";
name = "Color 5";
width = 682;
},
{
associatedMasterId = "3BA1B4B2-6ACF-4D2C-A9DD-A548EEBF9DB3";
layerId = "E984D25C-E87E-417A-917F-379840C1BCB7";
name = "Color 6";
width = 682;
},
{
associatedMasterId = "3BA1B4B2-6ACF-4D2C-A9DD-A548EEBF9DB3";
layerId = "C0A24AD3-D587-4FA9-BF7E-9E3266A9B715";
name = "Color 7";
paths = (
{
closed = 1;
nodes = (
"23 147 LINE",
"97 147 LINE",
"97 267 LINE",
"23 267 LINE"
);
},
{
closed = 1;
nodes = (
"119 147 LINE",
"193 147 LINE",
"193 267 LINE",
"119 267 LINE"
);
},
{
closed = 1;
nodes = (
"23 4 LINE",
"97 4 LINE",
"97 124 LINE",
"23 124 LINE"
);
},
{
closed = 1;
nodes = (
"119 4 LINE",
"193 4 LINE",
"193 124 LINE",
"119 124 LINE"
);
},
{
closed = 1;
nodes = (
"407 576 LINE",
"481 576 LINE",
"481 696 LINE",
"407 696 LINE"
);
},
{
closed = 1;
nodes = (
"503 576 LINE",
"577 576 LINE",
"577 696 LINE",
"503 696 LINE"
);
},
{
closed = 1;
nodes = (
"503 433 LINE",
"577 433 LINE",
"577 553 LINE",
"503 553 LINE"
);
},
{
closed = 1;
nodes = (
"407 433 LINE",
"481 433 LINE",
"481 553 LINE",
"407 553 LINE"
);
}
);
width = 682;
}
);
unicode = 005A;
},
{
glyphname = a;
lastChange = "2019-02-09 05:30:05 +0000";
layers = (
{
layerId = "3BA1B4B2-6ACF-4D2C-A9DD-A548EEBF9DB3";
paths = (
{
closed = 1;
nodes = (
"156 572 LINE",
"238 572 LINE",
"238 700 LINE",
"156 700 LINE"
);
},
{
closed = 1;
nodes = (
"252 572 LINE",
"334 572 LINE",
"334 700 LINE",
"252 700 LINE"
);
},
{
closed = 1;
nodes = (
"348 572 LINE",
"430 572 LINE",
"430 700 LINE",
"348 700 LINE"
);
},
{
closed = 1;
nodes = (
"444 572 LINE",
"526 572 LINE",
"526 700 LINE",
"444 700 LINE"
);
},
{
closed = 1;
nodes = (
"60 429 LINE",
"142 429 LINE",
"142 557 LINE",
"60 557 LINE"
);
},
{
closed = 1;
nodes = (
"156 429 LINE",
"238 429 LINE",
"238 557 LINE",
"156 557 LINE"
);
},
{
closed = 1;
nodes = (
"444 429 LINE",
"526 429 LINE",
"526 557 LINE",
"444 557 LINE"
);
},
{
closed = 1;
nodes = (
"540 429 LINE",
"622 429 LINE",
"622 557 LINE",
"540 557 LINE"
);
},
{
closed = 1;
nodes = (
"60 286 LINE",
"142 286 LINE",
"142 414 LINE",
"60 414 LINE"
);
},
{
closed = 1;
nodes = (
"156 286 LINE",
"238 286 LINE",
"238 414 LINE",
"156 414 LINE"
);
},
{
closed = 1;
nodes = (
"444 286 LINE",
"526 286 LINE",
"526 414 LINE",
"444 414 LINE"
);
},
{
closed = 1;
nodes = (
"540 286 LINE",
"622 286 LINE",
"622 414 LINE",
"540 414 LINE"
);
},
{
closed = 1;
nodes = (
"60 143 LINE",
"142 143 LINE",
"142 271 LINE",
"60 271 LINE"
);
},
{
closed = 1;
nodes = (
"156 143 LINE",
"238 143 LINE",
"238 271 LINE",
"156 271 LINE"
);
},
{
closed = 1;
nodes = (
"60 0 LINE",
"142 0 LINE",
"142 128 LINE",
"60 128 LINE"
);
},
{
closed = 1;
nodes = (
"156 0 LINE",
"238 0 LINE",
"238 128 LINE",
"156 128 LINE"
);
},
{
closed = 1;
nodes = (
"444 143 LINE",
"526 143 LINE",
"526 271 LINE",
"444 271 LINE"
);
},
{
closed = 1;
nodes = (
"540 143 LINE",
"622 143 LINE",
"622 271 LINE",
"540 271 LINE"
);
},
{
closed = 1;
nodes = (
"444 0 LINE",
"526 0 LINE",
"526 128 LINE",
"444 128 LINE"
);
},
{
closed = 1;
nodes = (
"540 0 LINE",
"622 0 LINE",
"622 128 LINE",
"540 128 LINE"
);
},
{
closed = 1;
nodes = (
"252 286 LINE",
"334 286 LINE",
"334 414 LINE",
"252 414 LINE"
);
},
{
closed = 1;
nodes = (
"348 286 LINE",
"430 286 LINE",
"430 414 LINE",
"348 414 LINE"
);
}
);
width = 682;
},
{
associatedMasterId = "3BA1B4B2-6ACF-4D2C-A9DD-A548EEBF9DB3";
layerId = "695F45C0-7A6C-4922-ABEF-A984638ED434";
name = "Color 0";
paths = (
{
closed = 1;
nodes = (
"115 572 LINE",
"197 572 LINE",
"197 700 LINE",
"115 700 LINE"
);
},
{
closed = 1;
nodes = (
"211 572 LINE",
"293 572 LINE",
"293 700 LINE",
"211 700 LINE"
);
},
{
closed = 1;
nodes = (
"307 572 LINE",
"389 572 LINE",
"389 700 LINE",
"307 700 LINE"
);
},
{
closed = 1;
nodes = (
"403 572 LINE",
"485 572 LINE",
"485 700 LINE",
"403 700 LINE"
);
},
{
closed = 1;
nodes = (
"19 429 LINE",
"101 429 LINE",
"101 557 LINE",
"19 557 LINE"
);
},
{
closed = 1;
nodes = (
"115 429 LINE",
"197 429 LINE",
"197 557 LINE",
"115 557 LINE"
);
},
{
closed = 1;
nodes = (
"403 429 LINE",
"485 429 LINE",
"485 557 LINE",
"403 557 LINE"
);
},
{
closed = 1;
nodes = (
"499 429 LINE",
"581 429 LINE",
"581 557 LINE",
"499 557 LINE"
);
},
{
closed = 1;
nodes = (
"19 286 LINE",
"101 286 LINE",
"101 414 LINE",
"19 414 LINE"
);
},
{
closed = 1;
nodes = (
"115 286 LINE",
"197 286 LINE",
"197 414 LINE",
"115 414 LINE"
);
},
{
closed = 1;
nodes = (
"403 286 LINE",
"485 286 LINE",
"485 414 LINE",
"403 414 LINE"
);
},
{
closed = 1;
nodes = (
"499 286 LINE",
"581 286 LINE",
"581 414 LINE",
"499 414 LINE"
);
},
{
closed = 1;
nodes = (
"19 143 LINE",
"101 143 LINE",
"101 271 LINE",
"19 271 LINE"
);
},
{
closed = 1;
nodes = (
"115 143 LINE",
"197 143 LINE",
"197 271 LINE",
"115 271 LINE"
);
},
{
closed = 1;
nodes = (
"19 0 LINE",
"101 0 LINE",
"101 128 LINE",
"19 128 LINE"
);
},
{
closed = 1;
nodes = (
"115 0 LINE",
"197 0 LINE",
"197 128 LINE",
"115 128 LINE"
);
},
{
closed = 1;
nodes = (
"403 143 LINE",
"485 143 LINE",
"485 271 LINE",
"403 271 LINE"
);
},
{
closed = 1;
nodes = (
"499 143 LINE",
"581 143 LINE",
"581 271 LINE",
"499 271 LINE"
);
},
{
closed = 1;
nodes = (
"403 0 LINE",
"485 0 LINE",
"485 128 LINE",
"403 128 LINE"
);
},
{
closed = 1;
nodes = (
"499 0 LINE",
"581 0 LINE",
"581 128 LINE",
"499 128 LINE"
);
},
{
closed = 1;
nodes = (
"211 286 LINE",
"293 286 LINE",
"293 414 LINE",
"211 414 LINE"
);
},
{
closed = 1;
nodes = (
"307 286 LINE",
"389 286 LINE",
"389 414 LINE",
"307 414 LINE"
);
},
{
closed = 1;
nodes = (
"115 572 LINE",
"197 572 LINE",
"197 700 LINE",
"115 700 LINE"
);
},
{
closed = 1;
nodes = (
"211 572 LINE",
"293 572 LINE",
"293 700 LINE",
"211 700 LINE"
);
},
{
closed = 1;
nodes = (
"307 572 LINE",
"389 572 LINE",
"389 700 LINE",
"307 700 LINE"
);
},
{
closed = 1;
nodes = (
"403 572 LINE",
"485 572 LINE",
"485 700 LINE",
"403 700 LINE"
);
},
{
closed = 1;
nodes = (
"19 429 LINE",
"101 429 LINE",
"101 557 LINE",
"19 557 LINE"
);
},
{
closed = 1;
nodes = (
"115 429 LINE",
"197 429 LINE",
"197 557 LINE",
"115 557 LINE"
);
},
{
closed = 1;
nodes = (
"403 429 LINE",
"485 429 LINE",
"485 557 LINE",
"403 557 LINE"
);
},
{
closed = 1;
nodes = (
"499 429 LINE",
"581 429 LINE",
"581 557 LINE",
"499 557 LINE"
);
},
{
closed = 1;
nodes = (
"19 286 LINE",
"101 286 LINE",
"101 414 LINE",
"19 414 LINE"
);
},
{
closed = 1;
nodes = (
"115 286 LINE",
"197 286 LINE",
"197 414 LINE",
"115 414 LINE"
);
},
{
closed = 1;
nodes = (
"403 286 LINE",
"485 286 LINE",
"485 414 LINE",
"403 414 LINE"
);
},
{
closed = 1;
nodes = (
"499 286 LINE",
"581 286 LINE",
"581 414 LINE",
"499 414 LINE"
);
},
{
closed = 1;
nodes = (
"19 143 LINE",
"101 143 LINE",
"101 271 LINE",
"19 271 LINE"
);
},
{
closed = 1;
nodes = (
"115 143 LINE",
"197 143 LINE",
"197 271 LINE",
"115 271 LINE"
);
},
{
closed = 1;
nodes = (
"19 0 LINE",
"101 0 LINE",
"101 128 LINE",
"19 128 LINE"
);
},
{
closed = 1;
nodes = (
"115 0 LINE",
"197 0 LINE",
"197 128 LINE",
"115 128 LINE"
);
},
{
closed = 1;
nodes = (
"403 143 LINE",
"485 143 LINE",
"485 271 LINE",
"403 271 LINE"
);
},
{
closed = 1;
nodes = (
"499 143 LINE",
"581 143 LINE",
"581 271 LINE",
"499 271 LINE"
);
},
{
closed = 1;
nodes = (
"403 0 LINE",
"485 0 LINE",
"485 128 LINE",
"403 128 LINE"
);
},
{
closed = 1;
nodes = (
"499 0 LINE",
"581 0 LINE",
"581 128 LINE",
"499 128 LINE"
);
},
{
closed = 1;
nodes = (
"211 286 LINE",
"293 286 LINE",
"293 414 LINE",
"211 414 LINE"
);
},
{
closed = 1;
nodes = (
"307 286 LINE",
"389 286 LINE",
"389 414 LINE",
"307 414 LINE"
);
}
);
width = 682;
},
{
associatedMasterId = "3BA1B4B2-6ACF-4D2C-A9DD-A548EEBF9DB3";
layerId = "69B2F0BC-09D5-41D1-BEBF-646BD4542CE9";
name = "Color 1";
paths = (
{
closed = 1;
nodes = (
"119 576 LINE",
"193 576 LINE",
"193 696 LINE",
"119 696 LINE"
);
},
{
closed = 1;
nodes = (
"215 576 LINE",
"289 576 LINE",
"289 696 LINE",
"215 696 LINE"
);
},
{
closed = 1;
nodes = (
"311 576 LINE",
"385 576 LINE",
"385 696 LINE",
"311 696 LINE"
);
},
{
closed = 1;
nodes = (
"407 576 LINE",
"481 576 LINE",
"481 696 LINE",
"407 696 LINE"
);
}
);
width = 682;
},
{
associatedMasterId = "3BA1B4B2-6ACF-4D2C-A9DD-A548EEBF9DB3";
layerId = "D970A722-9BF1-406E-B2C1-C9DFA9C30150";
name = "Color 2";
paths = (
{
closed = 1;
nodes = (
"503 290 LINE",
"577 290 LINE",
"577 410 LINE",
"503 410 LINE"
);
},
{
closed = 1;
nodes = (
"503 147 LINE",
"577 147 LINE",
"577 267 LINE",
"503 267 LINE"
);
},
{
closed = 1;
nodes = (
"503 4 LINE",
"577 4 LINE",
"577 124 LINE",
"503 124 LINE"
);
},
{
closed = 1;
nodes = (
"407 4 LINE",
"481 4 LINE",
"481 124 LINE",
"407 124 LINE"
);
}
);
width = 682;
},
{
associatedMasterId = "3BA1B4B2-6ACF-4D2C-A9DD-A548EEBF9DB3";
layerId = "EFAE2D3F-AA22-4D29-92F4-02A208C64D3C";
name = "Color 3";
paths = (
{
closed = 1;
nodes = (
"503 433 LINE",
"577 433 LINE",
"577 553 LINE",
"503 553 LINE"
);
},
{
closed = 1;
nodes = (
"407 433 LINE",
"481 433 LINE",
"481 553 LINE",
"407 553 LINE"
);
},
{
closed = 1;
nodes = (
"407 290 LINE",
"481 290 LINE",
"481 410 LINE",
"407 410 LINE"
);
},
{
closed = 1;
nodes = (
"311 290 LINE",
"385 290 LINE",
"385 410 LINE",
"311 410 LINE"
);
}
);
width = 682;
},
{
associatedMasterId = "3BA1B4B2-6ACF-4D2C-A9DD-A548EEBF9DB3";
layerId = "FE5DC615-48AE-4349-A3E9-FDDAEECB0FC5";
name = "Color 4";
paths = (
{
closed = 1;
nodes = (
"23 290 LINE",
"97 290 LINE",
"97 410 LINE",
"23 410 LINE"
);
},
{
closed = 1;
nodes = (
"23 147 LINE",
"97 147 LINE",
"97 267 LINE",
"23 267 LINE"
);
},
{
closed = 1;
nodes = (
"119 147 LINE",
"193 147 LINE",
"193 267 LINE",
"119 267 LINE"
);
},
{
closed = 1;
nodes = (
"23 4 LINE",
"97 4 LINE",
"97 124 LINE",
"23 124 LINE"
);
}
);
width = 682;
},
{
associatedMasterId = "3BA1B4B2-6ACF-4D2C-A9DD-A548EEBF9DB3";
layerId = "11017B02-9D7B-4ACB-B9E8-551032CEED4D";
name = "Color 5";
paths = (
{
closed = 1;
nodes = (
"23 433 LINE",
"97 433 LINE",
"97 553 LINE",
"23 553 LINE"
);
},
{
closed = 1;
nodes = (
"119 433 LINE",
"193 433 LINE",
"193 553 LINE",
"119 553 LINE"
);
},
{
closed = 1;
nodes = (
"119 290 LINE",
"193 290 LINE",
"193 410 LINE",
"119 410 LINE"
);
},
{
closed = 1;
nodes = (
"215 290 LINE",
"289 290 LINE",
"289 410 LINE",
"215 410 LINE"
);
}
);
width = 682;
},
{
associatedMasterId = "3BA1B4B2-6ACF-4D2C-A9DD-A548EEBF9DB3";
layerId = "46057FF8-F48F-44B3-AFA6-6E922CA70814";
name = "Color 6";
paths = (
{
closed = 1;
nodes = (
"407 147 LINE",
"481 147 LINE",
"481 267 LINE",
"407 267 LINE"
);
},
{
closed = 1;
nodes = (
"119 4 LINE",
"193 4 LINE",
"193 124 LINE",
"119 124 LINE"
);
}
);
width = 682;
},
{
associatedMasterId = "3BA1B4B2-6ACF-4D2C-A9DD-A548EEBF9DB3";
layerId = "6E7DE7E3-F8B9-4A34-9153-4D7343DB842B";
name = "Color 7";
width = 682;
}
);
unicode = 0061;
},
{
glyphname = b;
lastChange = "2019-02-09 05:30:05 +0000";
layers = (
{
layerId = "3BA1B4B2-6ACF-4D2C-A9DD-A548EEBF9DB3";
paths = (
{
closed = 1;
nodes = (
"60 572 LINE",
"142 572 LINE",
"142 700 LINE",
"60 700 LINE"
);
},
{
closed = 1;
nodes = (
"156 572 LINE",
"238 572 LINE",
"238 700 LINE",
"156 700 LINE"
);
},
{
closed = 1;
nodes = (
"60 429 LINE",
"142 429 LINE",
"142 557 LINE",
"60 557 LINE"
);
},
{
closed = 1;
nodes = (
"156 429 LINE",
"238 429 LINE",
"238 557 LINE",
"156 557 LINE"
);
},
{
closed = 1;
nodes = (
"60 286 LINE",
"142 286 LINE",
"142 414 LINE",
"60 414 LINE"
);
},
{
closed = 1;
nodes = (
"156 286 LINE",
"238 286 LINE",
"238 414 LINE",
"156 414 LINE"
);
},
{
closed = 1;
nodes = (
"60 143 LINE",
"142 143 LINE",
"142 271 LINE",
"60 271 LINE"
);
},
{
closed = 1;
nodes = (
"156 143 LINE",
"238 143 LINE",
"238 271 LINE",
"156 271 LINE"
);
},
{
closed = 1;
nodes = (
"60 0 LINE",
"142 0 LINE",
"142 128 LINE",
"60 128 LINE"
);
},
{
closed = 1;
nodes = (
"156 0 LINE",
"238 0 LINE",
"238 128 LINE",
"156 128 LINE"
);
},
{
closed = 1;
nodes = (
"252 286 LINE",
"334 286 LINE",
"334 414 LINE",
"252 414 LINE"
);
},
{
closed = 1;
nodes = (
"348 286 LINE",
"430 286 LINE",
"430 414 LINE",
"348 414 LINE"
);
},
{
closed = 1;
nodes = (
"444 286 LINE",
"526 286 LINE",
"526 414 LINE",
"444 414 LINE"
);
},
{
closed = 1;
nodes = (
"444 429 LINE",
"526 429 LINE",
"526 557 LINE",
"444 557 LINE"
);
},
{
closed = 1;
nodes = (
"540 429 LINE",
"622 429 LINE",
"622 557 LINE",
"540 557 LINE"
);
},
{
closed = 1;
nodes = (
"444 572 LINE",
"526 572 LINE",
"526 700 LINE",
"444 700 LINE"
);
},
{
closed = 1;
nodes = (
"252 572 LINE",
"334 572 LINE",
"334 700 LINE",
"252 700 LINE"
);
},
{
closed = 1;
nodes = (
"348 572 LINE",
"430 572 LINE",
"430 700 LINE",
"348 700 LINE"
);
},
{
closed = 1;
nodes = (
"444 143 LINE",
"526 143 LINE",
"526 271 LINE",
"444 271 LINE"
);
},
{
closed = 1;
nodes = (
"540 143 LINE",
"622 143 LINE",
"622 271 LINE",
"540 271 LINE"
);
},
{
closed = 1;
nodes = (
"444 0 LINE",
"526 0 LINE",
"526 128 LINE",
"444 128 LINE"
);
},
{
closed = 1;
nodes = (
"252 0 LINE",
"334 0 LINE",
"334 128 LINE",
"252 128 LINE"
);
},
{
closed = 1;
nodes = (
"348 0 LINE",
"430 0 LINE",
"430 128 LINE",
"348 128 LINE"
);
}
);
width = 682;
},
{
associatedMasterId = "3BA1B4B2-6ACF-4D2C-A9DD-A548EEBF9DB3";
layerId = "304B91E6-741C-42EC-899F-CF323FE516CA";
name = "Color 0";
paths = (
{
closed = 1;
nodes = (
"19 572 LINE",
"101 572 LINE",
"101 700 LINE",
"19 700 LINE"
);
},
{
closed = 1;
nodes = (
"115 572 LINE",
"197 572 LINE",
"197 700 LINE",
"115 700 LINE"
);
},
{
closed = 1;
nodes = (
"19 429 LINE",
"101 429 LINE",
"101 557 LINE",
"19 557 LINE"
);
},
{
closed = 1;
nodes = (
"115 429 LINE",
"197 429 LINE",
"197 557 LINE",
"115 557 LINE"
);
},
{
closed = 1;
nodes = (
"19 286 LINE",
"101 286 LINE",
"101 414 LINE",
"19 414 LINE"
);
},
{
closed = 1;
nodes = (
"115 286 LINE",
"197 286 LINE",
"197 414 LINE",
"115 414 LINE"
);
},
{
closed = 1;
nodes = (
"19 143 LINE",
"101 143 LINE",
"101 271 LINE",
"19 271 LINE"
);
},
{
closed = 1;
nodes = (
"115 143 LINE",
"197 143 LINE",
"197 271 LINE",
"115 271 LINE"
);
},
{
closed = 1;
nodes = (
"19 0 LINE",
"101 0 LINE",
"101 128 LINE",
"19 128 LINE"
);
},
{
closed = 1;
nodes = (
"115 0 LINE",
"197 0 LINE",
"197 128 LINE",
"115 128 LINE"
);
},
{
closed = 1;
nodes = (
"211 286 LINE",
"293 286 LINE",
"293 414 LINE",
"211 414 LINE"
);
},
{
closed = 1;
nodes = (
"307 286 LINE",
"389 286 LINE",
"389 414 LINE",
"307 414 LINE"
);
},
{
closed = 1;
nodes = (
"403 286 LINE",
"485 286 LINE",
"485 414 LINE",
"403 414 LINE"
);
},
{
closed = 1;
nodes = (
"403 429 LINE",
"485 429 LINE",
"485 557 LINE",
"403 557 LINE"
);
},
{
closed = 1;
nodes = (
"499 429 LINE",
"581 429 LINE",
"581 557 LINE",
"499 557 LINE"
);
},
{
closed = 1;
nodes = (
"403 572 LINE",
"485 572 LINE",
"485 700 LINE",
"403 700 LINE"
);
},
{
closed = 1;
nodes = (
"211 572 LINE",
"293 572 LINE",
"293 700 LINE",
"211 700 LINE"
);
},
{
closed = 1;
nodes = (
"307 572 LINE",
"389 572 LINE",
"389 700 LINE",
"307 700 LINE"
);
},
{
closed = 1;
nodes = (
"403 143 LINE",
"485 143 LINE",
"485 271 LINE",
"403 271 LINE"
);
},
{
closed = 1;
nodes = (
"499 143 LINE",
"581 143 LINE",
"581 271 LINE",
"499 271 LINE"
);
},
{
closed = 1;
nodes = (
"403 0 LINE",
"485 0 LINE",
"485 128 LINE",
"403 128 LINE"
);
},
{
closed = 1;
nodes = (
"211 0 LINE",
"293 0 LINE",
"293 128 LINE",
"211 128 LINE"
);
},
{
closed = 1;
nodes = (
"307 0 LINE",
"389 0 LINE",
"389 128 LINE",
"307 128 LINE"
);
}
);
width = 682;
},
{
associatedMasterId = "3BA1B4B2-6ACF-4D2C-A9DD-A548EEBF9DB3";
layerId = "2AD84823-7E9A-4DE8-9F04-5C00DFD9D7BF";
name = "Color 1";
paths = (
{
closed = 1;
nodes = (
"311 290 LINE",
"385 290 LINE",
"385 410 LINE",
"311 410 LINE"
);
}
);
width = 682;
},
{
associatedMasterId = "3BA1B4B2-6ACF-4D2C-A9DD-A548EEBF9DB3";
layerId = "202BDBC5-A145-4DD5-ABC6-C66FB377B7BF";
name = "Color 2";
paths = (
{
closed = 1;
nodes = (
"119 147 LINE",
"193 147 LINE",
"193 267 LINE",
"119 267 LINE"
);
},
{
closed = 1;
nodes = (
"119 4 LINE",
"193 4 LINE",
"193 124 LINE",
"119 124 LINE"
);
},
{
closed = 1;
nodes = (
"215 4 LINE",
"289 4 LINE",
"289 124 LINE",
"215 124 LINE"
);
},
{
closed = 1;
nodes = (
"311 4 LINE",
"385 4 LINE",
"385 124 LINE",
"311 124 LINE"
);
}
);
width = 682;
},
{
associatedMasterId = "3BA1B4B2-6ACF-4D2C-A9DD-A548EEBF9DB3";
layerId = "F19645DE-B4A2-4B19-B966-868045A7A967";
name = "Color 3";
paths = (
{
closed = 1;
nodes = (
"23 433 LINE",
"97 433 LINE",
"97 553 LINE",
"23 553 LINE"
);
},
{
closed = 1;
nodes = (
"119 433 LINE",
"193 433 LINE",
"193 553 LINE",
"119 553 LINE"
);
},
{
closed = 1;
nodes = (
"119 576 LINE",
"193 576 LINE",
"193 696 LINE",
"119 696 LINE"
);
},
{
closed = 1;
nodes = (
"215 576 LINE",
"289 576 LINE",
"289 696 LINE",
"215 696 LINE"
);
}
);
width = 682;
},
{
associatedMasterId = "3BA1B4B2-6ACF-4D2C-A9DD-A548EEBF9DB3";
layerId = "0CE3B435-7958-479E-AE2D-2349E8A8B821";
name = "Color 4";
paths = (
{
closed = 1;
nodes = (
"407 290 LINE",
"481 290 LINE",
"481 410 LINE",
"407 410 LINE"
);
},
{
closed = 1;
nodes = (
"407 147 LINE",
"481 147 LINE",
"481 267 LINE",
"407 267 LINE"
);
},
{
closed = 1;
nodes = (
"503 147 LINE",
"577 147 LINE",
"577 267 LINE",
"503 267 LINE"
);
},
{
closed = 1;
nodes = (
"407 4 LINE",
"481 4 LINE",
"481 124 LINE",
"407 124 LINE"
);
}
);
width = 682;
},
{
associatedMasterId = "3BA1B4B2-6ACF-4D2C-A9DD-A548EEBF9DB3";
layerId = "23F24EF6-340A-432E-BE8F-DC9F269AC840";
name = "Color 5";
paths = (
{
closed = 1;
nodes = (
"311 576 LINE",
"385 576 LINE",
"385 696 LINE",
"311 696 LINE"
);
},
{
closed = 1;
nodes = (
"407 576 LINE",
"481 576 LINE",
"481 696 LINE",
"407 696 LINE"
);
},
{
closed = 1;
nodes = (
"407 433 LINE",
"481 433 LINE",
"481 553 LINE",
"407 553 LINE"
);
},
{
closed = 1;
nodes = (
"503 433 LINE",
"577 433 LINE",
"577 553 LINE",
"503 553 LINE"
);
}
);
width = 682;
},
{
associatedMasterId = "3BA1B4B2-6ACF-4D2C-A9DD-A548EEBF9DB3";
layerId = "EF717FC7-2C7E-4C22-88C7-A76183D7142B";
name = "Color 6";
paths = (
{
closed = 1;
nodes = (
"23 147 LINE",
"97 147 LINE",
"97 267 LINE",
"23 267 LINE"
);
},
{
closed = 1;
nodes = (
"23 290 LINE",
"97 290 LINE",
"97 410 LINE",
"23 410 LINE"
);
},
{
closed = 1;
nodes = (
"119 290 LINE",
"193 290 LINE",
"193 410 LINE",
"119 410 LINE"
);
},
{
closed = 1;
nodes = (
"215 290 LINE",
"289 290 LINE",
"289 410 LINE",
"215 410 LINE"
);
}
);
width = 682;
},
{
associatedMasterId = "3BA1B4B2-6ACF-4D2C-A9DD-A548EEBF9DB3";
layerId = "C1731664-5570-489E-A5C1-BB6589A669A3";
name = "Color 7";
paths = (
{
closed = 1;
nodes = (
"23 576 LINE",
"97 576 LINE",
"97 696 LINE",
"23 696 LINE"
);
},
{
closed = 1;
nodes = (
"23 4 LINE",
"97 4 LINE",
"97 124 LINE",
"23 124 LINE"
);
}
);
width = 682;
}
);
unicode = 0062;
},
{
glyphname = c;
lastChange = "2019-02-09 05:30:05 +0000";
layers = (
{
layerId = "3BA1B4B2-6ACF-4D2C-A9DD-A548EEBF9DB3";
paths = (
{
closed = 1;
nodes = (
"156 572 LINE",
"238 572 LINE",
"238 700 LINE",
"156 700 LINE"
);
},
{
closed = 1;
nodes = (
"252 572 LINE",
"334 572 LINE",
"334 700 LINE",
"252 700 LINE"
);
},
{
closed = 1;
nodes = (
"348 572 LINE",
"430 572 LINE",
"430 700 LINE",
"348 700 LINE"
);
},
{
closed = 1;
nodes = (
"444 572 LINE",
"526 572 LINE",
"526 700 LINE",
"444 700 LINE"
);
},
{
closed = 1;
nodes = (
"444 429 LINE",
"526 429 LINE",
"526 557 LINE",
"444 557 LINE"
);
},
{
closed = 1;
nodes = (
"540 429 LINE",
"622 429 LINE",
"622 557 LINE",
"540 557 LINE"
);
},
{
closed = 1;
nodes = (
"60 429 LINE",
"142 429 LINE",
"142 557 LINE",
"60 557 LINE"
);
},
{
closed = 1;
nodes = (
"156 429 LINE",
"238 429 LINE",
"238 557 LINE",
"156 557 LINE"
);
},
{
closed = 1;
nodes = (
"60 286 LINE",
"142 286 LINE",
"142 414 LINE",
"60 414 LINE"
);
},
{
closed = 1;
nodes = (
"156 286 LINE",
"238 286 LINE",
"238 414 LINE",
"156 414 LINE"
);
},
{
closed = 1;
nodes = (
"60 143 LINE",
"142 143 LINE",
"142 271 LINE",
"60 271 LINE"
);
},
{
closed = 1;
nodes = (
"156 143 LINE",
"238 143 LINE",
"238 271 LINE",
"156 271 LINE"
);
},
{
closed = 1;
nodes = (
"156 0 LINE",
"238 0 LINE",
"238 128 LINE",
"156 128 LINE"
);
},
{
closed = 1;
nodes = (
"252 0 LINE",
"334 0 LINE",
"334 128 LINE",
"252 128 LINE"
);
},
{
closed = 1;
nodes = (
"348 0 LINE",
"430 0 LINE",
"430 128 LINE",
"348 128 LINE"
);
},
{
closed = 1;
nodes = (
"444 0 LINE",
"526 0 LINE",
"526 128 LINE",
"444 128 LINE"
);
},
{
closed = 1;
nodes = (
"444 143 LINE",
"526 143 LINE",
"526 271 LINE",
"444 271 LINE"
);
},
{
closed = 1;
nodes = (
"540 143 LINE",
"622 143 LINE",
"622 271 LINE",
"540 271 LINE"
);
}
);
width = 682;
},
{
associatedMasterId = "3BA1B4B2-6ACF-4D2C-A9DD-A548EEBF9DB3";
layerId = "79243271-CFA4-4B41-94B9-E467E2E751C8";
name = "Color 0";
paths = (
{
closed = 1;
nodes = (
"115 572 LINE",
"197 572 LINE",
"197 700 LINE",
"115 700 LINE"
);
},
{
closed = 1;
nodes = (
"211 572 LINE",
"293 572 LINE",
"293 700 LINE",
"211 700 LINE"
);
},
{
closed = 1;
nodes = (
"307 572 LINE",
"389 572 LINE",
"389 700 LINE",
"307 700 LINE"
);
},
{
closed = 1;
nodes = (
"403 572 LINE",
"485 572 LINE",
"485 700 LINE",
"403 700 LINE"
);
},
{
closed = 1;
nodes = (
"403 429 LINE",
"485 429 LINE",
"485 557 LINE",
"403 557 LINE"
);
},
{
closed = 1;
nodes = (
"499 429 LINE",
"581 429 LINE",
"581 557 LINE",
"499 557 LINE"
);
},
{
closed = 1;
nodes = (
"19 429 LINE",
"101 429 LINE",
"101 557 LINE",
"19 557 LINE"
);
},
{
closed = 1;
nodes = (
"115 429 LINE",
"197 429 LINE",
"197 557 LINE",
"115 557 LINE"
);
},
{
closed = 1;
nodes = (
"19 286 LINE",
"101 286 LINE",
"101 414 LINE",
"19 414 LINE"
);
},
{
closed = 1;
nodes = (
"115 286 LINE",
"197 286 LINE",
"197 414 LINE",
"115 414 LINE"
);
},
{
closed = 1;
nodes = (
"19 143 LINE",
"101 143 LINE",
"101 271 LINE",
"19 271 LINE"
);
},
{
closed = 1;
nodes = (
"115 143 LINE",
"197 143 LINE",
"197 271 LINE",
"115 271 LINE"
);
},
{
closed = 1;
nodes = (
"115 0 LINE",
"197 0 LINE",
"197 128 LINE",
"115 128 LINE"
);
},
{
closed = 1;
nodes = (
"211 0 LINE",
"293 0 LINE",
"293 128 LINE",
"211 128 LINE"
);
},
{
closed = 1;
nodes = (
"307 0 LINE",
"389 0 LINE",
"389 128 LINE",
"307 128 LINE"
);
},
{
closed = 1;
nodes = (
"403 0 LINE",
"485 0 LINE",
"485 128 LINE",
"403 128 LINE"
);
},
{
closed = 1;
nodes = (
"403 143 LINE",
"485 143 LINE",
"485 271 LINE",
"403 271 LINE"
);
},
{
closed = 1;
nodes = (
"499 143 LINE",
"581 143 LINE",
"581 271 LINE",
"499 271 LINE"
);
}
);
width = 682;
},
{
associatedMasterId = "3BA1B4B2-6ACF-4D2C-A9DD-A548EEBF9DB3";
layerId = "FCD590F9-96E7-4534-8FE0-B99FF89665BE";
name = "Color 1";
paths = (
{
closed = 1;
nodes = (
"119 4 LINE",
"193 4 LINE",
"193 124 LINE",
"119 124 LINE"
);
},
{
closed = 1;
nodes = (
"215 4 LINE",
"289 4 LINE",
"289 124 LINE",
"215 124 LINE"
);
}
);
width = 682;
},
{
associatedMasterId = "3BA1B4B2-6ACF-4D2C-A9DD-A548EEBF9DB3";
layerId = "0AD5901D-D009-4C31-8279-2844EBA9A7CF";
name = "Color 2";
paths = (
{
closed = 1;
nodes = (
"215 576 LINE",
"289 576 LINE",
"289 696 LINE",
"215 696 LINE"
);
},
{
closed = 1;
nodes = (
"119 576 LINE",
"193 576 LINE",
"193 696 LINE",
"119 696 LINE"
);
},
{
closed = 1;
nodes = (
"119 433 LINE",
"193 433 LINE",
"193 553 LINE",
"119 553 LINE"
);
},
{
closed = 1;
nodes = (
"119 290 LINE",
"193 290 LINE",
"193 410 LINE",
"119 410 LINE"
);
}
);
width = 682;
},
{
associatedMasterId = "3BA1B4B2-6ACF-4D2C-A9DD-A548EEBF9DB3";
layerId = "1977A1E1-86DD-4166-A665-B051E425D046";
name = "Color 3";
paths = (
{
closed = 1;
nodes = (
"503 147 LINE",
"577 147 LINE",
"577 267 LINE",
"503 267 LINE"
);
},
{
closed = 1;
nodes = (
"407 147 LINE",
"481 147 LINE",
"481 267 LINE",
"407 267 LINE"
);
},
{
closed = 1;
nodes = (
"407 4 LINE",
"481 4 LINE",
"481 124 LINE",
"407 124 LINE"
);
},
{
closed = 1;
nodes = (
"311 4 LINE",
"385 4 LINE",
"385 124 LINE",
"311 124 LINE"
);
}
);
width = 682;
},
{
associatedMasterId = "3BA1B4B2-6ACF-4D2C-A9DD-A548EEBF9DB3";
layerId = "2924CC02-A84A-4CC1-83E2-F9105E958B61";
name = "Color 4";
width = 682;
},
{
associatedMasterId = "3BA1B4B2-6ACF-4D2C-A9DD-A548EEBF9DB3";
layerId = "48B89135-1D8B-4E03-867F-CE9F24ACB088";
name = "Color 5";
paths = (
{
closed = 1;
nodes = (
"503 433 LINE",
"577 433 LINE",
"577 553 LINE",
"503 553 LINE"
);
},
{
closed = 1;
nodes = (
"407 433 LINE",
"481 433 LINE",
"481 553 LINE",
"407 553 LINE"
);
},
{
closed = 1;
nodes = (
"407 576 LINE",
"481 576 LINE",
"481 696 LINE",
"407 696 LINE"
);
},
{
closed = 1;
nodes = (
"311 576 LINE",
"385 576 LINE",
"385 696 LINE",
"311 696 LINE"
);
}
);
width = 682;
},
{
associatedMasterId = "3BA1B4B2-6ACF-4D2C-A9DD-A548EEBF9DB3";
layerId = "C0ADE002-8547-4CDF-B120-B9C820910952";
name = "Color 6";
paths = (
{
closed = 1;
nodes = (
"23 433 LINE",
"97 433 LINE",
"97 553 LINE",
"23 553 LINE"
);
},
{
closed = 1;
nodes = (
"23 290 LINE",
"97 290 LINE",
"97 410 LINE",
"23 410 LINE"
);
},
{
closed = 1;
nodes = (
"23 147 LINE",
"97 147 LINE",
"97 267 LINE",
"23 267 LINE"
);
},
{
closed = 1;
nodes = (
"119 147 LINE",
"193 147 LINE",
"193 267 LINE",
"119 267 LINE"
);
}
);
width = 682;
},
{
associatedMasterId = "3BA1B4B2-6ACF-4D2C-A9DD-A548EEBF9DB3";
layerId = "50033C3E-B72D-435C-8390-A98B2EF66D2D";
name = "Color 7";
width = 682;
}
);
unicode = 0063;
},
